<svg width="136" height="125" viewBox="0 0 136 125" fill="none" xmlns="http://www.w3.org/2000/svg">
<path d="M108.936 24.086L97.014 25.4194L101.076 33.1485L108.936 24.086Z" fill="#222529"/>
<path d="M110.337 16.7809L93.985 23.5995L99.2277 30.5819L110.337 16.7809Z" fill="#222529"/>
<path d="M27.5625 23.9138L39.4844 25.2472L35.4226 32.9763L27.5625 23.9138Z" fill="#222529"/>
<path d="M26.162 16.6087L42.5142 23.4274L37.2715 30.4097L26.162 16.6087Z" fill="#222529"/>
<path d="M30.6908 48.4871C30.6908 27.9169 47.3662 11.2415 67.9365 11.2415V11.2415C88.5067 11.2415 105.182 27.9169 105.182 48.4871V73.3176C105.182 93.8878 88.5067 110.563 67.9365 110.563V110.563C47.3662 110.563 30.6908 93.8878 30.6908 73.3176V48.4871Z" fill="#596068"/>
<path fill-rule="evenodd" clip-rule="evenodd" d="M105.181 48.4903C105.181 27.9201 88.5051 11.2446 67.9349 11.2446C47.3647 11.2446 30.6893 27.9201 30.6893 48.4903V73.3208C30.6893 77.4496 31.3611 81.4216 32.6014 85.1333L45.6563 72.0784V103.172C51.8694 107.816 59.581 110.566 67.9349 110.566C76.3196 110.566 84.0573 107.796 90.2822 103.12V72.0799L103.285 85.083C104.515 81.3857 105.181 77.431 105.181 73.3208V48.4903Z" fill="#AEB5BC"/>
<path fill-rule="evenodd" clip-rule="evenodd" d="M67.9356 11.2415C88.5059 11.2415 105.181 27.9169 105.181 48.4871V73.3176C105.181 77.753 104.406 82.0072 102.984 85.9523L102.984 85.9523C103.068 85.7186 103.15 85.4838 103.229 85.248L67.9345 49.953L32.6412 85.2463C31.3759 81.5014 30.69 77.4896 30.69 73.3176V48.4871C30.69 38.5504 34.5812 29.5225 40.923 22.8441L67.936 49.8571L94.9485 22.8445C88.1621 15.6977 78.5692 11.2415 67.9355 11.2415C66.9361 11.2415 65.9458 11.2808 64.9661 11.3581C65.9458 11.2808 66.9361 11.2415 67.9356 11.2415ZM88.5172 104.365C89.3596 103.805 90.1778 103.213 90.9701 102.588V102.588C90.1778 103.213 89.3596 103.805 88.5172 104.365Z" fill="#DFE2E5"/>
<path d="M105.182 49.8182C105.182 58.3892 98.2335 65.3373 89.6626 65.3373C81.0917 65.3373 74.1436 58.3892 74.1436 49.8182C74.1436 41.2473 81.0917 34.2992 89.6626 34.2992C98.2335 34.2992 105.182 41.2473 105.182 49.8182Z" fill="#52BAE6"/>
<path fill-rule="evenodd" clip-rule="evenodd" d="M89.6626 61.18C95.9375 61.18 101.024 56.0931 101.024 49.8182C101.024 43.5433 95.9375 38.4565 89.6626 38.4565C83.3877 38.4565 78.3009 43.5433 78.3009 49.8182C78.3009 56.0931 83.3877 61.18 89.6626 61.18ZM89.6626 65.3373C98.2335 65.3373 105.182 58.3892 105.182 49.8182C105.182 41.2473 98.2335 34.2992 89.6626 34.2992C81.0917 34.2992 74.1436 41.2473 74.1436 49.8182C74.1436 58.3892 81.0917 65.3373 89.6626 65.3373Z" fill="#E8EDF2"/>
<path fill-rule="evenodd" clip-rule="evenodd" d="M89.6626 62.8542C96.8622 62.8542 102.699 57.0178 102.699 49.8182C102.699 42.6186 96.8622 36.7822 89.6626 36.7822C82.463 36.7822 76.6266 42.6186 76.6266 49.8182C76.6266 57.0178 82.463 62.8542 89.6626 62.8542ZM89.6626 65.3373C98.2335 65.3373 105.182 58.3892 105.182 49.8182C105.182 41.2473 98.2335 34.2992 89.6626 34.2992C81.0917 34.2992 74.1436 41.2473 74.1436 49.8182C74.1436 58.3892 81.0917 65.3373 89.6626 65.3373Z" fill="#596068"/>
<circle cx="89.6638" cy="49.8164" r="8.9847" fill="#222529"/>
<circle cx="86.3941" cy="46.5536" r="2.45037" fill="white"/>
<path d="M30.6905 49.8182C30.6905 58.3892 37.6386 65.3373 46.2096 65.3373C54.7805 65.3373 61.7286 58.3892 61.7286 49.8182C61.7286 41.2473 54.7805 34.2992 46.2096 34.2992C37.6386 34.2992 30.6905 41.2473 30.6905 49.8182Z" fill="#52BAE6"/>
<path fill-rule="evenodd" clip-rule="evenodd" d="M46.2096 61.18C39.9346 61.18 34.8478 56.0931 34.8478 49.8182C34.8478 43.5433 39.9346 38.4565 46.2096 38.4565C52.4845 38.4565 57.5713 43.5433 57.5713 49.8182C57.5713 56.0931 52.4845 61.18 46.2096 61.18ZM46.2096 65.3373C37.6386 65.3373 30.6905 58.3892 30.6905 49.8182C30.6905 41.2473 37.6386 34.2992 46.2096 34.2992C54.7805 34.2992 61.7286 41.2473 61.7286 49.8182C61.7286 58.3892 54.7805 65.3373 46.2096 65.3373Z" fill="#E8EDF2"/>
<path fill-rule="evenodd" clip-rule="evenodd" d="M46.2096 62.8542C39.01 62.8542 33.1736 57.0178 33.1736 49.8182C33.1736 42.6186 39.01 36.7822 46.2096 36.7822C53.4091 36.7822 59.2456 42.6186 59.2456 49.8182C59.2456 57.0178 53.4091 62.8542 46.2096 62.8542ZM46.2096 65.3373C37.6386 65.3373 30.6905 58.3891 30.6905 49.8182C30.6905 41.2473 37.6386 34.2992 46.2096 34.2992C54.7805 34.2992 61.7286 41.2473 61.7286 49.8182C61.7286 58.3891 54.7805 65.3373 46.2096 65.3373Z" fill="#596068"/>
<circle cx="8.9847" cy="8.9847" r="8.9847" transform="matrix(-1 0 0 1 55.1939 40.8317)" fill="#222529"/>
<circle cx="2.45037" cy="2.45037" r="2.45037" transform="matrix(-1 0 0 1 51.9284 44.1032)" fill="white"/>
<path d="M67.936 65.3355L62.56 56.9552L73.3119 56.9552L67.936 65.3355Z" fill="#222529"/>
<rect x="61.7286" y="115" width="1.86228" height="11.1737" rx="0.931142" transform="rotate(-180 61.7286 115)" fill="#222529"/>
<rect x="58.6247" y="115" width="1.86228" height="11.1737" rx="0.931142" transform="rotate(-180 58.6247 115)" fill="#222529"/>
<rect x="55.523" y="115" width="1.86228" height="11.1737" rx="0.931142" transform="rotate(-180 55.523 115)" fill="#222529"/>
<rect x="52.4168" y="115" width="1.86228" height="11.1737" rx="0.931142" transform="rotate(-180 52.4168 115)" fill="#222529"/>
<rect x="84.0763" y="115" width="1.86228" height="11.1737" rx="0.931142" transform="rotate(-180 84.0763 115)" fill="#222529"/>
<rect x="80.9724" y="115" width="1.86228" height="11.1737" rx="0.931142" transform="rotate(-180 80.9724 115)" fill="#222529"/>
<rect x="77.8685" y="115" width="1.86228" height="11.1737" rx="0.931142" transform="rotate(-180 77.8685 115)" fill="#222529"/>
<rect x="74.7645" y="115" width="1.86228" height="11.1737" rx="0.931142" transform="rotate(-180 74.7645 115)" fill="#222529"/>
<path d="M67.85 69.4214C67.3721 69.4558 67.01 69.8742 67.0349 70.3625V70.6016C67.0573 70.8724 67.0971 71.1407 67.1494 71.4065C67.2257 71.9155 67.2532 72.4308 67.2315 72.9452C67.1842 73.1144 67.0897 73.267 66.9602 73.3839L66.9416 73.7426C66.4376 73.7858 65.9374 73.8646 65.4446 73.9791C63.3715 74.4572 61.4838 75.5559 60.0267 77.1392L59.728 76.923C59.5638 76.9739 59.3871 76.9548 59.2365 76.8721C58.8326 76.5666 58.4588 76.2216 58.1203 75.8421C57.9503 75.6345 57.7687 75.437 57.5765 75.2508L57.3923 75.1007C57.2281 74.9659 57.0265 74.8883 56.8162 74.8782C56.6907 74.8714 56.5654 74.895 56.4506 74.9472C56.3357 74.9993 56.2346 75.0785 56.1554 75.1783C55.8742 75.5814 55.9663 76.1396 56.3595 76.4283L56.5312 76.5682C56.7523 76.7185 56.9816 76.8556 57.2181 76.9789C57.6586 77.2295 58.0742 77.5232 58.46 77.8691C58.5587 78.0129 58.616 78.1821 58.6255 78.3574L58.8968 78.6118C57.4322 80.8575 56.8311 83.5776 57.2069 86.2494L56.8585 86.3511C56.7677 86.4986 56.647 86.6245 56.5026 86.7173C56.0165 86.85 55.5189 86.9339 55.0168 86.9679C54.7504 86.9734 54.4845 86.9946 54.2205 87.0314L54.0002 87.0823H53.9753C53.8225 87.104 53.6785 87.1686 53.5595 87.2689C53.4404 87.3693 53.3509 87.5014 53.301 87.6506C53.2511 87.7998 53.2427 87.9603 53.2767 88.1141C53.3107 88.2679 53.3859 88.4091 53.4937 88.5218C53.6026 88.634 53.7399 88.7131 53.8902 88.7501C54.0405 88.7872 54.1979 88.7808 54.3449 88.7316H54.3611L54.5851 88.7062C54.8377 88.6299 55.0865 88.5358 55.3292 88.429C55.7958 88.2382 56.2799 88.092 56.7751 87.9966C56.9469 88.0068 57.1111 88.0666 57.2505 88.1683L57.6238 88.1047C58.4326 90.6697 60.1324 92.8429 62.4021 94.2125L62.2503 94.5368C62.32 94.6856 62.3461 94.8509 62.325 95.0149C62.1197 95.5007 61.8683 95.9661 61.5746 96.4036C61.4135 96.6206 61.2648 96.8469 61.1292 97.0814L61.0234 97.3103C60.9466 97.4463 60.9082 97.6014 60.9123 97.7584C60.9163 97.9153 60.9628 98.0681 61.0465 98.1998C61.1301 98.3315 61.2478 98.437 61.3865 98.5047C61.5251 98.5723 61.6794 98.5995 61.8322 98.5832C61.9854 98.5656 62.1308 98.5049 62.2523 98.408C62.3738 98.311 62.4666 98.1815 62.5204 98.0339L62.6236 97.8177C62.7182 97.5633 62.7979 97.3039 62.8626 97.042C63.0828 96.4862 63.2023 95.8898 63.5034 95.5211C63.6018 95.4265 63.7259 95.3645 63.8593 95.343L64.0459 94.9959C66.5063 95.9623 69.2288 95.9691 71.6938 95.0149L71.8593 95.3392C72.0285 95.3646 72.1803 95.46 72.2824 95.5999C72.5163 96.0552 72.7055 96.532 72.8498 97.0242C72.9156 97.2877 72.9962 97.5471 73.0912 97.8011L73.1945 98.0173C73.2488 98.1644 73.3419 98.2932 73.4634 98.3896C73.5849 98.486 73.7302 98.5461 73.8831 98.5633C74.036 98.5806 74.1905 98.5543 74.3297 98.4873C74.4689 98.4203 74.5872 98.3153 74.6716 98.1839C74.7551 98.0517 74.8012 97.8984 74.8047 97.7411C74.8083 97.5837 74.769 97.4284 74.6915 97.2925L74.5832 97.0636C74.4476 96.8299 74.2988 96.6045 74.1377 96.3883C73.8515 95.9661 73.6051 95.516 73.3911 95.0442C73.3711 94.9579 73.3683 94.8684 73.3829 94.7811C73.3974 94.6937 73.429 94.6102 73.4757 94.5355C73.4226 94.4246 73.3765 94.3103 73.3376 94.1934C75.6023 92.8137 77.2947 90.6328 78.0948 88.064L78.4482 88.1276C78.5751 88.0093 78.7419 87.947 78.9124 87.9521C79.4064 88.0488 79.8904 88.2065 80.3583 88.3845C80.601 88.4989 80.8498 88.5956 81.1024 88.677C81.1622 88.6935 81.2493 88.7075 81.3165 88.724H81.3326C81.4795 88.7725 81.6367 88.7783 81.7866 88.7409C81.9365 88.7035 82.0734 88.6243 82.1819 88.5121C82.2903 88.3999 82.3662 88.2592 82.4011 88.1055C82.4359 87.9519 82.4283 87.7913 82.3791 87.6418C82.3289 87.4925 82.2389 87.3603 82.1194 87.2602C81.9998 87.16 81.8554 87.0958 81.7022 87.0747L81.4608 87.0162C81.1968 86.9794 80.9309 86.9581 80.6644 86.9526C80.1617 86.9195 79.6639 86.8356 79.1786 86.7021C79.0293 86.6169 78.9049 86.4897 78.8203 86.3358L78.4843 86.2341C78.8425 83.5636 78.2288 80.8516 76.7596 78.613L77.0533 78.3358C77.0408 78.1616 77.0968 77.9886 77.2076 77.8551C77.5896 77.5194 78.004 77.2231 78.4395 76.97C78.676 76.8467 78.9053 76.7095 79.1264 76.5593L79.3081 76.4092C79.4418 76.3244 79.5493 76.2026 79.6182 76.0579C79.687 75.9132 79.7144 75.7515 79.6971 75.5916C79.6797 75.4317 79.6185 75.2801 79.5203 75.1543C79.4222 75.0285 79.2912 74.9336 79.1426 74.8807C78.994 74.8279 78.8338 74.819 78.6806 74.8553C78.5273 74.8915 78.3872 74.9713 78.2765 75.0854L78.0923 75.2355C77.9001 75.4218 77.7186 75.6192 77.5485 75.8268C77.22 76.2109 76.8567 76.5606 76.4622 76.8734C76.303 76.9396 76.1289 76.959 75.9595 76.9293L75.6447 77.1582C73.8279 75.2126 71.3802 74.0045 68.7571 73.7629C68.7571 73.6357 68.7409 73.445 68.7384 73.3852C68.5978 73.286 68.4995 73.1347 68.4672 72.963C68.4499 72.4495 68.4816 71.9354 68.5617 71.4281C68.6152 71.1611 68.6526 70.894 68.6762 70.6232V70.3688C68.7011 69.8805 68.3402 69.4621 67.8612 69.4278L67.85 69.4214ZM66.8122 75.9909L66.5633 80.4328H66.5446C66.5322 80.7075 66.3742 80.9414 66.1315 81.0737C65.8888 81.2059 65.6014 81.1665 65.3849 81.005L61.8198 78.4235C62.9545 77.2846 64.3781 76.4922 65.9299 76.1358C66.2211 76.0722 66.5148 76.0239 66.8097 75.9909H66.8122ZM68.8878 75.9909C70.7605 76.2287 72.5039 77.0883 73.8528 78.4375L70.3213 81.0025C70.1035 81.1805 69.8049 81.2161 69.5523 81.094C69.2996 80.972 69.1379 80.7125 69.1341 80.4277L68.8878 75.9909ZM60.5256 80.0945L63.7859 83.0677V83.0867C63.9887 83.2673 64.0771 83.5483 64.0173 83.8167C63.9576 84.085 63.756 84.2974 63.4984 84.3698V84.3826L59.3149 85.6123C59.1079 83.6861 59.5343 81.7443 60.5269 80.0932L60.5256 80.0945ZM75.1506 80.0945C76.1412 81.7413 76.5792 83.673 76.3975 85.597L72.2077 84.3635V84.347C71.9464 84.2745 71.7473 84.0621 71.6888 83.7938C71.6303 83.5255 71.7174 83.247 71.9203 83.0638L75.1556 80.1047L75.1506 80.0945ZM67.1817 83.2991H68.5157L69.3308 84.3571L69.0346 85.6797L67.8363 86.2684L66.6355 85.6797L66.353 84.3571L67.1817 83.2991ZM71.4549 86.9081C71.5109 86.9017 71.5793 86.9017 71.6229 86.9081L75.9371 87.652C75.3149 89.4832 74.0867 91.0473 72.484 92.0939L70.8165 87.9686C70.7707 87.858 70.7515 87.7377 70.7607 87.6178C70.7698 87.498 70.807 87.3822 70.8691 87.2801C70.9311 87.1781 71.0163 87.0927 71.1174 87.0313C71.2185 86.9699 71.3325 86.9341 71.4499 86.9272L71.4549 86.9081ZM64.209 86.9272C64.4529 86.931 64.6781 87.0594 64.8112 87.268C64.9444 87.4765 64.9655 87.7385 64.8697 87.9674V87.9839L63.2122 92.0761C61.6257 91.0372 60.4211 89.4921 59.7803 87.68L64.0571 86.9386C64.1044 86.9335 64.153 86.9335 64.2015 86.9386L64.209 86.9272ZM67.8226 88.7075C67.9585 88.7031 68.093 88.7374 68.211 88.8066C68.329 88.8757 68.4259 88.977 68.4908 89.0992H68.507L70.6149 92.9866L69.7725 93.241C68.222 93.6034 66.6031 93.5182 65.0962 92.9943L67.2116 89.1068C67.3398 88.8779 67.5762 88.738 67.8338 88.7316L67.8226 88.7075Z" fill="white" stroke="white" stroke-width="0.11"/>
</svg>
