<svg width="360" height="89" viewBox="0 0 360 89" fill="none" xmlns="http://www.w3.org/2000/svg">
<path d="M89.7474 49.0048L86.4563 52.5183V60.3014H77.7393V29.1692H86.4563V42.1113L98.5089 29.1692H108.204L95.4846 42.9563L108.871 60.3014H98.6423L89.7474 49.0048Z" fill="#52BAE6"/>
<path d="M125.113 60.924C120.488 60.924 116.885 59.6639 114.306 57.1437C111.756 54.6235 110.481 51.0507 110.481 46.4253V29.1692H119.287V46.1585C119.287 51.1396 121.259 53.6302 125.202 53.6302C129.116 53.6302 131.073 51.1396 131.073 46.1585V29.1692H139.745V46.4253C139.745 51.0507 138.455 54.6235 135.876 57.1437C133.326 59.6639 129.738 60.924 125.113 60.924Z" fill="#52BAE6"/>
<path d="M169.638 44.0682C171.417 44.6908 172.81 45.6692 173.819 47.0035C174.827 48.3081 175.331 49.8943 175.331 51.7623C175.331 54.49 174.234 56.5952 172.04 58.0776C169.845 59.5601 166.673 60.3014 162.522 60.3014H145.711V29.1692H161.632C165.606 29.1692 168.63 29.9104 170.705 31.3929C172.781 32.8458 173.819 34.8175 173.819 37.308C173.819 38.7905 173.448 40.1248 172.707 41.3107C171.995 42.4671 170.972 43.3862 169.638 44.0682ZM154.428 35.529V41.5331H160.476C163.441 41.5331 164.924 40.525 164.924 38.5088C164.924 36.5223 163.441 35.529 160.476 35.529H154.428ZM161.81 53.9415C164.894 53.9415 166.436 52.8889 166.436 50.7838C166.436 48.6787 164.894 47.6261 161.81 47.6261H154.428V53.9415H161.81Z" fill="#52BAE6"/>
<path d="M204.886 53.4968V60.3014H179.892V29.1692H204.308V35.9738H188.609V41.2218H202.44V47.804H188.609V53.4968H204.886Z" fill="#52BAE6"/>
<path d="M228.917 60.5245C225.863 60.5245 223.106 59.8425 220.645 58.4787C218.214 57.1148 216.286 55.232 214.863 52.8304C213.47 50.4288 212.773 47.7306 212.773 44.736C212.773 41.7414 213.47 39.0433 214.863 36.6417C216.286 34.24 218.214 32.3573 220.645 30.9934C223.106 29.6295 225.863 28.9476 228.917 28.9476C231.171 28.9476 233.246 29.3182 235.144 30.0594C237.041 30.771 238.657 31.8384 239.991 33.2616L238.568 34.7293C236.078 32.2683 232.89 31.0379 229.006 31.0379C226.397 31.0379 224.025 31.6309 221.89 32.8168C219.755 34.0028 218.08 35.6484 216.865 37.7535C215.649 39.829 215.041 42.1565 215.041 44.736C215.041 47.3155 215.649 49.6579 216.865 51.763C218.08 53.8385 219.755 55.4692 221.89 56.6552C224.025 57.8412 226.397 58.4342 229.006 58.4342C232.861 58.4342 236.048 57.1889 238.568 54.6983L239.991 56.166C238.657 57.5892 237.026 58.6714 235.099 59.4126C233.202 60.1539 231.141 60.5245 228.917 60.5245Z" fill="#222529"/>
<path d="M246.877 27.302H249.101V60.3021H246.877V27.302Z" fill="#222529"/>
<path d="M266.301 36.9085C269.177 36.9085 271.386 37.6497 272.928 39.1322C274.469 40.5851 275.24 42.7347 275.24 45.581V60.3021H273.105V56.166C272.364 57.5299 271.282 58.5973 269.859 59.3682C268.436 60.1094 266.731 60.48 264.744 60.48C262.165 60.48 260.119 59.8722 258.607 58.6566C257.124 57.4409 256.383 55.8398 256.383 53.8533C256.383 51.9261 257.065 50.3695 258.429 49.1835C259.822 47.9678 262.031 47.36 265.056 47.36H273.016V45.4921C273.016 43.3277 272.423 41.6821 271.238 40.5554C270.081 39.4287 268.376 38.8654 266.123 38.8654C264.581 38.8654 263.099 39.1322 261.675 39.6659C260.282 40.1996 259.096 40.9112 258.118 41.8007L257.006 40.1996C258.162 39.1619 259.556 38.3613 261.186 37.798C262.817 37.205 264.522 36.9085 266.301 36.9085ZM265.056 58.6566C266.983 58.6566 268.614 58.2118 269.948 57.3223C271.312 56.4328 272.335 55.1431 273.016 53.453V49.0945H265.1C262.817 49.0945 261.157 49.5096 260.119 50.3398C259.111 51.17 258.607 52.3115 258.607 53.7644C258.607 55.2765 259.17 56.4773 260.297 57.3668C261.423 58.2266 263.01 58.6566 265.056 58.6566Z" fill="#222529"/>
<path d="M286.537 42.1565C287.249 40.4665 288.361 39.1767 289.873 38.2872C291.385 37.3681 293.223 36.9085 295.388 36.9085V39.0878L294.854 39.0433C292.274 39.0433 290.258 39.8586 288.805 41.4894C287.352 43.0905 286.626 45.329 286.626 48.205V60.3021H284.402V37.0864H286.537V42.1565Z" fill="#222529"/>
<path d="M301.515 37.0864H303.738V60.3021H301.515V37.0864ZM302.626 31.4381C302.122 31.4381 301.692 31.2751 301.337 30.9489C300.981 30.5931 300.803 30.1632 300.803 29.6592C300.803 29.1551 300.981 28.7252 301.337 28.3694C301.692 28.0136 302.122 27.8357 302.626 27.8357C303.131 27.8357 303.56 28.0136 303.916 28.3694C304.272 28.6955 304.45 29.1106 304.45 29.6147C304.45 30.1187 304.272 30.5486 303.916 30.9044C303.56 31.2602 303.131 31.4381 302.626 31.4381Z" fill="#222529"/>
<path d="M324.63 58.8345C324.067 59.3682 323.355 59.7832 322.495 60.0797C321.665 60.3466 320.79 60.48 319.871 60.48C317.855 60.48 316.298 59.9315 315.201 58.8345C314.104 57.7078 313.556 56.1512 313.556 54.1646V38.9988H309.286V37.0864H313.556V32.0163H315.779V37.0864H323.162V38.9988H315.779V53.9423C315.779 55.4544 316.135 56.6107 316.847 57.4113C317.588 58.1822 318.67 58.5676 320.093 58.5676C321.546 58.5676 322.747 58.1377 323.696 57.2778L324.63 58.8345Z" fill="#222529"/>
<path d="M349.032 37.0864L337.113 63.4598C336.223 65.5056 335.185 66.9585 333.999 67.8183C332.843 68.6782 331.464 69.1081 329.863 69.1081C328.796 69.1081 327.788 68.9302 326.839 68.5744C325.92 68.2186 325.134 67.6997 324.482 67.0178L325.594 65.3277C326.78 66.5434 328.218 67.1512 329.908 67.1512C331.034 67.1512 331.998 66.8399 332.799 66.2172C333.599 65.5946 334.34 64.5272 335.022 63.0151L336.268 60.2132L325.816 37.0864H328.173L337.468 57.856L346.764 37.0864H349.032Z" fill="#222529"/>
<path d="M65.7158 19.9769L58.0752 20.8315L60.6784 25.7849L65.7158 19.9769Z" fill="#222529"/>
<path d="M66.6139 15.2952L56.134 19.6652L59.4939 24.14L66.6139 15.2952Z" fill="#222529"/>
<path d="M13.5648 19.8666L21.2054 20.7211L18.6022 25.6746L13.5648 19.8666Z" fill="#222529"/>
<path d="M12.6673 15.1849L23.1471 19.5548L19.7872 24.0297L12.6673 15.1849Z" fill="#222529"/>
<path d="M15.5697 35.6151C15.5697 22.432 26.2567 11.745 39.4398 11.745V11.745C52.6229 11.745 63.3099 22.432 63.3099 35.6151V51.5285C63.3099 64.7116 52.6229 75.3986 39.4398 75.3986V75.3986C26.2567 75.3986 15.5697 64.7116 15.5697 51.5285V35.6151Z" fill="#596068"/>
<path fill-rule="evenodd" clip-rule="evenodd" d="M63.3089 35.617C63.3089 22.434 52.6219 11.7469 39.4388 11.7469C26.2557 11.7469 15.5687 22.434 15.5687 35.617V51.5304C15.5687 54.1766 15.9993 56.7221 16.7942 59.1009L25.1609 50.7343V70.6613C29.1427 73.6379 34.0849 75.4005 39.4388 75.4005C44.8124 75.4005 49.7713 73.6249 53.7608 70.6283V50.7352L62.0942 59.0686C62.8822 56.6991 63.3089 54.1646 63.3089 51.5304V35.617Z" fill="#AEB5BC"/>
<path fill-rule="evenodd" clip-rule="evenodd" d="M56.7514 19.1812C60.8157 23.4612 63.3094 29.2469 63.3094 35.6151V51.5285C63.3094 54.371 62.8125 57.0975 61.9009 59.6259C61.9549 59.4761 62.0075 59.3256 62.0585 59.1745L39.4386 36.5546L16.8197 59.1735C16.0088 56.7734 15.5692 54.2023 15.5692 51.5285V35.6151C15.5692 29.2468 18.0631 23.4609 22.1274 19.1809L39.4396 36.493L56.7514 19.1812ZM42.1803 11.9007C41.2808 11.7978 40.3662 11.745 39.4393 11.745C39.4393 11.745 39.4393 11.745 39.4393 11.745C40.3662 11.745 41.2808 11.7978 42.1803 11.9007Z" fill="#DFE2E5"/>
<path d="M63.3096 36.4683C63.3096 41.9612 58.8567 46.4141 53.3637 46.4141C47.8708 46.4141 43.4178 41.9612 43.4178 36.4683C43.4178 30.9753 47.8708 26.5224 53.3637 26.5224C58.8567 26.5224 63.3096 30.9753 63.3096 36.4683Z" fill="#52BAE6"/>
<path fill-rule="evenodd" clip-rule="evenodd" d="M53.3637 43.7498C57.3852 43.7498 60.6453 40.4898 60.6453 36.4683C60.6453 32.4468 57.3852 29.1867 53.3637 29.1867C49.3422 29.1867 46.0822 32.4468 46.0822 36.4683C46.0822 40.4898 49.3422 43.7498 53.3637 43.7498ZM53.3637 46.4141C58.8567 46.4141 63.3096 41.9612 63.3096 36.4683C63.3096 30.9753 58.8567 26.5224 53.3637 26.5224C47.8708 26.5224 43.4178 30.9753 43.4178 36.4683C43.4178 41.9612 47.8708 46.4141 53.3637 46.4141Z" fill="#E8EDF2"/>
<path fill-rule="evenodd" clip-rule="evenodd" d="M53.3637 44.8228C57.9778 44.8228 61.7183 41.0824 61.7183 36.4683C61.7183 31.8542 57.9778 28.1137 53.3637 28.1137C48.7496 28.1137 45.0092 31.8542 45.0092 36.4683C45.0092 41.0824 48.7496 44.8228 53.3637 44.8228ZM53.3637 46.4141C58.8567 46.4141 63.3096 41.9612 63.3096 36.4683C63.3096 30.9753 58.8567 26.5224 53.3637 26.5224C47.8708 26.5224 43.4178 30.9753 43.4178 36.4683C43.4178 41.9612 47.8708 46.4141 53.3637 46.4141Z" fill="#596068"/>
<circle cx="53.3645" cy="36.4671" r="5.75814" fill="#222529"/>
<circle cx="51.269" cy="34.376" r="1.5704" fill="white"/>
<path d="M15.5696 36.4683C15.5696 41.9612 20.0225 46.4141 25.5154 46.4141C31.0084 46.4141 35.4613 41.9612 35.4613 36.4683C35.4613 30.9753 31.0084 26.5224 25.5154 26.5224C20.0225 26.5224 15.5696 30.9753 15.5696 36.4683Z" fill="#52BAE6"/>
<path fill-rule="evenodd" clip-rule="evenodd" d="M25.5154 43.7498C21.4939 43.7498 18.2339 40.4898 18.2339 36.4683C18.2339 32.4468 21.4939 29.1867 25.5154 29.1867C29.5369 29.1867 32.797 32.4468 32.797 36.4683C32.797 40.4898 29.5369 43.7498 25.5154 43.7498ZM25.5154 46.4141C20.0225 46.4141 15.5696 41.9612 15.5696 36.4683C15.5696 30.9753 20.0225 26.5224 25.5154 26.5224C31.0084 26.5224 35.4613 30.9753 35.4613 36.4683C35.4613 41.9612 31.0084 46.4141 25.5154 46.4141Z" fill="#E8EDF2"/>
<path fill-rule="evenodd" clip-rule="evenodd" d="M25.5154 44.8228C20.9013 44.8228 17.1609 41.0824 17.1609 36.4683C17.1609 31.8542 20.9013 28.1137 25.5154 28.1137C30.1295 28.1137 33.87 31.8542 33.87 36.4683C33.87 41.0824 30.1295 44.8228 25.5154 44.8228ZM25.5154 46.4141C20.0225 46.4141 15.5696 41.9612 15.5696 36.4683C15.5696 30.9753 20.0225 26.5224 25.5154 26.5224C31.0084 26.5224 35.4613 30.9753 35.4613 36.4683C35.4613 41.9612 31.0084 46.4141 25.5154 46.4141Z" fill="#596068"/>
<circle cx="5.75814" cy="5.75814" r="5.75814" transform="matrix(-1 0 0 1 31.2733 30.7089)" fill="#222529"/>
<circle cx="1.5704" cy="1.5704" r="1.5704" transform="matrix(-1 0 0 1 29.1805 32.8056)" fill="white"/>
<path d="M39.4395 46.413L35.9941 41.0423L42.8848 41.0423L39.4395 46.413Z" fill="#222529"/>
<rect x="35.4613" y="78.2421" width="1.1935" height="7.16103" rx="0.596752" transform="rotate(-180 35.4613 78.2421)" fill="#222529"/>
<rect x="33.472" y="78.2421" width="1.1935" height="7.16103" rx="0.596752" transform="rotate(-180 33.472 78.2421)" fill="#222529"/>
<rect x="31.4843" y="78.2421" width="1.1935" height="7.16103" rx="0.596752" transform="rotate(-180 31.4843 78.2421)" fill="#222529"/>
<rect x="29.4935" y="78.2421" width="1.1935" height="7.16103" rx="0.596752" transform="rotate(-180 29.4935 78.2421)" fill="#222529"/>
<rect x="49.7836" y="78.2421" width="1.1935" height="7.16103" rx="0.596752" transform="rotate(-180 49.7836 78.2421)" fill="#222529"/>
<rect x="47.7943" y="78.2421" width="1.1935" height="7.16103" rx="0.596752" transform="rotate(-180 47.7943 78.2421)" fill="#222529"/>
<rect x="45.8051" y="78.2421" width="1.1935" height="7.16103" rx="0.596752" transform="rotate(-180 45.8051 78.2421)" fill="#222529"/>
<rect x="43.8158" y="78.2421" width="1.1935" height="7.16103" rx="0.596752" transform="rotate(-180 43.8158 78.2421)" fill="#222529"/>
<g clip-path="url(#clip0_405_439)">
<path d="M39.3844 49.0822C39.0781 49.1042 38.8461 49.3723 38.862 49.6852V49.8385C38.8764 50.0121 38.9019 50.184 38.9354 50.3543C38.9843 50.6805 39.0019 51.0108 38.988 51.3405C38.9577 51.4489 38.8971 51.5467 38.8142 51.6217L38.8022 51.8515C38.4792 51.8792 38.1586 51.9297 37.8428 52.0031C36.5142 52.3095 35.3044 53.0136 34.3706 54.0283L34.1792 53.8898C34.0739 53.9224 33.9606 53.9101 33.8642 53.8572C33.6053 53.6614 33.3657 53.4403 33.1488 53.197C33.0398 53.064 32.9235 52.9374 32.8003 52.8181L32.6823 52.7219C32.577 52.6355 32.4478 52.5858 32.313 52.5793C32.2326 52.5749 32.1523 52.5901 32.0787 52.6235C32.0051 52.6569 31.9403 52.7077 31.8896 52.7716C31.7093 53.0299 31.7683 53.3877 32.0204 53.5727L32.1304 53.6624C32.2721 53.7587 32.4191 53.8466 32.5706 53.9256C32.8529 54.0862 33.1193 54.2744 33.3665 54.4961C33.4298 54.5883 33.4665 54.6967 33.4726 54.8091L33.6464 54.9721C32.7078 56.4113 32.3226 58.1546 32.5634 59.8669L32.3401 59.9321C32.2819 60.0266 32.2046 60.1073 32.1121 60.1668C31.8005 60.2518 31.4816 60.3056 31.1599 60.3273C30.9891 60.3309 30.8187 60.3445 30.6495 60.3681L30.5083 60.4007H30.4924C30.3944 60.4146 30.3021 60.456 30.2258 60.5203C30.1496 60.5846 30.0922 60.6693 30.0602 60.7649C30.0282 60.8605 30.0228 60.9634 30.0446 61.0619C30.0665 61.1605 30.1146 61.251 30.1837 61.3232C30.2535 61.3951 30.3415 61.4458 30.4378 61.4695C30.5341 61.4933 30.635 61.4892 30.7292 61.4577H30.7396L30.8831 61.4414C31.045 61.3925 31.2045 61.3322 31.36 61.2638C31.6591 61.1415 31.9693 61.0478 32.2867 60.9867C32.3968 60.9932 32.502 61.0315 32.5914 61.0967L32.8306 61.0559C33.349 62.6998 34.4383 64.0926 35.893 64.9703L35.7957 65.1781C35.8403 65.2735 35.8571 65.3794 35.8435 65.4846C35.7119 65.7959 35.5508 66.0942 35.3626 66.3745C35.2594 66.5136 35.1641 66.6586 35.0771 66.8089L35.0093 66.9556C34.9602 67.0428 34.9355 67.1422 34.9381 67.2428C34.9407 67.3434 34.9705 67.4413 35.0241 67.5257C35.0778 67.6101 35.1532 67.6777 35.242 67.7211C35.3309 67.7644 35.4298 67.7819 35.5277 67.7714C35.6259 67.7601 35.7191 67.7213 35.7969 67.6591C35.8748 67.5969 35.9343 67.514 35.9687 67.4193L36.0349 67.2808C36.0955 67.1178 36.1466 66.9515 36.188 66.7837C36.3292 66.4275 36.4058 66.0453 36.5987 65.8089C36.6618 65.7483 36.7413 65.7086 36.8268 65.6948L36.9464 65.4723C38.5233 66.0917 40.2681 66.0961 41.8478 65.4846L41.9539 65.6924C42.0624 65.7087 42.1596 65.7698 42.225 65.8595C42.375 66.1512 42.4962 66.4568 42.5887 66.7722C42.6309 66.9411 42.6825 67.1074 42.7434 67.2702L42.8096 67.4087C42.8444 67.503 42.9041 67.5856 42.9819 67.6473C43.0598 67.7091 43.1529 67.7476 43.2509 67.7587C43.3489 67.7697 43.4479 67.7529 43.5371 67.7099C43.6263 67.667 43.7021 67.5997 43.7562 67.5155C43.8098 67.4308 43.8393 67.3325 43.8416 67.2317C43.8438 67.1309 43.8187 67.0313 43.769 66.9442L43.6996 66.7975C43.6127 66.6478 43.5173 66.5033 43.4141 66.3647C43.2307 66.0942 43.0728 65.8057 42.9356 65.5033C42.9228 65.448 42.921 65.3907 42.9303 65.3347C42.9396 65.2787 42.9599 65.2252 42.9898 65.1773C42.9558 65.1062 42.9262 65.033 42.9013 64.9581C44.3527 64.0738 45.4373 62.6761 45.9501 61.0298L46.1766 61.0706C46.2579 60.9948 46.3648 60.9549 46.4741 60.9581C46.7907 61.0201 47.1009 61.1211 47.4007 61.2352C47.5563 61.3086 47.7158 61.3705 47.8776 61.4227C47.9159 61.4333 47.9718 61.4422 48.0148 61.4528H48.0252C48.1193 61.4839 48.22 61.4876 48.3161 61.4637C48.4122 61.4397 48.4999 61.3889 48.5694 61.317C48.639 61.2451 48.6876 61.1549 48.7099 61.0564C48.7322 60.958 48.7274 60.8551 48.6959 60.7593C48.6636 60.6635 48.606 60.5789 48.5294 60.5147C48.4528 60.4505 48.3602 60.4093 48.262 60.3958L48.1073 60.3583C47.9381 60.3347 47.7677 60.3211 47.5969 60.3176C47.2747 60.2964 46.9557 60.2426 46.6447 60.157C46.549 60.1024 46.4693 60.0209 46.4151 59.9223L46.1997 59.8571C46.4293 58.1456 46.036 56.4076 45.0944 54.9729L45.2826 54.7952C45.2746 54.6836 45.3105 54.5727 45.3815 54.4871C45.6263 54.272 45.8919 54.0821 46.171 53.9199C46.3226 53.8409 46.4695 53.753 46.6112 53.6567L46.7277 53.5605C46.8134 53.5061 46.8823 53.4281 46.9264 53.3353C46.9705 53.2426 46.9881 53.139 46.977 53.0365C46.9659 52.934 46.9266 52.8368 46.8637 52.7562C46.8008 52.6756 46.7169 52.6148 46.6216 52.5809C46.5264 52.547 46.4238 52.5414 46.3255 52.5646C46.2273 52.5878 46.1375 52.6389 46.0665 52.7121L45.9485 52.8083C45.8254 52.9277 45.709 53.0542 45.6 53.1872C45.3895 53.4334 45.1566 53.6575 44.9038 53.858C44.8018 53.9004 44.6902 53.9128 44.5816 53.8938L44.3799 54.0405C43.2155 52.7936 41.6469 52.0194 39.9657 51.8645C39.9657 51.783 39.9554 51.6608 39.9538 51.6225C39.8637 51.5589 39.8007 51.4619 39.7799 51.3519C39.7689 51.0228 39.7892 50.6933 39.8405 50.3682C39.8748 50.1971 39.8988 50.0259 39.9139 49.8523V49.6893C39.9299 49.3764 39.6986 49.1082 39.3916 49.0862L39.3844 49.0822ZM38.7193 53.2924L38.5598 56.1391H38.5478C38.5398 56.3152 38.4386 56.4651 38.283 56.5499C38.1275 56.6346 37.9433 56.6094 37.8045 56.5059L35.5197 54.8514C36.247 54.1215 37.1593 53.6137 38.1538 53.3853C38.3405 53.3445 38.5287 53.3136 38.7177 53.2924H38.7193ZM40.0495 53.2924C41.2497 53.4448 42.367 53.9957 43.2315 54.8604L40.9682 56.5042C40.8286 56.6183 40.6372 56.6411 40.4753 56.5629C40.3135 56.4847 40.2098 56.3184 40.2074 56.1359L40.0495 53.2924ZM34.6904 55.9223L36.7798 57.8278V57.84C36.9098 57.9557 36.9664 58.1358 36.9281 58.3078C36.8898 58.4798 36.7606 58.6159 36.5956 58.6623V58.6705L33.9144 59.4586C33.7817 58.2241 34.055 56.9796 34.6911 55.9215L34.6904 55.9223ZM44.0633 55.9223C44.6981 56.9777 44.9788 58.2157 44.8623 59.4488L42.1772 58.6582V58.6476C42.0097 58.6012 41.8821 58.4651 41.8446 58.2931C41.8072 58.1212 41.863 57.9427 41.993 57.8253L44.0664 55.9289L44.0633 55.9223ZM38.9561 57.9761H39.811L40.3334 58.6542L40.1436 59.5018L39.3756 59.8791L38.606 59.5018L38.425 58.6542L38.9561 57.9761ZM41.6947 60.289C41.7306 60.285 41.7745 60.285 41.8024 60.289L44.5673 60.7658C44.1685 61.9394 43.3814 62.9418 42.3542 63.6125L41.2856 60.9687C41.2562 60.8978 41.2439 60.8207 41.2498 60.7439C41.2557 60.6671 41.2795 60.5929 41.3193 60.5275C41.359 60.462 41.4136 60.4074 41.4784 60.368C41.5432 60.3286 41.6163 60.3057 41.6915 60.3013L41.6947 60.289ZM37.0509 60.3013C37.2072 60.3037 37.3516 60.386 37.4369 60.5197C37.5222 60.6533 37.5358 60.8212 37.4744 60.9679V60.9785L36.4121 63.6011C35.3953 62.9353 34.6234 61.9451 34.2127 60.7837L36.9536 60.3086C36.9839 60.3053 37.015 60.3053 37.0461 60.3086L37.0509 60.3013ZM39.3668 61.4422C39.454 61.4394 39.5401 61.4614 39.6158 61.5057C39.6914 61.5501 39.7535 61.615 39.7951 61.6932H39.8055L41.1564 64.1847L40.6165 64.3477C39.6228 64.5799 38.5853 64.5253 37.6195 64.1896L38.9753 61.6981C39.0574 61.5514 39.2089 61.4618 39.374 61.4577L39.3668 61.4422Z" fill="white" stroke="white" stroke-width="0.11"/>
</g>
<defs>
<clipPath id="clip0_405_439">
<rect width="19.8566" height="19.8566" fill="white" transform="translate(29.5804 48.457)"/>
</clipPath>
</defs>
</svg>
