<svg width="136" height="125" viewBox="0 0 136 125" fill="none" xmlns="http://www.w3.org/2000/svg">
<path d="M108.936 24.086L97.0141 25.4194L101.076 33.1485L108.936 24.086Z" fill="#222529"/>
<path d="M110.337 16.7809L93.9851 23.5995L99.2277 30.5819L110.337 16.7809Z" fill="#222529"/>
<path d="M27.5625 23.9138L39.4845 25.2472L35.4226 32.9763L27.5625 23.9138Z" fill="#222529"/>
<path d="M26.162 16.6087L42.5142 23.4274L37.2715 30.4097L26.162 16.6087Z" fill="#222529"/>
<path d="M30.6907 48.4871C30.6907 27.9169 47.3661 11.2415 67.9364 11.2415V11.2415C88.5066 11.2415 105.182 27.9169 105.182 48.4871V73.3176C105.182 93.8878 88.5066 110.563 67.9364 110.563V110.563C47.3661 110.563 30.6907 93.8878 30.6907 73.3176V48.4871Z" fill="#596068"/>
<path fill-rule="evenodd" clip-rule="evenodd" d="M105.181 48.4903C105.181 27.9201 88.5051 11.2446 67.9349 11.2446C47.3647 11.2446 30.6892 27.9201 30.6892 48.4903V73.3208C30.6892 77.4496 31.361 81.4216 32.6014 85.1333L45.6563 72.0784V103.172C51.8694 107.816 59.581 110.566 67.9349 110.566C76.3196 110.566 84.0572 107.796 90.2821 103.12V72.0799L103.285 85.083C104.515 81.3857 105.181 77.431 105.181 73.3208V48.4903Z" fill="#AEB5BC"/>
<path fill-rule="evenodd" clip-rule="evenodd" d="M67.9356 11.2415C88.5058 11.2415 105.181 27.9169 105.181 48.4871V73.3176C105.181 77.753 104.406 82.0072 102.984 85.9523L102.983 85.9523C103.068 85.7186 103.15 85.4838 103.229 85.248L67.9344 49.953L32.6411 85.2463C31.3759 81.5014 30.6899 77.4896 30.6899 73.3176V48.4871C30.6899 38.5504 34.5812 29.5225 40.923 22.8441L67.936 49.8571L94.9485 22.8445C88.162 15.6977 78.5692 11.2415 67.9355 11.2415C66.936 11.2415 65.9457 11.2808 64.9661 11.3581C65.9458 11.2808 66.9361 11.2415 67.9356 11.2415ZM88.5172 104.365C89.3595 103.805 90.1778 103.213 90.9701 102.588V102.588C90.1778 103.213 89.3595 103.805 88.5172 104.365Z" fill="#DFE2E5"/>
<path d="M105.182 49.8182C105.182 58.3892 98.2335 65.3373 89.6626 65.3373C81.0917 65.3373 74.1436 58.3892 74.1436 49.8182C74.1436 41.2473 81.0917 34.2992 89.6626 34.2992C98.2335 34.2992 105.182 41.2473 105.182 49.8182Z" fill="#52BAE6"/>
<path fill-rule="evenodd" clip-rule="evenodd" d="M89.6626 61.18C95.9375 61.18 101.024 56.0931 101.024 49.8182C101.024 43.5433 95.9375 38.4565 89.6626 38.4565C83.3877 38.4565 78.3008 43.5433 78.3008 49.8182C78.3008 56.0931 83.3877 61.18 89.6626 61.18ZM89.6626 65.3373C98.2335 65.3373 105.182 58.3892 105.182 49.8182C105.182 41.2473 98.2335 34.2992 89.6626 34.2992C81.0917 34.2992 74.1436 41.2473 74.1436 49.8182C74.1436 58.3892 81.0917 65.3373 89.6626 65.3373Z" fill="#E8EDF2"/>
<path fill-rule="evenodd" clip-rule="evenodd" d="M89.6626 62.8542C96.8622 62.8542 102.699 57.0178 102.699 49.8182C102.699 42.6186 96.8622 36.7822 89.6626 36.7822C82.463 36.7822 76.6266 42.6186 76.6266 49.8182C76.6266 57.0178 82.463 62.8542 89.6626 62.8542ZM89.6626 65.3373C98.2335 65.3373 105.182 58.3892 105.182 49.8182C105.182 41.2473 98.2335 34.2992 89.6626 34.2992C81.0917 34.2992 74.1436 41.2473 74.1436 49.8182C74.1436 58.3892 81.0917 65.3373 89.6626 65.3373Z" fill="#596068"/>
<circle cx="89.6638" cy="49.8164" r="8.9847" fill="#222529"/>
<circle cx="86.3941" cy="46.5536" r="2.45037" fill="white"/>
<path d="M30.6906 49.8182C30.6906 58.3892 37.6387 65.3373 46.2096 65.3373C54.7805 65.3373 61.7286 58.3892 61.7286 49.8182C61.7286 41.2473 54.7805 34.2992 46.2096 34.2992C37.6387 34.2992 30.6906 41.2473 30.6906 49.8182Z" fill="#52BAE6"/>
<path fill-rule="evenodd" clip-rule="evenodd" d="M46.2096 61.18C39.9347 61.18 34.8479 56.0931 34.8479 49.8182C34.8479 43.5433 39.9347 38.4565 46.2096 38.4565C52.4845 38.4565 57.5714 43.5433 57.5714 49.8182C57.5714 56.0931 52.4845 61.18 46.2096 61.18ZM46.2096 65.3373C37.6387 65.3373 30.6906 58.3892 30.6906 49.8182C30.6906 41.2473 37.6387 34.2992 46.2096 34.2992C54.7805 34.2992 61.7286 41.2473 61.7286 49.8182C61.7286 58.3892 54.7805 65.3373 46.2096 65.3373Z" fill="#E8EDF2"/>
<path fill-rule="evenodd" clip-rule="evenodd" d="M46.2096 62.8542C39.01 62.8542 33.1736 57.0178 33.1736 49.8182C33.1736 42.6186 39.01 36.7822 46.2096 36.7822C53.4092 36.7822 59.2456 42.6186 59.2456 49.8182C59.2456 57.0178 53.4092 62.8542 46.2096 62.8542ZM46.2096 65.3373C37.6387 65.3373 30.6906 58.3891 30.6906 49.8182C30.6906 41.2473 37.6387 34.2992 46.2096 34.2992C54.7805 34.2992 61.7286 41.2473 61.7286 49.8182C61.7286 58.3891 54.7805 65.3373 46.2096 65.3373Z" fill="#596068"/>
<circle cx="8.9847" cy="8.9847" r="8.9847" transform="matrix(-1 0 0 1 55.194 40.8317)" fill="#222529"/>
<circle cx="2.45037" cy="2.45037" r="2.45037" transform="matrix(-1 0 0 1 51.9285 44.1032)" fill="white"/>
<path d="M67.9359 65.3355L62.56 56.9552L73.3119 56.9552L67.9359 65.3355Z" fill="#222529"/>
<rect x="61.7286" y="115" width="1.86228" height="11.1737" rx="0.931142" transform="rotate(-180 61.7286 115)" fill="#222529"/>
<rect x="58.6248" y="115" width="1.86228" height="11.1737" rx="0.931142" transform="rotate(-180 58.6248 115)" fill="#222529"/>
<rect x="55.5231" y="115" width="1.86228" height="11.1737" rx="0.931142" transform="rotate(-180 55.5231 115)" fill="#222529"/>
<rect x="52.4169" y="115" width="1.86228" height="11.1737" rx="0.931142" transform="rotate(-180 52.4169 115)" fill="#222529"/>
<rect x="84.0763" y="115" width="1.86228" height="11.1737" rx="0.931142" transform="rotate(-180 84.0763 115)" fill="#222529"/>
<rect x="80.9724" y="115" width="1.86228" height="11.1737" rx="0.931142" transform="rotate(-180 80.9724 115)" fill="#222529"/>
<rect x="77.8684" y="115" width="1.86228" height="11.1737" rx="0.931142" transform="rotate(-180 77.8684 115)" fill="#222529"/>
<rect x="74.7645" y="115" width="1.86228" height="11.1737" rx="0.931142" transform="rotate(-180 74.7645 115)" fill="#222529"/>
<path d="M67.8499 69.4214C67.372 69.4558 67.0099 69.8742 67.0348 70.3625V70.6016C67.0572 70.8724 67.097 71.1407 67.1493 71.4065C67.2256 71.9155 67.2531 72.4308 67.2314 72.9452C67.1841 73.1144 67.0896 73.267 66.9601 73.3839L66.9415 73.7426C66.4375 73.7858 65.9373 73.8646 65.4445 73.9791C63.3714 74.4572 61.4837 75.5559 60.0266 77.1392L59.7279 76.923C59.5637 76.9739 59.387 76.9548 59.2364 76.8721C58.8325 76.5666 58.4587 76.2216 58.1202 75.8421C57.9502 75.6345 57.7686 75.437 57.5764 75.2508L57.3922 75.1007C57.228 74.9659 57.0264 74.8883 56.8161 74.8782C56.6906 74.8714 56.5653 74.895 56.4505 74.9472C56.3356 74.9993 56.2345 75.0785 56.1553 75.1783C55.8741 75.5814 55.9662 76.1396 56.3594 76.4283L56.5311 76.5682C56.7522 76.7185 56.9815 76.8556 57.218 76.9789C57.6585 77.2295 58.0742 77.5232 58.4599 77.8691C58.5586 78.0129 58.6159 78.1821 58.6254 78.3574L58.8967 78.6118C57.4321 80.8575 56.831 83.5776 57.2068 86.2494L56.8584 86.3511C56.7676 86.4986 56.6469 86.6245 56.5025 86.7173C56.0164 86.85 55.5188 86.9339 55.0168 86.9679C54.7503 86.9734 54.4844 86.9946 54.2204 87.0314L54.0001 87.0823H53.9752C53.8224 87.104 53.6784 87.1686 53.5594 87.2689C53.4403 87.3693 53.3509 87.5014 53.3009 87.6506C53.251 87.7998 53.2426 87.9603 53.2766 88.1141C53.3106 88.2679 53.3858 88.4091 53.4937 88.5218C53.6025 88.634 53.7398 88.7131 53.8901 88.7501C54.0404 88.7872 54.1978 88.7808 54.3448 88.7316H54.361L54.585 88.7062C54.8376 88.6299 55.0864 88.5358 55.3291 88.429C55.7957 88.2382 56.2798 88.092 56.775 87.9966C56.9468 88.0068 57.111 88.0666 57.2504 88.1683L57.6237 88.1047C58.4325 90.6697 60.1323 92.8429 62.402 94.2125L62.2502 94.5368C62.3199 94.6856 62.346 94.8509 62.3249 95.0149C62.1196 95.5007 61.8682 95.9661 61.5745 96.4036C61.4134 96.6206 61.2647 96.8469 61.1291 97.0814L61.0233 97.3103C60.9465 97.4463 60.9081 97.6014 60.9122 97.7584C60.9162 97.9153 60.9627 98.0681 61.0464 98.1998C61.13 98.3315 61.2477 98.437 61.3864 98.5047C61.525 98.5723 61.6793 98.5995 61.8321 98.5832C61.9853 98.5656 62.1307 98.5049 62.2522 98.408C62.3737 98.311 62.4665 98.1815 62.5203 98.0339L62.6235 97.8177C62.7181 97.5633 62.7978 97.3039 62.8625 97.042C63.0827 96.4862 63.2022 95.8898 63.5033 95.5211C63.6017 95.4265 63.7258 95.3645 63.8592 95.343L64.0458 94.9959C66.5062 95.9623 69.2287 95.9691 71.6937 95.0149L71.8592 95.3392C72.0284 95.3646 72.1802 95.46 72.2823 95.5999C72.5162 96.0552 72.7054 96.532 72.8497 97.0242C72.9155 97.2877 72.9961 97.5471 73.0911 97.8011L73.1944 98.0173C73.2487 98.1644 73.3418 98.2932 73.4633 98.3896C73.5848 98.486 73.7301 98.5461 73.883 98.5633C74.0359 98.5806 74.1904 98.5543 74.3296 98.4873C74.4688 98.4203 74.5871 98.3153 74.6715 98.1839C74.755 98.0517 74.8011 97.8984 74.8046 97.7411C74.8082 97.5837 74.7689 97.4284 74.6914 97.2925L74.5831 97.0636C74.4475 96.8299 74.2987 96.6045 74.1376 96.3883C73.8514 95.9661 73.605 95.516 73.391 95.0442C73.371 94.9579 73.3682 94.8684 73.3828 94.7811C73.3973 94.6937 73.4289 94.6102 73.4756 94.5355C73.4225 94.4246 73.3764 94.3103 73.3375 94.1934C75.6022 92.8137 77.2946 90.6328 78.0947 88.064L78.4481 88.1276C78.575 88.0093 78.7418 87.947 78.9123 87.9521C79.4063 88.0488 79.8903 88.2065 80.3582 88.3845C80.6009 88.4989 80.8497 88.5956 81.1023 88.677C81.1621 88.6935 81.2492 88.7075 81.3164 88.724H81.3325C81.4794 88.7725 81.6366 88.7783 81.7865 88.7409C81.9364 88.7035 82.0733 88.6243 82.1818 88.5121C82.2902 88.3999 82.3661 88.2592 82.401 88.1055C82.4358 87.9519 82.4282 87.7913 82.379 87.6418C82.3288 87.4925 82.2388 87.3603 82.1193 87.2602C81.9997 87.16 81.8553 87.0958 81.7021 87.0747L81.4607 87.0162C81.1967 86.9794 80.9308 86.9581 80.6643 86.9526C80.1616 86.9195 79.6638 86.8356 79.1785 86.7021C79.0292 86.6169 78.9048 86.4897 78.8202 86.3358L78.4842 86.2341C78.8424 83.5636 78.2287 80.8516 76.7595 78.613L77.0532 78.3358C77.0407 78.1616 77.0967 77.9886 77.2075 77.8551C77.5895 77.5194 78.0039 77.2231 78.4394 76.97C78.6759 76.8467 78.9052 76.7095 79.1263 76.5593L79.308 76.4092C79.4417 76.3244 79.5492 76.2026 79.6181 76.0579C79.6869 75.9132 79.7143 75.7515 79.697 75.5916C79.6796 75.4317 79.6184 75.2801 79.5202 75.1543C79.4221 75.0285 79.2911 74.9336 79.1425 74.8807C78.9939 74.8279 78.8337 74.819 78.6805 74.8553C78.5272 74.8915 78.3871 74.9713 78.2764 75.0854L78.0922 75.2355C77.9 75.4218 77.7185 75.6192 77.5484 75.8268C77.2199 76.2109 76.8566 76.5606 76.4621 76.8734C76.3029 76.9396 76.1288 76.959 75.9594 76.9293L75.6446 77.1582C73.8278 75.2126 71.3801 74.0045 68.757 73.7629C68.757 73.6357 68.7408 73.445 68.7383 73.3852C68.5977 73.286 68.4994 73.1347 68.4671 72.963C68.4498 72.4495 68.4815 71.9354 68.5616 71.4281C68.6151 71.1611 68.6525 70.894 68.6761 70.6232V70.3688C68.701 69.8805 68.3401 69.4621 67.8611 69.4278L67.8499 69.4214ZM66.8121 75.9909L66.5632 80.4328H66.5445C66.5321 80.7075 66.3741 80.9414 66.1314 81.0737C65.8888 81.2059 65.6013 81.1665 65.3848 81.005L61.8197 78.4235C62.9544 77.2846 64.378 76.4922 65.9298 76.1358C66.221 76.0722 66.5147 76.0239 66.8096 75.9909H66.8121ZM68.8877 75.9909C70.7604 76.2287 72.5038 77.0883 73.8527 78.4375L70.3212 81.0025C70.1034 81.1805 69.8048 81.2161 69.5522 81.094C69.2996 80.972 69.1378 80.7125 69.134 80.4277L68.8877 75.9909ZM60.5255 80.0945L63.7858 83.0677V83.0867C63.9886 83.2673 64.077 83.5483 64.0172 83.8167C63.9575 84.085 63.7559 84.2974 63.4983 84.3698V84.3826L59.3148 85.6123C59.1078 83.6861 59.5342 81.7443 60.5268 80.0932L60.5255 80.0945ZM75.1505 80.0945C76.1411 81.7413 76.5791 83.673 76.3974 85.597L72.2076 84.3635V84.347C71.9463 84.2745 71.7472 84.0621 71.6887 83.7938C71.6302 83.5255 71.7173 83.247 71.9202 83.0638L75.1555 80.1047L75.1505 80.0945ZM67.1816 83.2991H68.5156L69.3307 84.3571L69.0345 85.6797L67.8362 86.2684L66.6354 85.6797L66.3529 84.3571L67.1816 83.2991ZM71.4548 86.9081C71.5108 86.9017 71.5792 86.9017 71.6228 86.9081L75.937 87.652C75.3148 89.4832 74.0866 91.0473 72.4839 92.0939L70.8164 87.9686C70.7706 87.858 70.7514 87.7377 70.7606 87.6178C70.7697 87.498 70.8069 87.3822 70.869 87.2801C70.931 87.1781 71.0162 87.0927 71.1173 87.0313C71.2184 86.9699 71.3324 86.9341 71.4498 86.9272L71.4548 86.9081ZM64.2089 86.9272C64.4528 86.931 64.678 87.0594 64.8111 87.268C64.9443 87.4765 64.9654 87.7385 64.8696 87.9674V87.9839L63.2121 92.0761C61.6256 91.0372 60.421 89.4921 59.7802 87.68L64.057 86.9386C64.1043 86.9335 64.1529 86.9335 64.2014 86.9386L64.2089 86.9272ZM67.8225 88.7075C67.9584 88.7031 68.0929 88.7374 68.2109 88.8066C68.3289 88.8757 68.4258 88.977 68.4907 89.0992H68.5069L70.6148 92.9866L69.7724 93.241C68.2219 93.6034 66.603 93.5182 65.0961 92.9943L67.2115 89.1068C67.3397 88.8779 67.5761 88.738 67.8337 88.7316L67.8225 88.7075Z" fill="white" stroke="white" stroke-width="0.11"/>
</svg>
