<svg width="290" height="180" viewBox="0 0 290 180" fill="none" xmlns="http://www.w3.org/2000/svg">
<path d="M22.0081 121.703L18.717 125.216V132.999H10V101.867H18.717V114.809L30.7696 101.867H40.4651L27.7453 115.654L41.1322 132.999H30.903L22.0081 121.703Z" fill="#52BAE6"/>
<path d="M57.3737 133.622C52.7484 133.622 49.1459 132.362 46.5664 129.842C44.0165 127.321 42.7416 123.749 42.7416 119.123V101.867H51.5476V118.856C51.5476 123.838 53.5193 126.328 57.4627 126.328C61.3764 126.328 63.3333 123.838 63.3333 118.856V101.867H72.0058V119.123C72.0058 123.749 70.7161 127.321 68.1366 129.842C65.5867 132.362 61.9991 133.622 57.3737 133.622Z" fill="#52BAE6"/>
<path d="M101.899 116.766C103.678 117.389 105.071 118.367 106.079 119.701C107.087 121.006 107.591 122.592 107.591 124.46C107.591 127.188 106.494 129.293 104.3 130.776C102.106 132.258 98.9337 132.999 94.7827 132.999H77.9713V101.867H93.8932C97.8663 101.867 100.891 102.608 102.966 104.091C105.042 105.544 106.079 107.515 106.079 110.006C106.079 111.489 105.709 112.823 104.967 114.009C104.256 115.165 103.233 116.084 101.899 116.766ZM86.6883 108.227V114.231H92.7369C95.7019 114.231 97.1843 113.223 97.1843 111.207C97.1843 109.22 95.7019 108.227 92.7369 108.227H86.6883ZM94.0711 126.64C97.1547 126.64 98.6965 125.587 98.6965 123.482C98.6965 121.377 97.1547 120.324 94.0711 120.324H86.6883V126.64H94.0711Z" fill="#52BAE6"/>
<path d="M137.147 126.195V132.999H112.152V101.867H136.569V108.672H120.869V113.92H134.701V120.502H120.869V126.195H137.147Z" fill="#52BAE6"/>
<path d="M161.178 133.222C158.124 133.222 155.367 132.541 152.906 131.177C150.474 129.813 148.547 127.93 147.124 125.528C145.73 123.127 145.034 120.429 145.034 117.434C145.034 114.439 145.73 111.741 147.124 109.34C148.547 106.938 150.474 105.055 152.906 103.691C155.367 102.328 158.124 101.646 161.178 101.646C163.431 101.646 165.507 102.016 167.404 102.757C169.302 103.469 170.918 104.536 172.252 105.96L170.829 107.427C168.338 104.966 165.151 103.736 161.267 103.736C158.658 103.736 156.286 104.329 154.151 105.515C152.016 106.701 150.341 108.346 149.125 110.452C147.91 112.527 147.302 114.855 147.302 117.434C147.302 120.014 147.91 122.356 149.125 124.461C150.341 126.536 152.016 128.167 154.151 129.353C156.286 130.539 158.658 131.132 161.267 131.132C165.121 131.132 168.309 129.887 170.829 127.396L172.252 128.864C170.918 130.287 169.287 131.369 167.36 132.111C165.462 132.852 163.402 133.222 161.178 133.222Z" fill="#222529"/>
<path d="M179.138 100H181.361V133H179.138V100Z" fill="#222529"/>
<path d="M198.562 109.607C201.438 109.607 203.647 110.348 205.188 111.83C206.73 113.283 207.501 115.433 207.501 118.279V133H205.366V128.864C204.625 130.228 203.543 131.295 202.12 132.066C200.696 132.807 198.992 133.178 197.005 133.178C194.425 133.178 192.38 132.57 190.867 131.355C189.385 130.139 188.644 128.538 188.644 126.551C188.644 124.624 189.326 123.067 190.69 121.881C192.083 120.666 194.292 120.058 197.316 120.058H205.277V118.19C205.277 116.026 204.684 114.38 203.498 113.253C202.342 112.127 200.637 111.563 198.384 111.563C196.842 111.563 195.359 111.83 193.936 112.364C192.543 112.898 191.357 113.609 190.378 114.499L189.266 112.898C190.423 111.86 191.816 111.059 193.447 110.496C195.078 109.903 196.783 109.607 198.562 109.607ZM197.316 131.355C199.244 131.355 200.874 130.91 202.208 130.02C203.572 129.131 204.595 127.841 205.277 126.151V121.793H197.361C195.078 121.793 193.417 122.208 192.38 123.038C191.372 123.868 190.867 125.01 190.867 126.462C190.867 127.974 191.431 129.175 192.558 130.065C193.684 130.925 195.27 131.355 197.316 131.355Z" fill="#222529"/>
<path d="M218.798 114.854C219.509 113.164 220.621 111.875 222.133 110.985C223.646 110.066 225.484 109.607 227.648 109.607V111.786L227.115 111.741C224.535 111.741 222.519 112.557 221.066 114.187C219.613 115.788 218.887 118.027 218.887 120.903V133H216.663V109.784H218.798V114.854Z" fill="#222529"/>
<path d="M233.775 109.784H235.999V133H233.775V109.784ZM234.887 104.136C234.383 104.136 233.953 103.973 233.597 103.647C233.242 103.291 233.064 102.861 233.064 102.357C233.064 101.853 233.242 101.423 233.597 101.067C233.953 100.712 234.383 100.534 234.887 100.534C235.391 100.534 235.821 100.712 236.177 101.067C236.533 101.394 236.711 101.809 236.711 102.313C236.711 102.817 236.533 103.247 236.177 103.602C235.821 103.958 235.391 104.136 234.887 104.136Z" fill="#222529"/>
<path d="M256.891 131.532C256.327 132.066 255.616 132.481 254.756 132.778C253.926 133.045 253.051 133.178 252.132 133.178C250.116 133.178 248.559 132.629 247.462 131.532C246.365 130.406 245.816 128.849 245.816 126.863V111.697H241.547V109.784H245.816V104.714H248.04V109.784H255.423V111.697H248.04V126.64C248.04 128.152 248.396 129.309 249.108 130.109C249.849 130.88 250.931 131.266 252.354 131.266C253.807 131.266 255.008 130.836 255.957 129.976L256.891 131.532Z" fill="#222529"/>
<path d="M281.293 109.784L269.373 136.158C268.484 138.204 267.446 139.656 266.26 140.516C265.104 141.376 263.725 141.806 262.124 141.806C261.057 141.806 260.049 141.628 259.1 141.272C258.181 140.917 257.395 140.398 256.743 139.716L257.854 138.026C259.04 139.241 260.478 139.849 262.169 139.849C263.295 139.849 264.259 139.538 265.059 138.915C265.86 138.293 266.601 137.225 267.283 135.713L268.528 132.911L258.077 109.784H260.434L269.729 130.554L279.024 109.784H281.293Z" fill="#222529"/>
<path d="M171.716 19.0274L164.075 19.882L166.678 24.8355L171.716 19.0274Z" fill="#222529"/>
<path d="M172.614 14.3458L162.134 18.7157L165.494 23.1906L172.614 14.3458Z" fill="#222529"/>
<path d="M119.565 18.9171L127.205 19.7716L124.602 24.7251L119.565 18.9171Z" fill="#222529"/>
<path d="M118.667 14.2354L129.147 18.6054L125.787 23.0802L118.667 14.2354Z" fill="#222529"/>
<path d="M121.57 34.6656C121.57 21.4825 132.257 10.7955 145.44 10.7955V10.7955C158.623 10.7955 169.31 21.4825 169.31 34.6656V50.579C169.31 63.7621 158.623 74.4491 145.44 74.4491V74.4491C132.257 74.4491 121.57 63.7621 121.57 50.579V34.6656Z" fill="#596068"/>
<path fill-rule="evenodd" clip-rule="evenodd" d="M169.309 34.6676C169.309 21.4845 158.622 10.7975 145.439 10.7975C132.256 10.7975 121.569 21.4845 121.569 34.6676V50.581C121.569 53.2271 121.999 55.7727 122.794 58.1514L131.161 49.7848V69.7118C135.143 72.6885 140.085 74.4511 145.439 74.4511C150.812 74.4511 155.771 72.6754 159.761 69.6789V49.7858L168.094 58.1192C168.882 55.7497 169.309 53.2152 169.309 50.581V34.6676Z" fill="#AEB5BC"/>
<path fill-rule="evenodd" clip-rule="evenodd" d="M162.751 18.2317C166.816 22.5117 169.309 28.2975 169.309 34.6656V50.579C169.309 53.4216 168.813 56.1481 167.901 58.6764C167.955 58.5266 168.007 58.3762 168.059 58.225L145.439 35.6051L122.82 58.224C122.009 55.8239 121.569 53.2528 121.569 50.579V34.6656C121.569 28.2973 124.063 22.5115 128.127 18.2314L145.44 35.5436L162.751 18.2317ZM148.18 10.9512C147.281 10.8484 146.366 10.7955 145.439 10.7955C145.439 10.7955 145.439 10.7955 145.439 10.7955C146.366 10.7955 147.281 10.8484 148.18 10.9512Z" fill="#DFE2E5"/>
<path d="M169.31 35.5188C169.31 41.0118 164.857 45.4647 159.364 45.4647C153.871 45.4647 149.418 41.0118 149.418 35.5188C149.418 30.0259 153.871 25.5729 159.364 25.5729C164.857 25.5729 169.31 30.0259 169.31 35.5188Z" fill="#52BAE6"/>
<path fill-rule="evenodd" clip-rule="evenodd" d="M159.364 42.8004C163.385 42.8004 166.645 39.5403 166.645 35.5188C166.645 31.4973 163.385 28.2373 159.364 28.2373C155.342 28.2373 152.082 31.4973 152.082 35.5188C152.082 39.5403 155.342 42.8004 159.364 42.8004ZM159.364 45.4647C164.857 45.4647 169.31 41.0118 169.31 35.5188C169.31 30.0259 164.857 25.5729 159.364 25.5729C153.871 25.5729 149.418 30.0259 149.418 35.5188C149.418 41.0118 153.871 45.4647 159.364 45.4647Z" fill="#E8EDF2"/>
<path fill-rule="evenodd" clip-rule="evenodd" d="M159.364 43.8733C163.978 43.8733 167.718 40.1329 167.718 35.5188C167.718 30.9047 163.978 27.1643 159.364 27.1643C154.75 27.1643 151.009 30.9047 151.009 35.5188C151.009 40.1329 154.75 43.8733 159.364 43.8733ZM159.364 45.4647C164.857 45.4647 169.31 41.0118 169.31 35.5188C169.31 30.0259 164.857 25.5729 159.364 25.5729C153.871 25.5729 149.418 30.0259 149.418 35.5188C149.418 41.0118 153.871 45.4647 159.364 45.4647Z" fill="#596068"/>
<circle cx="159.365" cy="35.5176" r="5.75814" fill="#222529"/>
<circle cx="157.269" cy="33.4265" r="1.5704" fill="white"/>
<path d="M121.57 35.5188C121.57 41.0118 126.023 45.4647 131.515 45.4647C137.008 45.4647 141.461 41.0118 141.461 35.5188C141.461 30.0259 137.008 25.5729 131.515 25.5729C126.023 25.5729 121.57 30.0259 121.57 35.5188Z" fill="#52BAE6"/>
<path fill-rule="evenodd" clip-rule="evenodd" d="M131.515 42.8004C127.494 42.8004 124.234 39.5403 124.234 35.5188C124.234 31.4973 127.494 28.2373 131.515 28.2373C135.537 28.2373 138.797 31.4973 138.797 35.5188C138.797 39.5403 135.537 42.8004 131.515 42.8004ZM131.515 45.4647C126.023 45.4647 121.57 41.0118 121.57 35.5188C121.57 30.0259 126.023 25.5729 131.515 25.5729C137.008 25.5729 141.461 30.0259 141.461 35.5188C141.461 41.0118 137.008 45.4647 131.515 45.4647Z" fill="#E8EDF2"/>
<path fill-rule="evenodd" clip-rule="evenodd" d="M131.515 43.8733C126.901 43.8733 123.161 40.1329 123.161 35.5188C123.161 30.9047 126.901 27.1643 131.515 27.1643C136.13 27.1643 139.87 30.9047 139.87 35.5188C139.87 40.1329 136.13 43.8733 131.515 43.8733ZM131.515 45.4647C126.023 45.4647 121.57 41.0118 121.57 35.5188C121.57 30.0259 126.023 25.5729 131.515 25.5729C137.008 25.5729 141.461 30.0259 141.461 35.5188C141.461 41.0118 137.008 45.4647 131.515 45.4647Z" fill="#596068"/>
<circle cx="5.75814" cy="5.75814" r="5.75814" transform="matrix(-1 0 0 1 137.273 29.7595)" fill="#222529"/>
<circle cx="1.5704" cy="1.5704" r="1.5704" transform="matrix(-1 0 0 1 135.181 31.8561)" fill="white"/>
<path d="M145.44 45.4636L141.994 40.0928L148.885 40.0928L145.44 45.4636Z" fill="#222529"/>
<rect x="141.461" y="77.2927" width="1.1935" height="7.16103" rx="0.596752" transform="rotate(-180 141.461 77.2927)" fill="#222529"/>
<rect x="139.472" y="77.2927" width="1.1935" height="7.16103" rx="0.596752" transform="rotate(-180 139.472 77.2927)" fill="#222529"/>
<rect x="137.484" y="77.2927" width="1.1935" height="7.16103" rx="0.596752" transform="rotate(-180 137.484 77.2927)" fill="#222529"/>
<rect x="135.494" y="77.2927" width="1.1935" height="7.16103" rx="0.596752" transform="rotate(-180 135.494 77.2927)" fill="#222529"/>
<rect x="155.784" y="77.2927" width="1.1935" height="7.16103" rx="0.596752" transform="rotate(-180 155.784 77.2927)" fill="#222529"/>
<rect x="153.794" y="77.2927" width="1.1935" height="7.16103" rx="0.596752" transform="rotate(-180 153.794 77.2927)" fill="#222529"/>
<rect x="151.805" y="77.2927" width="1.1935" height="7.16103" rx="0.596752" transform="rotate(-180 151.805 77.2927)" fill="#222529"/>
<rect x="149.816" y="77.2927" width="1.1935" height="7.16103" rx="0.596752" transform="rotate(-180 149.816 77.2927)" fill="#222529"/>
<g clip-path="url(#clip0_407_1145)">
<path d="M145.384 48.0822C145.078 48.1042 144.846 48.3723 144.862 48.6852V48.8385C144.876 49.0121 144.902 49.184 144.935 49.3543C144.984 49.6805 145.002 50.0108 144.988 50.3405C144.958 50.4489 144.897 50.5467 144.814 50.6217L144.802 50.8515C144.479 50.8792 144.159 50.9297 143.843 51.0031C142.514 51.3095 141.304 52.0136 140.371 53.0283L140.179 52.8898C140.074 52.9224 139.961 52.9101 139.864 52.8572C139.605 52.6614 139.366 52.4403 139.149 52.197C139.04 52.064 138.924 51.9374 138.8 51.8181L138.682 51.7219C138.577 51.6355 138.448 51.5858 138.313 51.5793C138.233 51.5749 138.152 51.5901 138.079 51.6235C138.005 51.6569 137.94 51.7077 137.89 51.7716C137.709 52.0299 137.768 52.3877 138.02 52.5727L138.13 52.6624C138.272 52.7587 138.419 52.8466 138.571 52.9256C138.853 53.0862 139.119 53.2744 139.367 53.4961C139.43 53.5883 139.467 53.6967 139.473 53.8091L139.646 53.9721C138.708 55.4113 138.323 57.1546 138.564 58.8669L138.34 58.9321C138.282 59.0266 138.205 59.1073 138.112 59.1668C137.801 59.2518 137.482 59.3056 137.16 59.3273C136.989 59.3309 136.819 59.3445 136.65 59.3681L136.508 59.4007H136.492C136.394 59.4146 136.302 59.456 136.226 59.5203C136.15 59.5846 136.092 59.6693 136.06 59.7649C136.028 59.8605 136.023 59.9634 136.045 60.0619C136.067 60.1605 136.115 60.251 136.184 60.3232C136.254 60.3951 136.342 60.4458 136.438 60.4695C136.534 60.4933 136.635 60.4892 136.729 60.4577H136.74L136.883 60.4414C137.045 60.3925 137.205 60.3322 137.36 60.2638C137.659 60.1415 137.969 60.0478 138.287 59.9867C138.397 59.9932 138.502 60.0315 138.591 60.0967L138.831 60.0559C139.349 61.6998 140.438 63.0926 141.893 63.9703L141.796 64.1781C141.84 64.2735 141.857 64.3794 141.844 64.4846C141.712 64.7959 141.551 65.0942 141.363 65.3745C141.259 65.5136 141.164 65.6586 141.077 65.8089L141.009 65.9556C140.96 66.0428 140.936 66.1422 140.938 66.2428C140.941 66.3434 140.971 66.4413 141.024 66.5257C141.078 66.6101 141.153 66.6777 141.242 66.7211C141.331 66.7644 141.43 66.7819 141.528 66.7714C141.626 66.7601 141.719 66.7213 141.797 66.6591C141.875 66.5969 141.934 66.514 141.969 66.4193L142.035 66.2808C142.096 66.1178 142.147 65.9515 142.188 65.7837C142.329 65.4275 142.406 65.0453 142.599 64.8089C142.662 64.7483 142.741 64.7086 142.827 64.6948L142.947 64.4723C144.523 65.0917 146.268 65.0961 147.848 64.4846L147.954 64.6924C148.062 64.7087 148.16 64.7698 148.225 64.8595C148.375 65.1512 148.496 65.4568 148.589 65.7722C148.631 65.9411 148.683 66.1074 148.743 66.2702L148.81 66.4087C148.844 66.503 148.904 66.5856 148.982 66.6473C149.06 66.7091 149.153 66.7476 149.251 66.7587C149.349 66.7697 149.448 66.7529 149.537 66.7099C149.626 66.667 149.702 66.5997 149.756 66.5155C149.81 66.4308 149.839 66.3325 149.842 66.2317C149.844 66.1309 149.819 66.0313 149.769 65.9442L149.7 65.7975C149.613 65.6478 149.517 65.5033 149.414 65.3647C149.231 65.0942 149.073 64.8057 148.936 64.5033C148.923 64.448 148.921 64.3907 148.93 64.3347C148.94 64.2787 148.96 64.2252 148.99 64.1773C148.956 64.1062 148.926 64.033 148.901 63.9581C150.353 63.0738 151.437 61.6761 151.95 60.0298L152.177 60.0706C152.258 59.9948 152.365 59.9549 152.474 59.9581C152.791 60.0201 153.101 60.1211 153.401 60.2352C153.556 60.3086 153.716 60.3705 153.878 60.4227C153.916 60.4333 153.972 60.4422 154.015 60.4528H154.025C154.119 60.4839 154.22 60.4876 154.316 60.4637C154.412 60.4397 154.5 60.3889 154.569 60.317C154.639 60.2451 154.688 60.1549 154.71 60.0564C154.732 59.958 154.727 59.8551 154.696 59.7593C154.664 59.6635 154.606 59.5789 154.529 59.5147C154.453 59.4505 154.36 59.4093 154.262 59.3958L154.107 59.3583C153.938 59.3347 153.768 59.3211 153.597 59.3176C153.275 59.2964 152.956 59.2426 152.645 59.157C152.549 59.1024 152.469 59.0209 152.415 58.9223L152.2 58.8571C152.429 57.1456 152.036 55.4076 151.094 53.9729L151.283 53.7952C151.275 53.6836 151.311 53.5727 151.382 53.4871C151.626 53.272 151.892 53.0821 152.171 52.9199C152.323 52.8409 152.47 52.753 152.611 52.6567L152.728 52.5605C152.813 52.5061 152.882 52.4281 152.926 52.3353C152.971 52.2426 152.988 52.139 152.977 52.0365C152.966 51.934 152.927 51.8368 152.864 51.7562C152.801 51.6756 152.717 51.6148 152.622 51.5809C152.526 51.547 152.424 51.5414 152.326 51.5646C152.227 51.5878 152.138 51.6389 152.067 51.7121L151.949 51.8083C151.825 51.9277 151.709 52.0542 151.6 52.1872C151.39 52.4334 151.157 52.6575 150.904 52.858C150.802 52.9004 150.69 52.9128 150.582 52.8938L150.38 53.0405C149.216 51.7936 147.647 51.0194 145.966 50.8645C145.966 50.783 145.955 50.6608 145.954 50.6225C145.864 50.5589 145.801 50.4619 145.78 50.3519C145.769 50.0228 145.789 49.6933 145.841 49.3682C145.875 49.1971 145.899 49.0259 145.914 48.8523V48.6893C145.93 48.3764 145.699 48.1082 145.392 48.0862L145.384 48.0822ZM144.719 52.2924L144.56 55.1391H144.548C144.54 55.3152 144.439 55.4651 144.283 55.5499C144.128 55.6346 143.943 55.6094 143.805 55.5059L141.52 53.8514C142.247 53.1215 143.159 52.6137 144.154 52.3853C144.341 52.3445 144.529 52.3136 144.718 52.2924H144.719ZM146.05 52.2924C147.25 52.4448 148.367 52.9957 149.232 53.8604L146.968 55.5042C146.829 55.6183 146.637 55.6411 146.475 55.5629C146.314 55.4847 146.21 55.3184 146.207 55.1359L146.05 52.2924ZM140.69 54.9223L142.78 56.8278V56.84C142.91 56.9557 142.966 57.1358 142.928 57.3078C142.89 57.4798 142.761 57.6159 142.596 57.6623V57.6705L139.914 58.4586C139.782 57.2241 140.055 55.9796 140.691 54.9215L140.69 54.9223ZM150.063 54.9223C150.698 55.9777 150.979 57.2157 150.862 58.4488L148.177 57.6582V57.6476C148.01 57.6012 147.882 57.4651 147.845 57.2931C147.807 57.1212 147.863 56.9427 147.993 56.8253L150.067 54.9289L150.063 54.9223ZM144.956 56.9761H145.811L146.333 57.6542L146.144 58.5018L145.376 58.8791L144.606 58.5018L144.425 57.6542L144.956 56.9761ZM147.695 59.289C147.731 59.285 147.775 59.285 147.802 59.289L150.567 59.7658C150.169 60.9394 149.381 61.9418 148.354 62.6125L147.286 59.9687C147.256 59.8978 147.244 59.8207 147.25 59.7439C147.256 59.6671 147.28 59.5929 147.319 59.5275C147.359 59.462 147.414 59.4074 147.478 59.368C147.543 59.3286 147.616 59.3057 147.692 59.3013L147.695 59.289ZM143.051 59.3013C143.207 59.3037 143.352 59.386 143.437 59.5197C143.522 59.6533 143.536 59.8212 143.474 59.9679V59.9785L142.412 62.6011C141.395 61.9353 140.623 60.9451 140.213 59.7837L142.954 59.3086C142.984 59.3053 143.015 59.3053 143.046 59.3086L143.051 59.3013ZM145.367 60.4422C145.454 60.4394 145.54 60.4614 145.616 60.5057C145.691 60.5501 145.754 60.615 145.795 60.6932H145.806L147.156 63.1847L146.617 63.3477C145.623 63.5799 144.585 63.5253 143.62 63.1896L144.975 60.6981C145.057 60.5514 145.209 60.4618 145.374 60.4577L145.367 60.4422Z" fill="white" stroke="white" stroke-width="0.11"/>
</g>
<defs>
<clipPath id="clip0_407_1145">
<rect width="19.8566" height="19.8566" fill="white" transform="translate(135.581 47.5075)"/>
</clipPath>
</defs>
</svg>
