<svg width="360" height="120" viewBox="0 0 360 120" fill="none" xmlns="http://www.w3.org/2000/svg">
<path d="M151.891 72.0955L138.963 41.8284H148.216L159.112 68.0311H153.664L164.82 41.8284H173.294L160.323 72.0955H151.891Z" fill="#F0DF42"/>
<path d="M175.066 72.0955V41.8284H182.114L194.653 62.41H190.935L203.128 41.8284H210.176L210.263 72.0955H202.393L202.307 53.8055H203.647L194.524 69.112H190.719L181.336 53.8055H182.979V72.0955H175.066Z" fill="#F0DF42"/>
<path d="M233.223 71.7256C230.974 71.7256 228.885 71.3509 226.953 70.6014C225.051 69.8231 223.393 68.7422 221.981 67.3585C220.568 65.9749 219.473 64.3606 218.695 62.5158C217.916 60.6421 217.527 58.5955 217.527 56.3759C217.527 54.1563 217.916 52.1241 218.695 50.2792C219.473 48.4055 220.568 46.7769 221.981 45.3932C223.422 44.0096 225.094 42.943 226.997 42.1936C228.899 41.4153 230.974 41.0261 233.223 41.0261C235.356 41.0261 237.345 41.372 239.19 42.0638C241.064 42.7557 242.663 43.8078 243.989 45.2203L242.606 46.6471C241.309 45.3788 239.867 44.4708 238.282 43.9231C236.725 43.3466 235.068 43.0583 233.309 43.0583C231.378 43.0583 229.576 43.3898 227.905 44.0528C226.261 44.7158 224.82 45.6527 223.581 46.8633C222.37 48.074 221.419 49.4865 220.727 51.1007C220.064 52.715 219.732 54.4734 219.732 56.3759C219.732 58.2784 220.064 60.0368 220.727 61.651C221.419 63.2652 222.37 64.6777 223.581 65.8884C224.82 67.0991 226.261 68.0359 227.905 68.6989C229.576 69.3619 231.378 69.6934 233.309 69.6934C235.068 69.6934 236.725 69.4196 238.282 68.8719C239.867 68.2954 241.309 67.3585 242.606 66.0614L243.989 67.4882C242.663 68.9007 241.064 69.9673 239.19 70.6879C237.345 71.3797 235.356 71.7256 233.223 71.7256Z" fill="white"/>
<path d="M250.684 71.5094V39.4263H252.846V71.5094H250.684Z" fill="white"/>
<path d="M276.183 71.5094V66.364L276.097 65.5857V57.1109C276.097 55.0066 275.52 53.4068 274.367 52.3114C273.243 51.216 271.586 50.6683 269.395 50.6683C267.838 50.6683 266.383 50.9422 265.028 51.4899C263.702 52.0088 262.563 52.6862 261.612 53.5221L260.531 51.9655C261.655 50.9566 263.01 50.1783 264.595 49.6306C266.181 49.0541 267.838 48.7658 269.568 48.7658C272.364 48.7658 274.511 49.4721 276.01 50.8845C277.509 52.297 278.259 54.4013 278.259 57.1974V71.5094H276.183ZM268.054 71.6824C266.383 71.6824 264.927 71.423 263.687 70.9041C262.477 70.3564 261.54 69.5925 260.877 68.6124C260.243 67.6324 259.926 66.5082 259.926 65.2398C259.926 64.0868 260.185 63.0491 260.704 62.1266C261.252 61.1754 262.145 60.4115 263.385 59.835C264.624 59.2296 266.282 58.927 268.357 58.927H276.659V60.6133H268.4C266.065 60.6133 264.422 61.0457 263.471 61.9104C262.549 62.7752 262.087 63.8562 262.087 65.1533C262.087 66.5946 262.635 67.7477 263.731 68.6124C264.826 69.4772 266.368 69.9096 268.357 69.9096C270.26 69.9096 271.859 69.4772 273.157 68.6124C274.483 67.7477 275.463 66.4937 276.097 64.8507L276.702 66.3208C276.097 67.9639 275.059 69.2754 273.589 70.2555C272.148 71.2068 270.303 71.6824 268.054 71.6824Z" fill="white"/>
<path d="M287.166 71.5094V48.9388H289.242V55.1219L289.026 54.4301C289.66 52.6141 290.726 51.216 292.225 50.236C293.724 49.2559 295.598 48.7658 297.846 48.7658V50.8845C297.76 50.8845 297.673 50.8845 297.587 50.8845C297.5 50.8557 297.414 50.8413 297.327 50.8413C294.82 50.8413 292.859 51.634 291.447 53.2194C290.034 54.776 289.328 56.9524 289.328 59.7485V71.5094H287.166Z" fill="white"/>
<path d="M303.803 71.5094V48.9388H305.965V71.5094H303.803ZM304.884 43.4475C304.394 43.4475 303.976 43.2745 303.63 42.9286C303.284 42.5827 303.111 42.1791 303.111 41.7179C303.111 41.2279 303.284 40.8099 303.63 40.464C303.976 40.1181 304.394 39.9451 304.884 39.9451C305.403 39.9451 305.821 40.1181 306.138 40.464C306.484 40.7811 306.657 41.1846 306.657 41.6747C306.657 42.1647 306.484 42.5827 306.138 42.9286C305.821 43.2745 305.403 43.4475 304.884 43.4475Z" fill="white"/>
<path d="M321.65 71.6824C319.661 71.6824 318.133 71.1347 317.066 70.0393C316.029 68.9439 315.51 67.445 315.51 65.5425V44.0096H317.672V65.3263C317.672 66.7676 318.032 67.8774 318.753 68.6557C319.473 69.434 320.511 69.8231 321.866 69.8231C323.278 69.8231 324.446 69.4052 325.368 68.5692L326.276 70.0826C325.7 70.6302 324.993 71.0338 324.157 71.2932C323.35 71.5527 322.514 71.6824 321.65 71.6824ZM311.359 50.7981V48.9388H324.849V50.7981H311.359Z" fill="white"/>
<path d="M331.364 80.0707C330.326 80.0707 329.346 79.8978 328.424 79.5519C327.53 79.2059 326.766 78.7015 326.132 78.0385L327.213 76.3954C327.79 77.0008 328.409 77.4476 329.072 77.7358C329.764 78.0241 330.543 78.1682 331.407 78.1682C332.445 78.1682 333.353 77.8799 334.131 77.3034C334.939 76.7269 335.688 75.6748 336.38 74.147L337.936 70.6879L338.239 70.2988L347.795 48.9388H350L338.412 74.5794C337.807 75.963 337.144 77.044 336.423 77.8223C335.731 78.6294 334.967 79.2059 334.131 79.5519C333.295 79.8978 332.373 80.0707 331.364 80.0707ZM337.893 72.0715L327.429 48.9388H329.721L339.234 70.169L337.893 72.0715Z" fill="white"/>
<path d="M63.3399 60.6887L67.6505 57.3728L61.3503 58.036L58.3661 59.6939C58.3661 59.6939 57.284 60.0891 57.0397 60.6887C56.7307 61.4471 57.7029 62.6782 57.7029 62.6782L72.6243 72.6258L72.9559 73.2889C72.9559 73.2889 72.7774 73.9386 72.9559 74.2837C73.1273 74.6152 73.4803 74.3796 73.8166 74.0203L73.619 74.2837C73.619 74.2837 73.7459 74.7421 73.9506 74.9469C74.5981 75.5943 75.6086 73.2889 75.6086 73.2889C75.6086 73.2889 74.7222 75.4201 75.6086 75.61C76.1748 75.7314 76.9349 74.9469 76.9349 74.9469L78.5928 73.2889L77.9297 71.631L73.9506 68.3151L63.3399 60.6887Z" fill="#596068"/>
<path d="M38.4282 69.5859L42.7389 66.27L36.4387 66.9332L33.4545 68.5911C33.4545 68.5911 32.3724 68.9863 32.1281 69.5859C31.8191 70.3443 32.7913 71.5754 32.7913 71.5754L47.7127 81.523L48.0442 82.1862C48.0442 82.1862 47.8658 82.8359 48.0442 83.1809C48.2157 83.5124 48.5686 83.2768 48.905 82.9175L48.7074 83.1809C48.7074 83.1809 48.8343 83.6393 49.039 83.8441C49.6865 84.4916 50.6969 82.1862 50.6969 82.1862C50.6969 82.1862 49.8106 84.3173 50.6969 84.5073C51.2632 84.6286 52.0233 83.8441 52.0233 83.8441L53.6812 82.1862L53.018 80.5282L49.039 77.2124L38.4282 69.5859Z" fill="#596068"/>
<path fill-rule="evenodd" clip-rule="evenodd" d="M36.1869 82.4737L36.5276 87.7005L39.141 87.5301L38.9706 84.9167C39.141 87.5301 39.1414 87.5301 39.1419 87.5301L39.1473 87.5297L39.1611 87.5288L39.2107 87.5254C39.2534 87.5224 39.3153 87.5181 39.3955 87.5122C39.5559 87.5004 39.7896 87.4825 40.0891 87.4578C40.6882 87.4084 41.5516 87.3314 42.6209 87.2205C44.7578 86.9989 47.7262 86.6408 51.0567 86.0941C57.6366 85.0141 65.9347 83.1519 71.9661 79.9909C74.7323 78.5413 76.6758 76.602 78.2434 75.038C78.5101 74.7718 78.7659 74.5166 79.0131 74.2765C80.7462 72.5924 82.232 71.4162 84.6074 70.9154C87.8825 70.225 90.416 70.7754 93.0657 71.9621C94.442 72.5785 95.8263 73.3563 97.3995 74.2561C97.5156 74.3225 97.6326 74.3895 97.7506 74.4571C99.2018 75.288 100.797 76.2017 102.547 77.0672L104.894 78.2284L107.217 73.5336L104.869 72.3724C103.268 71.5803 101.803 70.7418 100.332 69.8997C100.222 69.8363 100.111 69.7729 100 69.7095C98.4457 68.8204 96.8508 67.9181 95.2065 67.1817C91.815 65.6629 88.1416 64.8174 83.5269 65.7903C79.6915 66.5988 77.3299 68.6087 75.363 70.5199C75.0479 70.826 74.7468 71.1245 74.4536 71.4151C72.8848 72.9699 71.5444 74.2984 69.5348 75.3516C64.2915 78.0995 56.6996 79.86 50.2083 80.9255C47.0032 81.4516 44.1407 81.797 42.0806 82.0106C41.0514 82.1174 40.2247 82.191 39.6583 82.2377C39.3752 82.2611 39.1573 82.2777 39.0118 82.2884C38.9391 82.2938 38.8845 82.2976 38.849 82.3001L38.81 82.3027L38.8003 82.3034L36.1869 82.4737Z" fill="#877171"/>
<path fill-rule="evenodd" clip-rule="evenodd" d="M76.6034 29.5197C76.6034 28.6833 80.1189 29.2532 81.2388 29.456C84.0533 29.9656 86.97 31.3039 89.5352 32.5039C90.742 33.0685 92.6116 34.3627 93.5682 35.0464C94.4636 35.6863 95.506 36.1143 96.5327 36.5359C96.8553 36.6684 97.1765 36.8003 97.491 36.9379C98.785 37.504 99.8644 38.4685 100.572 39.6909L102.844 43.6152C103.393 44.5639 103.753 45.6357 104.108 46.6911C104.242 47.0927 104.376 47.492 104.52 47.8812C105.094 49.4397 104.771 51.1874 103.677 52.4374C100.543 56.0188 95.2016 56.5051 90.4848 56.9345C89.2717 57.0449 88.0998 57.1516 87.0175 57.3062C85.9078 57.4648 84.7571 57.4319 83.6201 57.3994C83.1545 57.3861 82.6911 57.3729 82.2338 57.3729H71.5375H68.4534C66.9085 57.3729 65.3336 57.6518 63.7802 57.9269C63.1017 58.047 62.4274 58.1664 61.7614 58.2616C60.5795 58.4304 59.4347 58.9108 58.315 59.3807C57.9301 59.5422 57.5481 59.7025 57.1686 59.8485C55.2641 60.581 53.1656 60.9655 51.1017 61.3436C50.1738 61.5136 49.253 61.6823 48.3599 61.8808C44.6774 62.6991 41.2994 64.6954 37.9488 66.6755C36.1082 67.7632 34.2758 68.846 32.4059 69.726C31.3521 70.2219 30.5852 71.0461 29.8176 71.8711C29.1435 72.5955 28.4689 73.3205 27.599 73.8242L22.2232 76.9365C20.3907 78.036 18.8079 79.2742 18.188 81.4436C17.8248 82.715 17.6861 83.9887 18.0117 85.291L18.9073 88.8736C19.5971 90.598 20.2789 92.2207 21.8749 93.3257L22.305 93.6234C22.3212 93.642 22.3398 93.659 22.3606 93.674L23.1803 94.266C23.9867 94.8484 24.9183 95.2712 25.9274 95.3985C26.45 95.4645 27.0421 95.5178 27.5371 95.5051C29.5522 95.4536 30.9985 95.3811 32.7005 94.1132C33.0731 93.8356 33.4443 93.4435 33.7612 93.0669C34.5195 92.1658 34.8235 91.0077 34.8235 89.8727C34.8235 88.9461 34.6077 88.0322 34.1933 87.2034L33.733 86.2826C33.541 85.8986 33.3026 85.5396 33.0232 85.2136C31.9508 83.9625 30.3533 83.2873 28.7087 83.3901L28.2416 83.4193C26.6591 83.5182 24.9503 84.2007 24.2426 85.7516C24.195 85.856 24.1474 85.9577 24.1007 86.0575C23.7253 86.8595 23.4041 87.5455 23.5529 88.5887C23.6302 89.1311 23.7622 89.5975 23.9972 90.017C24.2332 90.4382 24.5624 90.7932 25.0083 91.1282C25.4158 91.4342 25.7993 91.6209 26.2143 91.728C26.6236 91.8336 27.0488 91.8578 27.5286 91.8578C28.0056 91.8578 28.5909 91.8405 29.1554 91.7442C29.7143 91.6489 30.2907 91.4702 30.7218 91.1205C31.3216 90.6339 31.6032 90.0164 31.6377 89.3525C31.6715 88.7013 31.4674 88.0254 31.1385 87.394C30.9024 86.9407 30.6031 86.5826 30.2206 86.3277C29.8382 86.0729 29.3924 85.9346 28.8835 85.8905C28.223 85.8333 27.6819 86.0042 27.2529 86.2778C26.9454 86.4739 26.7458 86.7383 26.6604 87.0422C26.5761 87.3416 26.6105 87.651 26.7183 87.9313C26.9312 88.4851 27.4468 88.9747 28.0869 89.1881L28.2966 88.5589C27.8303 88.4035 27.4739 88.0486 27.3373 87.6933C27.2703 87.519 27.2605 87.3577 27.2988 87.2217C27.3358 87.0901 27.4253 86.9544 27.6095 86.8369C27.9242 86.6362 28.3211 86.5074 28.8263 86.5512C29.2478 86.5877 29.581 86.6985 29.8529 86.8796C30.1247 87.0607 30.3551 87.3255 30.5504 87.7004C30.846 88.268 31.0011 88.8241 30.9754 89.3181C30.9504 89.7995 30.754 90.2404 30.3039 90.6055C30.0029 90.8498 29.5585 91.0027 29.0439 91.0905C28.5351 91.1773 27.9942 91.1946 27.5286 91.1946C27.0657 91.1946 26.7072 91.1703 26.38 91.0859C26.0586 91.0029 25.7529 90.858 25.4066 90.5979C25.0178 90.3059 24.7575 90.0171 24.5758 89.6929C24.3932 89.3669 24.2794 88.9863 24.2094 88.4951C24.0898 87.656 24.3266 87.1463 24.703 86.3366C24.7487 86.2381 24.7965 86.1353 24.846 86.0269C25.4074 84.7966 26.8143 84.173 28.283 84.0812L28.75 84.052C30.1869 83.9622 31.5827 84.5521 32.5196 85.6452C32.7638 85.93 32.972 86.2437 33.1398 86.5792L33.6002 87.5C33.9685 88.2367 34.1603 89.049 34.1603 89.8727C34.1603 90.8969 33.8857 91.889 33.2538 92.64C32.9489 93.0022 32.6163 93.349 32.3043 93.5814C30.782 94.7154 29.5241 94.7909 27.5201 94.8422C27.0756 94.8536 26.5227 94.8052 26.0104 94.7406C25.1327 94.6298 24.3039 94.2595 23.5686 93.7284L22.7489 93.1364C22.7301 93.1228 22.7103 93.1115 22.6899 93.1023C21.9078 92.1374 21.3149 91.0648 20.7583 89.766C20.4122 88.9584 20.2337 88.089 20.2337 87.2104C20.2337 85.7128 20.7518 84.2613 21.7002 83.1022C22.6618 81.9269 23.6394 80.9942 24.9587 80.2027C26.3076 79.3934 27.7515 79.2576 29.2789 79.2576C30.7928 79.2576 32.0614 79.866 33.3771 80.5239C34.848 81.2594 35.7537 82.5143 36.681 83.7994C36.7625 83.9124 36.8442 84.0256 36.9265 84.1387C37.5308 84.9696 37.8701 85.9343 38.2081 86.8952C38.2726 87.0786 38.337 87.2619 38.4033 87.444C38.8224 88.5965 38.8137 89.7934 38.805 90.9968C38.8038 91.1685 38.8025 91.3404 38.8025 91.5122C38.8025 92.6097 38.5302 93.69 38.0098 94.6563C37.1991 96.1621 36.3757 97.5553 34.8328 98.4369C30.1784 101.097 26.6486 101.836 21.4877 100.478C19.8819 100.055 18.5187 98.9637 17.2078 97.9144C16.8468 97.6254 16.4897 97.3395 16.1326 97.0717C15.3398 96.4771 14.6904 95.7124 14.232 94.8339C13.9193 94.2346 13.561 93.6222 13.1957 92.9978C12.1559 91.2208 11.0589 89.346 10.793 87.3959C10.7097 86.7852 10.5962 86.1567 10.4811 85.5195C10.1708 83.802 9.84905 82.0206 10.0767 80.3511C10.1688 79.6756 10.237 78.9812 10.3057 78.2811C10.4678 76.6294 10.633 74.9461 11.1232 73.4057L13.2704 66.6573L15.532 59.8724C23.4624 34.8688 34.4062 27.8819 51.816 28.5142C55.8624 28.6612 59.3332 30.7034 62.8476 32.7713C64.9111 33.9855 66.9896 35.2085 69.2086 36.062C69.9322 36.3402 70.7008 36.483 71.476 36.483H71.7085C72.7404 36.483 73.7515 36.193 74.6265 35.6461L74.6827 35.611C75.5051 35.097 76.1697 34.3661 76.6034 33.4987V29.5197Z" fill="url(#paint0_linear_702_424)"/>
<path d="M56.5074 54.2445L68.1752 52.7486C68.267 52.7368 68.3568 52.7124 68.4419 52.6759L70.1512 51.9433C70.4539 51.8136 70.6733 51.5432 70.7379 51.2203L70.9271 50.2743C70.953 50.1448 70.953 50.0115 70.9271 49.8821L70.7543 49.0182C70.6809 48.651 70.4085 48.3556 70.0484 48.2527L68.5378 47.8211C68.3903 47.779 68.2351 47.7714 68.0842 47.7988L61.1074 49.0673C61.0484 49.078 60.9885 49.0834 60.9286 49.0834H54.1955C54.1025 49.0834 54.0101 49.0964 53.9207 49.1219L52.0306 49.662C51.8375 49.7171 51.6656 49.8291 51.5371 49.9833L50.1507 51.647C50.1013 51.7062 50.059 51.7709 50.0245 51.8399L49.2776 53.3336C49.1527 53.5835 49.138 53.8742 49.2371 54.1355L56.2736 72.6864C56.3408 72.8636 56.457 73.018 56.6086 73.1317L57.3425 73.6821C57.5693 73.8523 57.7029 74.1193 57.7029 74.4029C57.7029 74.5427 57.7354 74.6807 57.798 74.8058L60.4863 80.1825C60.614 80.4379 60.6264 80.7359 60.5204 81.0011L60.0484 82.181C60.0322 82.2215 60.0107 82.2597 59.9845 82.2947C59.6919 82.6847 60.0771 83.2191 60.5397 83.0649L60.8821 82.9508C60.9719 82.9208 61.0536 82.8704 61.1206 82.8034L62.1392 81.7848C62.2736 81.6503 62.367 81.4803 62.4082 81.2946L62.603 80.4183L62.8609 81.2473L62.4194 83.234C62.3757 83.4305 62.4714 83.6316 62.6514 83.7216C62.8537 83.8227 63.0998 83.7535 63.2197 83.5617L64.4726 81.5571C64.5976 81.357 64.6479 81.1192 64.6145 80.8857L64.3346 78.9262L63.0855 74.242C63.0351 74.0531 63.0412 73.8535 63.103 73.6681L63.2265 73.2975C63.2942 73.0945 63.4841 72.9576 63.698 72.9576C64.0214 72.9576 64.2586 72.6538 64.1802 72.3401L64.0799 71.9388C64.0304 71.7409 63.909 71.5686 63.7392 71.4555L62.2654 70.4729C62.1011 70.3634 61.9081 70.3049 61.7107 70.3049H61.1555C60.8587 70.3049 60.5773 70.1731 60.3873 69.9451L59.1704 68.4849C59.0774 68.3732 59.0098 68.2427 58.9724 68.1023L57.7029 63.3416L55.6666 55.4873C55.5154 54.9044 55.9101 54.3211 56.5074 54.2445Z" fill="#9BA1A6"/>
<path fill-rule="evenodd" clip-rule="evenodd" d="M74.6033 18.9125V13.3667C74.6033 12.0473 80.1498 12.9464 81.9166 13.2663C86.357 14.0702 90.9587 16.1818 95.0057 18.075C96.9097 18.9656 99.8593 21.0075 101.369 22.0861C102.781 23.0958 104.426 23.771 106.046 24.4362C106.555 24.6452 107.061 24.8533 107.557 25.0704C109.599 25.9635 111.302 27.4852 112.419 29.4137L116.003 35.6051C116.87 37.1018 117.437 38.7928 117.996 40.4579C118.209 41.0916 118.421 41.7215 118.647 42.3356C119.553 44.7944 119.043 47.5517 117.317 49.5238C112.373 55.1741 103.946 55.9413 96.5039 56.6188C95.5137 56.709 94.541 56.7975 93.5962 56.8958C92.3947 56.0681 90.9964 55.4932 89.4709 55.2549L86.8109 54.8393C83.452 54.3144 80.5729 52.1259 79.3292 48.9619C78.5656 47.0192 77.7616 44.8312 77.2371 43.0113C74.6192 33.9279 74.6214 18.9469 74.6214 18.9469L74.6033 18.9125Z" fill="url(#paint1_linear_702_424)"/>
<path d="M94.4602 56.3881L81.3742 52.3896C80.19 52.0278 79.2401 51.1379 78.8019 49.9798L73.6629 36.3981C73.405 35.7166 72.9659 35.1185 72.393 34.6684L69.6562 32.518C68.1404 31.3271 67.6897 29.2244 68.5842 27.5167L70.6101 23.6491C71.4024 22.1366 71.1472 20.2879 69.9748 19.0466L68.6069 17.5982C66.6171 15.4914 67.4583 12.0337 70.1936 11.0763L72.4907 10.2723C73.004 10.0927 73.5341 10.0181 74.0755 10.0687C78.498 10.4817 99.9098 12.9639 108.412 22.9007C111.311 26.289 114.104 32.1748 115.124 34.4356C115.396 35.0406 115.801 35.5735 116.319 35.988L118.477 37.7143C119.426 38.4734 119.978 39.6226 119.978 40.8378V45.0295C119.978 45.9653 119.65 46.8714 119.051 47.5903L116.373 50.8039C115.825 51.4612 115.081 51.9256 114.25 52.1287L96.5789 56.4483C95.8801 56.6191 95.1482 56.5983 94.4602 56.3881Z" fill="#A9B0B7"/>
<path fill-rule="evenodd" clip-rule="evenodd" d="M94.1446 47.8954C94.6324 48.1684 95.1815 48.3667 95.7471 48.3546C96.0377 48.3484 96.3594 48.3448 96.687 48.343C98.4044 48.3334 100.126 48.2541 101.84 48.0525L102.437 47.9822C104.733 47.7121 107.049 47.6488 109.356 47.793L112.066 47.9624L117.889 49.127L118.042 48.3623L112.167 47.1873L109.405 47.0146C107.051 46.8675 104.688 46.9321 102.346 47.2077L101.749 47.278C100.071 47.4753 98.3795 47.5536 96.6827 47.5631C96.3525 47.565 96.0265 47.5686 95.7306 47.5749C95.3546 47.5829 94.9455 47.45 94.5255 47.2149C94.108 46.9812 93.7047 46.6606 93.3484 46.3294C92.9934 45.9993 92.6935 45.6667 92.482 45.4159C92.3765 45.2908 92.2936 45.1869 92.2376 45.1148C92.2096 45.0788 92.1883 45.0507 92.1743 45.0321L92.1589 45.0113L92.1553 45.0066L92.1546 45.0056C92.1547 45.0057 92.1547 45.0057 91.8394 45.2352C91.5242 45.4647 91.5242 45.4647 91.5243 45.4648L91.5249 45.4657L91.5265 45.4678L91.5317 45.4749L91.5507 45.5004C91.5672 45.5223 91.5911 45.5538 91.6219 45.5934C91.6835 45.6726 91.7728 45.7847 91.8858 45.9187C92.1112 46.186 92.433 46.5432 92.8174 46.9006C93.2006 47.2568 93.6545 47.6211 94.1446 47.8954Z" fill="#596068"/>
<ellipse cx="97.4225" cy="31.9804" rx="11.8513" ry="11.8513" fill="#9BA1A6"/>
<ellipse cx="97.4226" cy="31.9806" rx="9.87608" ry="9.87608" fill="#F9FCFE"/>
<circle cx="97.4223" cy="31.9802" r="7.90086" fill="#F0DF42"/>
<ellipse cx="97.4229" cy="31.9803" rx="5.92565" ry="5.92564" fill="#222529"/>
<ellipse cx="100.715" cy="27.3715" rx="1.31681" ry="1.31681" fill="white"/>
<ellipse cx="114.05" cy="44.02" rx="0.389943" ry="0.779886" transform="rotate(-23.9283 114.05 44.02)" fill="black"/>
<path d="M38.0562 59.404L23.8704 66.4968C23.663 66.6006 23.498 66.7732 23.4038 66.9851L22.3571 69.3403C22.2701 69.536 22.2483 69.7544 22.2947 69.9634L22.7602 72.058C22.8382 72.409 23.0986 72.6912 23.4423 72.7969L26.7298 73.8085C27.0246 73.8991 27.3447 73.8488 27.5974 73.6719L30.5129 71.6311L35.3806 67.7368C35.451 67.6806 35.5286 67.6341 35.6114 67.5986L37.5217 66.7799C37.6945 66.7058 37.8949 66.7444 38.0278 66.8774C38.1001 66.9496 38.1462 67.0439 38.1589 67.1454L38.4584 69.5414C38.4667 69.608 38.4683 69.6753 38.4632 69.7422L38.1393 73.9522L37.8262 78.0233C37.8141 78.1807 37.8394 78.3388 37.9002 78.4846L39.4657 82.2418L41.4552 85.8893L42.7815 88.2104L43.2376 88.8945C43.3361 89.0423 43.5543 89.0408 43.6528 88.893C43.7885 88.6895 44.1079 88.7823 44.1079 89.027C44.1079 89.1334 44.176 89.2279 44.2769 89.2615L44.8636 89.457C45.0007 89.5028 45.1507 89.4407 45.2153 89.3113L45.2859 89.1701C45.4055 88.9311 45.7658 89.0161 45.7658 89.2834C45.7658 89.4233 45.8792 89.5367 46.0191 89.5367H46.429C46.7953 89.5367 47.0922 89.2398 47.0922 88.8736V88.2104V85.739C47.0922 85.6191 47.0706 85.5002 47.0285 85.3879L45.1663 80.4221C45.1242 80.3098 45.1026 80.1909 45.1026 80.071V78.0214C45.1026 77.9614 45.0972 77.9015 45.0865 77.8425L44.465 74.4243C44.4481 74.3311 44.418 74.2408 44.3756 74.156L43.4998 72.4044C43.4632 72.3312 43.4357 72.2539 43.418 72.1741L42.8054 69.4171C42.7895 69.3459 42.7815 69.2732 42.7815 69.2002V64.3362V61.2973C42.7815 61.1161 42.7323 60.9382 42.639 60.7828L41.9366 59.6121C41.8388 59.449 41.6964 59.3172 41.5263 59.2322L40.8084 58.8732C40.5846 58.7613 40.327 58.7373 40.0864 58.8061L38.2287 59.3369C38.1693 59.3538 38.1115 59.3763 38.0562 59.404Z" fill="#9BA1A6"/>
<defs>
<linearGradient id="paint0_linear_702_424" x1="57.699" y1="28.4756" x2="65.2508" y2="87.6706" gradientUnits="userSpaceOnUse">
<stop stop-color="#DFE2E5"/>
<stop offset="0.375" stop-color="#AEB5BC"/>
<stop offset="0.526042" stop-color="#AEB5BC"/>
<stop offset="1" stop-color="#596068"/>
</linearGradient>
<linearGradient id="paint1_linear_702_424" x1="104.945" y1="43.7074" x2="-29.1945" y2="126.782" gradientUnits="userSpaceOnUse">
<stop stop-color="#AEB5BC"/>
<stop offset="1" stop-color="#596068"/>
</linearGradient>
</defs>
</svg>
