<svg width="232" height="165" viewBox="0 0 232 165" fill="none" xmlns="http://www.w3.org/2000/svg">
<path d="M113.869 60.6887L118.18 57.3728L111.88 58.036L108.896 59.6939C108.896 59.6939 107.814 60.0891 107.569 60.6887C107.26 61.4471 108.232 62.6782 108.232 62.6782L123.154 72.6258L123.485 73.2889C123.485 73.2889 123.307 73.9386 123.485 74.2837C123.657 74.6152 124.01 74.3796 124.346 74.0203L124.149 74.2837C124.149 74.2837 124.275 74.7421 124.48 74.9469C125.128 75.5943 126.138 73.2889 126.138 73.2889C126.138 73.2889 125.252 75.4201 126.138 75.61C126.704 75.7314 127.464 74.9469 127.464 74.9469L129.122 73.2889L128.459 71.631L124.48 68.3151L113.869 60.6887Z" fill="#596068"/>
<path d="M88.9578 69.5859L93.2684 66.27L86.9683 66.9332L83.984 68.5911C83.984 68.5911 82.902 68.9863 82.6577 69.5859C82.3487 70.3443 83.3208 71.5754 83.3208 71.5754L98.2422 81.523L98.5738 82.1862C98.5738 82.1862 98.3953 82.8359 98.5738 83.1809C98.7453 83.5124 99.0982 83.2768 99.4345 82.9175L99.237 83.1809C99.237 83.1809 99.3638 83.6393 99.5686 83.8441C100.216 84.4916 101.227 82.1862 101.227 82.1862C101.227 82.1862 100.34 84.3173 101.227 84.5073C101.793 84.6286 102.553 83.8441 102.553 83.8441L104.211 82.1862L103.548 80.5282L99.5686 77.2124L88.9578 69.5859Z" fill="#596068"/>
<path fill-rule="evenodd" clip-rule="evenodd" d="M86.7165 82.4737L87.0572 87.7005L89.6706 87.5301L89.5002 84.9167C89.6706 87.5301 89.671 87.5301 89.6714 87.5301L89.6769 87.5297L89.6907 87.5288L89.7402 87.5254C89.7829 87.5224 89.8449 87.5181 89.9251 87.5122C90.0855 87.5004 90.3191 87.4825 90.6187 87.4578C91.2178 87.4084 92.0811 87.3314 93.1504 87.2205C95.2873 86.9989 98.2557 86.6408 101.586 86.0941C108.166 85.0141 116.464 83.1519 122.496 79.9909C125.262 78.5413 127.205 76.602 128.773 75.038C129.04 74.7718 129.295 74.5166 129.543 74.2765C131.276 72.5924 132.762 71.4162 135.137 70.9154C138.412 70.225 140.946 70.7754 143.595 71.9621C144.972 72.5785 146.356 73.3563 147.929 74.2561C148.045 74.3225 148.162 74.3895 148.28 74.4571C149.731 75.288 151.327 76.2017 153.077 77.0672L155.424 78.2284L157.746 73.5336L155.399 72.3724C153.798 71.5803 152.333 70.7418 150.862 69.8997C150.751 69.8363 150.641 69.7729 150.53 69.7095C148.975 68.8204 147.38 67.9181 145.736 67.1817C142.345 65.6629 138.671 64.8174 134.056 65.7903C130.221 66.5988 127.859 68.6087 125.893 70.5199C125.578 70.826 125.276 71.1245 124.983 71.4151C123.414 72.9699 122.074 74.2984 120.064 75.3516C114.821 78.0995 107.229 79.86 100.738 80.9255C97.5328 81.4516 94.6703 81.797 92.6101 82.0106C91.5809 82.1174 90.7543 82.191 90.1879 82.2377C89.9048 82.2611 89.6869 82.2777 89.5414 82.2884C89.4687 82.2938 89.4141 82.2976 89.3785 82.3001L89.3396 82.3027L89.3298 82.3034L86.7165 82.4737Z" fill="#877171"/>
<path fill-rule="evenodd" clip-rule="evenodd" d="M127.133 29.5197C127.133 28.6833 130.648 29.2532 131.768 29.456C134.583 29.9656 137.5 31.3039 140.065 32.5039C141.272 33.0685 143.141 34.3627 144.098 35.0464C144.993 35.6863 146.035 36.1143 147.062 36.5359C147.385 36.6684 147.706 36.8003 148.021 36.9379C149.315 37.504 150.394 38.4685 151.102 39.6909L153.374 43.6152C153.923 44.5639 154.283 45.6357 154.637 46.6911C154.772 47.0927 154.906 47.492 155.049 47.8812C155.624 49.4397 155.3 51.1874 154.207 52.4374C151.073 56.0188 145.731 56.5051 141.014 56.9345C139.801 57.0449 138.629 57.1516 137.547 57.3062C136.437 57.4648 135.287 57.4319 134.15 57.3994C133.684 57.3861 133.221 57.3729 132.763 57.3729H122.067H118.983C117.438 57.3729 115.863 57.6518 114.31 57.9269C113.631 58.047 112.957 58.1664 112.291 58.2616C111.109 58.4304 109.964 58.9108 108.845 59.3807C108.46 59.5422 108.078 59.7025 107.698 59.8485C105.794 60.581 103.695 60.9655 101.631 61.3436C100.703 61.5136 99.7825 61.6823 98.8894 61.8808C95.2069 62.6991 91.8289 64.6954 88.4783 66.6755C86.6377 67.7632 84.8054 68.846 82.9354 69.726C81.8816 70.2219 81.1147 71.0461 80.3472 71.8711C79.6731 72.5955 78.9985 73.3205 78.1286 73.8242L72.7527 76.9365C70.9202 78.036 69.3374 79.2742 68.7176 81.4436C68.3543 82.715 68.2157 83.9887 68.5412 85.291L69.4369 88.8736C70.1266 90.598 70.8084 92.2207 72.4044 93.3257L72.8345 93.6234C72.8508 93.642 72.8693 93.659 72.8902 93.674L73.7098 94.266C74.5162 94.8484 75.4478 95.2712 76.4569 95.3985C76.9795 95.4645 77.5716 95.5178 78.0666 95.5051C80.0817 95.4536 81.528 95.3811 83.23 94.1132C83.6027 93.8356 83.9738 93.4435 84.2907 93.0669C85.049 92.1658 85.353 91.0077 85.353 89.8727C85.353 88.9461 85.1373 88.0322 84.7229 87.2034L84.2625 86.2826C84.0705 85.8986 83.8321 85.5396 83.5527 85.2136C82.4803 83.9625 80.8828 83.2873 79.2382 83.3901L78.7711 83.4193C77.1886 83.5182 75.4799 84.2007 74.7722 85.7516C74.7245 85.856 74.6769 85.9577 74.6302 86.0575C74.2548 86.8595 73.9337 87.5455 74.0824 88.5887C74.1597 89.1311 74.2917 89.5975 74.5268 90.017C74.7627 90.4382 75.0919 90.7932 75.5379 91.1282C75.9453 91.4342 76.3289 91.6209 76.7438 91.728C77.1531 91.8336 77.5783 91.8578 78.0581 91.8578C78.5352 91.8578 79.1204 91.8405 79.685 91.7442C80.2438 91.6489 80.8202 91.4702 81.2513 91.1205C81.8511 90.6339 82.1328 90.0164 82.1672 89.3525C82.2011 88.7013 81.9969 88.0254 81.668 87.394C81.4319 86.9407 81.1327 86.5826 80.7502 86.3277C80.3677 86.0729 79.9219 85.9346 79.4131 85.8905C78.7525 85.8333 78.2114 86.0042 77.7824 86.2778C77.4749 86.4739 77.2753 86.7383 77.1899 87.0422C77.1057 87.3416 77.14 87.651 77.2478 87.9313C77.4607 88.4851 77.9763 88.9747 78.6164 89.1881L78.8261 88.5589C78.3598 88.4035 78.0034 88.0486 77.8668 87.6933C77.7998 87.519 77.79 87.3577 77.8283 87.2217C77.8653 87.0901 77.9548 86.9544 78.139 86.8369C78.4537 86.6362 78.8506 86.5074 79.3558 86.5512C79.7773 86.5877 80.1106 86.6985 80.3824 86.8796C80.6542 87.0607 80.8846 87.3255 81.0799 87.7004C81.3756 88.268 81.5306 88.8241 81.505 89.3181C81.48 89.7995 81.2835 90.2404 80.8335 90.6055C80.5324 90.8498 80.0881 91.0027 79.5735 91.0905C79.0646 91.1773 78.5237 91.1946 78.0581 91.1946C77.5952 91.1946 77.2367 91.1703 76.9095 91.0859C76.5881 91.0029 76.2824 90.858 75.9361 90.5979C75.5473 90.3059 75.287 90.0171 75.1053 89.6929C74.9227 89.3669 74.8089 88.9863 74.7389 88.4951C74.6193 87.656 74.8562 87.1463 75.2325 86.3366C75.2782 86.2381 75.326 86.1353 75.3755 86.0269C75.9369 84.7966 77.3439 84.173 78.8125 84.0812L79.2796 84.052C80.7165 83.9622 82.1122 84.5521 83.0492 85.6452C83.2933 85.93 83.5016 86.2437 83.6693 86.5792L84.1297 87.5C84.4981 88.2367 84.6898 89.049 84.6898 89.8727C84.6898 90.8969 84.4152 91.889 83.7833 92.64C83.4785 93.0022 83.1458 93.349 82.8338 93.5814C81.3116 94.7154 80.0537 94.7909 78.0496 94.8422C77.6051 94.8536 77.0522 94.8052 76.5399 94.7406C75.6622 94.6298 74.8334 94.2595 74.0981 93.7284L73.2784 93.1364C73.2596 93.1228 73.2398 93.1115 73.2194 93.1023C72.4373 92.1374 71.8444 91.0648 71.2878 89.766C70.9417 88.9584 70.7632 88.089 70.7632 87.2104C70.7632 85.7128 71.2814 84.2613 72.2297 83.1022C73.1913 81.9269 74.1689 80.9942 75.4882 80.2027C76.8371 79.3934 78.281 79.2576 79.8085 79.2576C81.3223 79.2576 82.5909 79.866 83.9066 80.5239C85.3776 81.2594 86.2832 82.5143 87.2105 83.7994C87.292 83.9124 87.3737 84.0256 87.456 84.1387C88.0603 84.9696 88.3996 85.9343 88.7376 86.8952C88.8021 87.0786 88.8666 87.2619 88.9328 87.444C89.3519 88.5965 89.3432 89.7934 89.3345 90.9968C89.3333 91.1685 89.3321 91.3404 89.3321 91.5122C89.3321 92.6097 89.0597 93.69 88.5394 94.6563C87.7286 96.1621 86.9052 97.5553 85.3624 98.4369C80.7079 101.097 77.1781 101.836 72.0172 100.478C70.4114 100.055 69.0482 98.9637 67.7374 97.9144C67.3763 97.6254 67.0192 97.3395 66.6621 97.0717C65.8693 96.4771 65.2199 95.7124 64.7615 94.8339C64.4489 94.2346 64.0906 93.6222 63.7252 92.9978C62.6855 91.2208 61.5884 89.346 61.3225 87.3959C61.2393 86.7852 61.1257 86.1567 61.0106 85.5195C60.7004 83.802 60.3786 82.0206 60.6062 80.3511C60.6983 79.6756 60.7665 78.9812 60.8352 78.2811C60.9973 76.6294 61.1626 74.9461 61.6527 73.4057L63.7999 66.6573L66.0616 59.8724C73.9919 34.8688 84.9357 27.8819 102.346 28.5142C106.392 28.6612 109.863 30.7034 113.377 32.7713C115.441 33.9855 117.519 35.2085 119.738 36.062C120.462 36.3402 121.23 36.483 122.006 36.483H122.238C123.27 36.483 124.281 36.193 125.156 35.6461L125.212 35.611C126.035 35.097 126.699 34.3661 127.133 33.4987V29.5197Z" fill="url(#paint0_linear_702_1278)"/>
<path d="M107.037 54.2445L118.705 52.7486C118.797 52.7368 118.886 52.7124 118.971 52.6759L120.681 51.9433C120.983 51.8136 121.203 51.5432 121.267 51.2203L121.457 50.2743C121.483 50.1448 121.483 50.0115 121.457 49.8821L121.284 49.0182C121.21 48.651 120.938 48.3556 120.578 48.2527L119.067 47.8211C118.92 47.779 118.765 47.7714 118.614 47.7988L111.637 49.0673C111.578 49.078 111.518 49.0834 111.458 49.0834H104.725C104.632 49.0834 104.54 49.0964 104.45 49.1219L102.56 49.662C102.367 49.7171 102.195 49.8291 102.067 49.9833L100.68 51.647C100.631 51.7062 100.588 51.7709 100.554 51.8399L99.8072 53.3336C99.6822 53.5835 99.6675 53.8742 99.7666 54.1355L106.803 72.6864C106.87 72.8636 106.987 73.018 107.138 73.1317L107.872 73.6821C108.099 73.8523 108.232 74.1193 108.232 74.4029C108.232 74.5427 108.265 74.6807 108.328 74.8058L111.016 80.1825C111.144 80.4379 111.156 80.7359 111.05 81.0011L110.578 82.181C110.562 82.2215 110.54 82.2597 110.514 82.2947C110.221 82.6847 110.607 83.2191 111.069 83.0649L111.412 82.9508C111.501 82.9208 111.583 82.8704 111.65 82.8034L112.669 81.7848C112.803 81.6503 112.897 81.4803 112.938 81.2946L113.133 80.4183L113.39 81.2473L112.949 83.234C112.905 83.4305 113.001 83.6316 113.181 83.7216C113.383 83.8227 113.629 83.7535 113.749 83.5617L115.002 81.5571C115.127 81.357 115.177 81.1192 115.144 80.8857L114.864 78.9262L113.615 74.242C113.565 74.0531 113.571 73.8535 113.633 73.6681L113.756 73.2975C113.824 73.0945 114.014 72.9576 114.228 72.9576C114.551 72.9576 114.788 72.6538 114.71 72.3401L114.609 71.9388C114.56 71.7409 114.438 71.5686 114.269 71.4555L112.795 70.4729C112.631 70.3634 112.438 70.3049 112.24 70.3049H111.685C111.388 70.3049 111.107 70.1731 110.917 69.9451L109.7 68.4849C109.607 68.3732 109.539 68.2427 109.502 68.1023L108.232 63.3416L106.196 55.4873C106.045 54.9044 106.44 54.3211 107.037 54.2445Z" fill="#9BA1A6"/>
<path fill-rule="evenodd" clip-rule="evenodd" d="M125.133 18.9125V13.3667C125.133 12.0473 130.679 12.9464 132.446 13.2663C136.887 14.0702 141.488 16.1818 145.535 18.075C147.439 18.9656 150.389 21.0075 151.898 22.0861C153.311 23.0958 154.955 23.771 156.575 24.4362C157.084 24.6452 157.591 24.8533 158.087 25.0704C160.129 25.9635 161.832 27.4852 162.948 29.4137L166.533 35.6051C167.399 37.1018 167.967 38.7928 168.526 40.4579C168.739 41.0916 168.95 41.7215 169.176 42.3356C170.082 44.7944 169.572 47.5517 167.847 49.5238C162.903 55.1741 154.475 55.9413 147.033 56.6188C146.043 56.709 145.071 56.7975 144.126 56.8958C142.924 56.0681 141.526 55.4932 140 55.2549L137.34 54.8393C133.982 54.3144 131.102 52.1259 129.859 48.9619C129.095 47.0192 128.291 44.8312 127.767 43.0113C125.149 33.9279 125.151 18.9469 125.151 18.9469L125.133 18.9125Z" fill="url(#paint1_linear_702_1278)"/>
<path d="M144.99 56.3881L131.904 52.3896C130.72 52.0278 129.77 51.1379 129.331 49.9798L124.192 36.3981C123.935 35.7166 123.495 35.1185 122.923 34.6684L120.186 32.518C118.67 31.3271 118.219 29.2244 119.114 27.5167L121.14 23.6491C121.932 22.1366 121.677 20.2879 120.504 19.0466L119.136 17.5982C117.147 15.4914 117.988 12.0337 120.723 11.0763L123.02 10.2723C123.534 10.0927 124.064 10.0181 124.605 10.0687C129.028 10.4817 150.439 12.9639 158.941 22.9007C161.841 26.289 164.634 32.1748 165.653 34.4356C165.926 35.0406 166.33 35.5735 166.849 35.988L169.006 37.7143C169.955 38.4734 170.508 39.6226 170.508 40.8378V45.0295C170.508 45.9653 170.18 46.8714 169.58 47.5903L166.902 50.8039C166.355 51.4612 165.611 51.9256 164.779 52.1287L147.108 56.4483C146.41 56.6191 145.678 56.5983 144.99 56.3881Z" fill="#A9B0B7"/>
<path fill-rule="evenodd" clip-rule="evenodd" d="M144.674 47.8954C145.162 48.1684 145.711 48.3667 146.277 48.3546C146.567 48.3484 146.889 48.3448 147.217 48.343C148.934 48.3334 150.656 48.2541 152.369 48.0525L152.967 47.9822C155.263 47.7121 157.578 47.6488 159.885 47.793L162.595 47.9624L168.419 49.127L168.572 48.3623L162.697 47.1873L159.934 47.0146C157.58 46.8675 155.218 46.9321 152.876 47.2077L152.278 47.278C150.601 47.4753 148.909 47.5536 147.212 47.5631C146.882 47.565 146.556 47.5686 146.26 47.5749C145.884 47.5829 145.475 47.45 145.055 47.2149C144.638 46.9812 144.234 46.6606 143.878 46.3294C143.523 45.9993 143.223 45.6667 143.012 45.4159C142.906 45.2908 142.823 45.1869 142.767 45.1148C142.739 45.0788 142.718 45.0507 142.704 45.0321L142.688 45.0113L142.685 45.0066L142.684 45.0056C142.684 45.0057 142.684 45.0057 142.369 45.2352C142.054 45.4647 142.054 45.4647 142.054 45.4648L142.054 45.4657L142.056 45.4678L142.061 45.4749L142.08 45.5004C142.097 45.5223 142.121 45.5538 142.151 45.5934C142.213 45.6726 142.302 45.7847 142.415 45.9187C142.641 46.186 142.963 46.5432 143.347 46.9006C143.73 47.2568 144.184 47.6211 144.674 47.8954Z" fill="#596068"/>
<ellipse cx="147.952" cy="31.9804" rx="11.8513" ry="11.8513" fill="#9BA1A6"/>
<ellipse cx="147.952" cy="31.9806" rx="9.87608" ry="9.87608" fill="#F9FCFE"/>
<circle cx="147.952" cy="31.9802" r="7.90086" fill="#F0DF42"/>
<ellipse cx="147.952" cy="31.9803" rx="5.92565" ry="5.92564" fill="#222529"/>
<ellipse cx="151.245" cy="27.3715" rx="1.31681" ry="1.31681" fill="white"/>
<ellipse cx="164.579" cy="44.02" rx="0.389943" ry="0.779886" transform="rotate(-23.9283 164.579 44.02)" fill="black"/>
<path d="M88.5857 59.404L74.3999 66.4968C74.1925 66.6006 74.0275 66.7732 73.9333 66.9851L72.8866 69.3403C72.7996 69.536 72.7778 69.7544 72.8242 69.9634L73.2897 72.058C73.3677 72.409 73.6281 72.6912 73.9718 72.7969L77.2594 73.8085C77.5541 73.8991 77.8742 73.8488 78.1269 73.6719L81.0424 71.6311L85.9102 67.7368C85.9805 67.6806 86.0581 67.6341 86.1409 67.5986L88.0512 66.7799C88.224 66.7058 88.4244 66.7444 88.5573 66.8774C88.6296 66.9496 88.6757 67.0439 88.6884 67.1454L88.9879 69.5414C88.9962 69.608 88.9978 69.6753 88.9927 69.7422L88.6688 73.9522L88.3557 78.0233C88.3436 78.1807 88.3689 78.3388 88.4297 78.4846L89.9952 82.2418L91.9847 85.8893L93.3111 88.2104L93.7671 88.8945C93.8656 89.0423 94.0838 89.0408 94.1823 88.893C94.318 88.6895 94.6374 88.7823 94.6374 89.027C94.6374 89.1334 94.7055 89.2279 94.8064 89.2615L95.3931 89.457C95.5303 89.5028 95.6802 89.4407 95.7449 89.3113L95.8155 89.1701C95.935 88.9311 96.2953 89.0161 96.2953 89.2834C96.2953 89.4233 96.4087 89.5367 96.5486 89.5367H96.9585C97.3248 89.5367 97.6217 89.2398 97.6217 88.8736V88.2104V85.739C97.6217 85.6191 97.6001 85.5002 97.558 85.3879L95.6958 80.4221C95.6537 80.3098 95.6322 80.1909 95.6322 80.071V78.0214C95.6322 77.9614 95.6268 77.9015 95.616 77.8425L94.9945 74.4243C94.9776 74.3311 94.9475 74.2408 94.9051 74.156L94.0293 72.4044C93.9927 72.3312 93.9653 72.2539 93.9475 72.1741L93.3349 69.4171C93.319 69.3459 93.3111 69.2732 93.3111 69.2002V64.3362V61.2973C93.3111 61.1161 93.2618 60.9382 93.1685 60.7828L92.4661 59.6121C92.3683 59.449 92.2259 59.3172 92.0558 59.2322L91.3379 58.8732C91.1141 58.7613 90.8565 58.7373 90.6159 58.8061L88.7582 59.3369C88.6988 59.3538 88.641 59.3763 88.5857 59.404Z" fill="#9BA1A6"/>
<path d="M22.9284 146.964L10 116.697H19.2531L30.1493 142.899H24.7012L35.8568 116.697H44.3316L31.36 146.964H22.9284Z" fill="#F0DF42"/>
<path d="M46.1034 146.964V116.697H53.1513L65.6906 137.278H61.972L74.1654 116.697H81.2133L81.2998 146.964H73.4303L73.3438 128.674H74.6842L65.5608 143.98H61.7558L52.373 128.674H54.0161V146.964H46.1034Z" fill="#F0DF42"/>
<path d="M104.26 146.594C102.012 146.594 99.9217 146.219 97.9904 145.47C96.0879 144.691 94.4304 143.61 93.0179 142.227C91.6055 140.843 90.5101 139.229 89.7318 137.384C88.9535 135.51 88.5643 133.464 88.5643 131.244C88.5643 129.024 88.9535 126.992 89.7318 125.147C90.5101 123.274 91.6055 121.645 93.0179 120.261C94.4592 118.878 96.1311 117.811 98.0336 117.062C99.9361 116.283 102.012 115.894 104.26 115.894C106.393 115.894 108.382 116.24 110.227 116.932C112.101 117.624 113.7 118.676 115.026 120.088L113.643 121.515C112.346 120.247 110.904 119.339 109.319 118.791C107.762 118.215 106.105 117.926 104.346 117.926C102.415 117.926 100.614 118.258 98.9416 118.921C97.2986 119.584 95.8573 120.521 94.6178 121.732C93.4071 122.942 92.4558 124.355 91.764 125.969C91.101 127.583 90.7695 129.342 90.7695 131.244C90.7695 133.147 91.101 134.905 91.764 136.519C92.4558 138.133 93.4071 139.546 94.6178 140.757C95.8573 141.967 97.2986 142.904 98.9416 143.567C100.614 144.23 102.415 144.562 104.346 144.562C106.105 144.562 107.762 144.288 109.319 143.74C110.904 143.164 112.346 142.227 113.643 140.93L115.026 142.356C113.7 143.769 112.101 144.835 110.227 145.556C108.382 146.248 106.393 146.594 104.26 146.594Z" fill="#222529"/>
<path d="M121.721 146.378V114.294H123.883V146.378H121.721Z" fill="#222529"/>
<path d="M147.22 146.378V141.232L147.134 140.454V131.979C147.134 129.875 146.557 128.275 145.404 127.18C144.28 126.084 142.623 125.537 140.432 125.537C138.875 125.537 137.42 125.81 136.065 126.358C134.739 126.877 133.6 127.554 132.649 128.39L131.568 126.834C132.692 125.825 134.047 125.046 135.632 124.499C137.218 123.922 138.875 123.634 140.605 123.634C143.401 123.634 145.549 124.34 147.047 125.753C148.546 127.165 149.296 129.269 149.296 132.066V146.378H147.22ZM139.092 146.551C137.42 146.551 135.964 146.291 134.724 145.772C133.514 145.225 132.577 144.461 131.914 143.481C131.28 142.501 130.963 141.376 130.963 140.108C130.963 138.955 131.222 137.917 131.741 136.995C132.289 136.044 133.182 135.28 134.422 134.703C135.661 134.098 137.319 133.795 139.394 133.795H147.696V135.481H139.437C137.103 135.481 135.459 135.914 134.508 136.779C133.586 137.643 133.125 138.724 133.125 140.022C133.125 141.463 133.672 142.616 134.768 143.481C135.863 144.345 137.405 144.778 139.394 144.778C141.297 144.778 142.897 144.345 144.194 143.481C145.52 142.616 146.5 141.362 147.134 139.719L147.739 141.189C147.134 142.832 146.096 144.144 144.626 145.124C143.185 146.075 141.34 146.551 139.092 146.551Z" fill="#222529"/>
<path d="M158.203 146.378V123.807H160.279V129.99L160.063 129.298C160.697 127.482 161.763 126.084 163.262 125.104C164.761 124.124 166.635 123.634 168.883 123.634V125.753C168.797 125.753 168.71 125.753 168.624 125.753C168.537 125.724 168.451 125.709 168.365 125.709C165.857 125.709 163.897 126.502 162.484 128.088C161.072 129.644 160.365 131.821 160.365 134.617V146.378H158.203Z" fill="#222529"/>
<path d="M174.84 146.378V123.807H177.002V146.378H174.84ZM175.921 118.316C175.431 118.316 175.013 118.143 174.667 117.797C174.321 117.451 174.148 117.047 174.148 116.586C174.148 116.096 174.321 115.678 174.667 115.332C175.013 114.986 175.431 114.813 175.921 114.813C176.44 114.813 176.858 114.986 177.175 115.332C177.521 115.649 177.694 116.053 177.694 116.543C177.694 117.033 177.521 117.451 177.175 117.797C176.858 118.143 176.44 118.316 175.921 118.316Z" fill="#222529"/>
<path d="M192.687 146.551C190.698 146.551 189.17 146.003 188.103 144.907C187.066 143.812 186.547 142.313 186.547 140.411V118.878H188.709V140.194C188.709 141.636 189.069 142.746 189.79 143.524C190.51 144.302 191.548 144.691 192.903 144.691C194.315 144.691 195.483 144.273 196.405 143.437L197.313 144.951C196.737 145.498 196.03 145.902 195.195 146.161C194.387 146.421 193.551 146.551 192.687 146.551ZM182.396 125.666V123.807H195.886V125.666H182.396Z" fill="#222529"/>
<path d="M202.401 154.939C201.363 154.939 200.383 154.766 199.461 154.42C198.567 154.074 197.803 153.57 197.169 152.907L198.25 151.264C198.827 151.869 199.447 152.316 200.11 152.604C200.801 152.892 201.58 153.036 202.444 153.036C203.482 153.036 204.39 152.748 205.168 152.172C205.976 151.595 206.725 150.543 207.417 149.015L208.973 145.556L209.276 145.167L218.832 123.807H221.037L209.449 149.448C208.844 150.831 208.181 151.912 207.46 152.69C206.768 153.498 206.004 154.074 205.168 154.42C204.333 154.766 203.41 154.939 202.401 154.939ZM208.93 146.94L198.466 123.807H200.758L210.271 145.037L208.93 146.94Z" fill="#222529"/>
<defs>
<linearGradient id="paint0_linear_702_1278" x1="108.229" y1="28.4756" x2="115.78" y2="87.6706" gradientUnits="userSpaceOnUse">
<stop stop-color="#DFE2E5"/>
<stop offset="0.375" stop-color="#AEB5BC"/>
<stop offset="0.526042" stop-color="#AEB5BC"/>
<stop offset="1" stop-color="#596068"/>
</linearGradient>
<linearGradient id="paint1_linear_702_1278" x1="155.475" y1="43.7074" x2="21.3351" y2="126.782" gradientUnits="userSpaceOnUse">
<stop stop-color="#AEB5BC"/>
<stop offset="1" stop-color="#596068"/>
</linearGradient>
</defs>
</svg>
