<svg width="95" height="87" viewBox="0 0 95 87" fill="none" xmlns="http://www.w3.org/2000/svg">
<path d="M45.9917 44.2027L48.9004 41.9653L44.6493 42.4128L42.6356 43.5315C42.6356 43.5315 41.9055 43.7982 41.7406 44.2027C41.5321 44.7145 42.1881 45.5452 42.1881 45.5452L52.2565 52.2574L52.4802 52.7049C52.4802 52.7049 52.3598 53.1433 52.4802 53.3762C52.5959 53.5998 52.8341 53.4409 53.061 53.1984L52.9277 53.3762C52.9277 53.3762 53.0133 53.6855 53.1514 53.8236C53.5883 54.2605 54.2702 52.7049 54.2702 52.7049C54.2702 52.7049 53.6721 54.143 54.2702 54.2711C54.6522 54.353 55.1651 53.8236 55.1651 53.8236L56.2838 52.7049L55.8363 51.5862L53.1514 49.3488L45.9917 44.2027Z" fill="#596068"/>
<path d="M29.1823 50.2062L32.091 47.9688L27.8399 48.4162L25.8262 49.5349C25.8262 49.5349 25.0961 49.8016 24.9312 50.2062C24.7227 50.7179 25.3787 51.5486 25.3787 51.5486L35.4471 58.2609L35.6708 58.7083C35.6708 58.7083 35.5504 59.1467 35.6708 59.3796C35.7865 59.6032 36.0247 59.4443 36.2516 59.2018L36.1183 59.3796C36.1183 59.3796 36.2039 59.6889 36.3421 59.8271C36.7789 60.2639 37.4608 58.7083 37.4608 58.7083C37.4608 58.7083 36.8627 60.1464 37.4608 60.2745C37.8429 60.3564 38.3557 59.8271 38.3557 59.8271L39.4744 58.7083L39.027 57.5896L36.3421 55.3522L29.1823 50.2062Z" fill="#596068"/>
<path fill-rule="evenodd" clip-rule="evenodd" d="M27.67 58.9026L27.8999 62.4294L29.6633 62.3144L29.5483 60.551C29.6633 62.3144 29.6635 62.3144 29.6639 62.3144L29.6675 62.3141L29.6768 62.3135L29.7103 62.3112C29.7391 62.3092 29.7809 62.3063 29.835 62.3023C29.9432 62.2943 30.1009 62.2823 30.303 62.2656C30.7072 62.2323 31.2898 62.1803 32.0114 62.1055C33.4532 61.956 35.4562 61.7143 37.7035 61.3455C42.1434 60.6167 47.7426 59.3601 51.8124 57.2273C53.6789 56.2491 54.9903 54.9406 56.048 53.8852C56.228 53.7056 56.4006 53.5334 56.5674 53.3713C57.7369 52.235 58.7394 51.4414 60.3422 51.1035C62.5522 50.6376 64.2616 51.009 66.0496 51.8097C66.9783 52.2256 67.9123 52.7505 68.9738 53.3576C69.0522 53.4024 69.1311 53.4476 69.2108 53.4932C70.19 54.0539 71.2666 54.6704 72.4472 55.2544L74.0311 56.038L75.5982 52.8701L74.0143 52.0866C72.9339 51.5521 71.9455 50.9863 70.9529 50.4181C70.8782 50.3753 70.8034 50.3325 70.7286 50.2897C69.6798 49.6898 68.6036 49.081 67.4941 48.5841C65.2057 47.5592 62.7269 46.9888 59.6132 47.6452C57.0252 48.1908 55.4317 49.547 54.1044 50.8366C53.8919 51.0431 53.6887 51.2445 53.4908 51.4406C52.4323 52.4898 51.5278 53.3862 50.1718 54.0968C46.6338 55.951 41.5111 57.1389 37.1311 57.8579C34.9684 58.2128 33.0369 58.4459 31.6468 58.5901C30.9523 58.6621 30.3945 58.7118 30.0123 58.7433C29.8213 58.7591 29.6743 58.7703 29.5761 58.7775C29.527 58.7811 29.4902 58.7837 29.4662 58.7854L29.4399 58.7872L29.4334 58.7876L27.67 58.9026Z" fill="#877171"/>
<path fill-rule="evenodd" clip-rule="evenodd" d="M54.9414 23.171C54.9414 22.6067 57.3136 22.9913 58.0692 23.1281C59.9683 23.4719 61.9364 24.375 63.6673 25.1847C64.4816 25.5657 65.7431 26.4389 66.3886 26.9003C66.9928 27.3321 67.6961 27.6209 68.3889 27.9054C68.6066 27.9948 68.8233 28.0837 69.0355 28.1766C69.9087 28.5586 70.6371 29.2094 71.1146 30.0342L72.6476 32.6822C73.0182 33.3223 73.2611 34.0455 73.5002 34.7577C73.5912 35.0287 73.6816 35.2981 73.7784 35.5607C74.1658 36.6124 73.9477 37.7916 73.2097 38.6351C71.0951 41.0516 67.4908 41.3798 64.3081 41.6695C63.4895 41.7441 62.6988 41.816 61.9685 41.9204C61.2197 42.0273 60.4432 42.0052 59.676 41.9832C59.3618 41.9743 59.0492 41.9653 58.7406 41.9653H51.5231H49.4421C48.3997 41.9653 47.337 42.1535 46.2888 42.3391C45.831 42.4202 45.376 42.5008 44.9266 42.565C44.1291 42.6789 43.3566 43.0031 42.6011 43.3201C42.3414 43.4291 42.0836 43.5373 41.8276 43.6358C40.5425 44.13 39.1265 44.3895 37.7338 44.6446C37.1078 44.7593 36.4864 44.8732 35.8838 45.0071C33.399 45.5592 31.1196 46.9063 28.8587 48.2424C27.6168 48.9763 26.3804 49.707 25.1186 50.3007C24.4076 50.6354 23.8901 51.1915 23.3722 51.7481C22.9173 52.237 22.4621 52.7262 21.8752 53.066L18.2478 55.1661C17.0112 55.908 15.9432 56.7435 15.525 58.2074C15.2799 59.0652 15.1863 59.9246 15.406 60.8034L16.0103 63.2208C16.4758 64.3843 16.9358 65.4793 18.0127 66.2249L18.3028 66.4257C18.3138 66.4383 18.3264 66.4498 18.3405 66.46L18.8936 66.8595C19.4377 67.2524 20.0663 67.5377 20.7472 67.6236C21.0998 67.6681 21.4994 67.7041 21.8333 67.6956C23.1931 67.6608 24.169 67.6119 25.3174 66.7564C25.5689 66.569 25.8193 66.3045 26.0331 66.0504C26.5448 65.4423 26.7499 64.6609 26.7499 63.895C26.7499 63.2698 26.6044 62.6531 26.3247 62.0939L26.0141 61.4726C25.8845 61.2135 25.7237 60.9712 25.5352 60.7513C24.8116 59.907 23.7336 59.4515 22.6239 59.5208L22.3087 59.5405C21.2409 59.6073 20.0879 60.0677 19.6104 61.1143C19.5783 61.1847 19.5461 61.2533 19.5146 61.3207C19.2613 61.8618 19.0446 62.3247 19.145 63.0287C19.1971 63.3947 19.2862 63.7093 19.4448 63.9924C19.604 64.2766 19.8262 64.5161 20.1271 64.7422C20.402 64.9487 20.6608 65.0747 20.9408 65.1469C21.2169 65.2182 21.5039 65.2345 21.8276 65.2345C22.1495 65.2345 22.5444 65.2228 22.9254 65.1578C23.3025 65.0935 23.6914 64.973 23.9823 64.737C24.387 64.4087 24.577 63.992 24.6003 63.544C24.6231 63.1046 24.4854 62.6485 24.2635 62.2225C24.1042 61.9166 23.9022 61.675 23.6441 61.503C23.386 61.331 23.0852 61.2377 22.7419 61.208C22.2962 61.1694 21.9311 61.2847 21.6416 61.4693C21.4341 61.6016 21.2994 61.7801 21.2418 61.9851C21.185 62.1871 21.2082 62.3959 21.2809 62.585C21.4245 62.9587 21.7724 63.2891 22.2043 63.4331L22.3459 63.0086C22.0312 62.9037 21.7907 62.6642 21.6985 62.4244C21.6533 62.3069 21.6467 62.198 21.6726 62.1062C21.6975 62.0174 21.7579 61.9258 21.8822 61.8466C22.0946 61.7112 22.3624 61.6243 22.7033 61.6538C22.9877 61.6784 23.2125 61.7532 23.396 61.8754C23.5794 61.9976 23.7348 62.1762 23.8666 62.4292C24.0661 62.8122 24.1707 63.1875 24.1534 63.5208C24.1366 63.8456 24.004 64.1431 23.7003 64.3895C23.4972 64.5543 23.1974 64.6575 22.8501 64.7167C22.5068 64.7753 22.1418 64.787 21.8276 64.787C21.5153 64.787 21.2734 64.7706 21.0526 64.7136C20.8357 64.6577 20.6295 64.5599 20.3958 64.3844C20.1334 64.1873 19.9578 63.9925 19.8352 63.7737C19.712 63.5538 19.6352 63.2969 19.588 62.9655C19.5072 62.3993 19.6671 62.0553 19.921 61.509C19.9519 61.4426 19.9841 61.3732 20.0175 61.3C20.3963 60.4698 21.3457 60.0491 22.3367 59.9871L22.6518 59.9674C23.6214 59.9068 24.5632 60.3049 25.1954 61.0425C25.3601 61.2347 25.5007 61.4463 25.6139 61.6727L25.9245 62.294C26.1731 62.7911 26.3025 63.3392 26.3025 63.895C26.3025 64.5861 26.1171 65.2556 25.6908 65.7623C25.4851 66.0067 25.2606 66.2407 25.0501 66.3975C24.0229 67.1627 23.1742 67.2136 21.8219 67.2482C21.522 67.2559 21.1489 67.2233 20.8032 67.1797C20.211 67.105 19.6518 66.855 19.1556 66.4967L18.6025 66.0973C18.5898 66.0881 18.5765 66.0804 18.5627 66.0743C18.035 65.4232 17.6349 64.6994 17.2593 63.8229C17.0257 63.278 16.9053 62.6914 16.9053 62.0985C16.9053 61.088 17.2549 60.1086 17.8948 59.3265C18.5437 58.5335 19.2034 57.9041 20.0936 57.37C21.0037 56.8239 21.9781 56.7323 23.0087 56.7323C24.0302 56.7323 24.8862 57.1428 25.774 57.5868C26.7665 58.083 27.3776 58.9298 28.0033 59.7969C28.0583 59.8731 28.1134 59.9495 28.1689 60.0259C28.5767 60.5865 28.8057 61.2375 29.0337 61.8859C29.0773 62.0096 29.1207 62.1333 29.1654 62.2562C29.4482 63.0338 29.4424 63.8414 29.4365 64.6535C29.4357 64.7693 29.4348 64.8853 29.4348 65.0012C29.4348 65.7418 29.2511 66.4707 28.9 67.1228C28.3529 68.1388 27.7973 69.0788 26.7563 69.6737C23.6156 71.4684 21.2338 71.9671 17.7514 71.0507C16.6679 70.7655 15.7481 70.0292 14.8636 69.3212C14.6199 69.1261 14.379 68.9333 14.138 68.7525C13.6031 68.3513 13.1649 67.8354 12.8556 67.2426C12.6446 66.8382 12.4029 66.425 12.1563 66.0036C11.4548 64.8046 10.7145 63.5395 10.5351 62.2237C10.4789 61.8116 10.4023 61.3876 10.3246 60.9575C10.1153 59.7987 9.89816 58.5967 10.0518 57.4701C10.1139 57.0143 10.1599 56.5458 10.2063 56.0734C10.3157 54.9589 10.4272 53.8231 10.7579 52.7837L12.2067 48.2301L13.7328 43.6519C19.0839 26.7805 26.4684 22.0659 38.2158 22.4926C40.9462 22.5918 43.2881 23.9698 45.6595 25.3651C47.0519 26.1844 48.4544 27.0097 49.9517 27.5855C50.4399 27.7733 50.9586 27.8696 51.4817 27.8696H51.6385C52.3348 27.8696 53.017 27.6739 53.6075 27.3049L53.6454 27.2812C54.2003 26.9344 54.6487 26.4412 54.9414 25.8559V23.171Z" fill="url(#paint0_linear_702_802)"/>
<path d="M41.7475 39.8076L49.2094 38.8509C49.3012 38.8391 49.391 38.8147 49.4761 38.7782L50.4305 38.3692C50.7332 38.2394 50.9526 37.969 51.0172 37.6461L51.0985 37.2394C51.1244 37.1099 51.1244 36.9766 51.0985 36.8471L51.0336 36.5224C50.9601 36.1553 50.6877 35.8599 50.3277 35.757L49.572 35.5411C49.4245 35.499 49.2693 35.4913 49.1184 35.5188L44.5142 36.3559C44.4552 36.3666 44.3953 36.372 44.3353 36.372H39.867C39.7741 36.372 39.6816 36.385 39.5923 36.4105L38.457 36.7349C38.264 36.79 38.092 36.902 37.9635 37.0562L37.1163 38.0728C37.067 38.132 37.0246 38.1968 36.9901 38.2658L36.5668 39.1124C36.4419 39.3622 36.4272 39.653 36.5262 39.9142L41.1902 52.2101C41.2574 52.3873 41.3736 52.5418 41.5252 52.6555L41.9449 52.9703C42.098 53.0851 42.1881 53.2653 42.1881 53.4566C42.1881 53.551 42.2101 53.6441 42.2523 53.7285L44.0009 57.2258C44.1287 57.4813 44.1411 57.7792 44.035 58.0444L43.7708 58.705C43.7598 58.7323 43.7453 58.7581 43.7276 58.7817C43.5302 59.0449 43.7901 59.4055 44.1022 59.3014L44.3333 59.2244C44.3939 59.2042 44.449 59.1701 44.4942 59.1249L45.1146 58.5046C45.249 58.3701 45.3424 58.2001 45.3836 58.0144L45.4945 57.5156L45.6685 58.075L45.3706 59.4155C45.3411 59.5481 45.4057 59.6838 45.5272 59.7445C45.6637 59.8128 45.8297 59.7661 45.9106 59.6366L46.693 58.3847C46.8181 58.1847 46.8684 57.9469 46.835 57.7133L46.6629 56.5088L45.8215 53.3534C45.7866 53.2224 45.7908 53.0841 45.8337 52.9555L45.9152 52.7107C45.9609 52.5738 46.089 52.4814 46.2334 52.4814C46.4516 52.4814 46.6117 52.2764 46.5587 52.0647L46.491 51.794C46.4577 51.6604 46.3757 51.5441 46.2612 51.4678L45.3486 50.8594C45.1844 50.7499 44.9914 50.6915 44.7939 50.6915H44.6701C44.3733 50.6915 44.0919 50.5597 43.9019 50.3317L43.2242 49.5185C43.1312 49.4068 43.0637 49.2763 43.0262 49.1359L42.1881 45.9929L40.9067 41.0504C40.7556 40.4675 41.1502 39.8842 41.7475 39.8076Z" fill="#9BA1A6"/>
<path fill-rule="evenodd" clip-rule="evenodd" d="M53.5918 16.0138V12.2717C53.5918 11.3814 57.3344 11.9881 58.5266 12.2039C61.5227 12.7464 64.6278 14.1712 67.3586 15.4486C68.6433 16.0496 70.6336 17.4274 71.652 18.1552C72.6052 18.8365 73.7149 19.2921 74.8078 19.7409C75.1513 19.882 75.4932 20.0224 75.828 20.1689C77.2056 20.7715 78.3547 21.7983 79.1081 23.0996L81.5268 27.2773C82.1115 28.2872 82.4946 29.4282 82.8718 30.5518C83.0154 30.9794 83.1581 31.4044 83.3107 31.8187C83.922 33.4779 83.5778 35.3384 82.4135 36.6691C79.0774 40.4817 73.3909 40.9994 68.3695 41.4565C67.5081 41.535 66.6662 41.6116 65.8591 41.7028C64.8878 41.0263 63.7541 40.5565 62.516 40.3631C59.8213 39.942 57.5045 38.1884 56.529 35.6414C56.0946 34.5072 55.6656 33.3037 55.369 32.2747C53.6026 26.1456 53.604 16.037 53.604 16.037L53.5918 16.0138Z" fill="url(#paint1_linear_702_802)"/>
<path d="M66.6487 41.1965L58.7712 38.7895C57.587 38.4276 56.6371 37.5377 56.1989 36.3796L53.0855 28.1512C52.8276 27.4697 52.3885 26.8716 51.8156 26.4215L51.1044 25.8627C49.5886 24.6717 49.1378 22.569 50.0323 20.8614L50.7001 19.5866C51.3527 18.3406 51.1425 16.8177 50.1768 15.7952C48.5376 14.0596 49.2306 11.2113 51.4838 10.4226L51.9836 10.2477C52.4505 10.0843 52.9448 10.0173 53.4371 10.0656C56.8185 10.3971 70.7873 12.1397 76.4046 18.7049C78.2429 20.8534 80.0182 24.4901 80.7962 26.1866C81.0728 26.7898 81.4786 27.3266 81.9967 27.7411L82.7077 28.3099C83.6566 29.069 84.209 30.2183 84.209 31.4334V33.1656C84.209 34.1013 83.8809 35.0074 83.2818 35.7263L82.0506 37.2037C81.5029 37.8611 80.7587 38.3254 79.9276 38.5286L68.7673 41.2566C68.0685 41.4275 67.3366 41.4067 66.6487 41.1965Z" fill="#A9B0B7"/>
<path fill-rule="evenodd" clip-rule="evenodd" d="M66.7776 35.5703C67.1067 35.7545 67.4772 35.8883 67.8589 35.8801C68.0549 35.876 68.272 35.8735 68.4931 35.8723C69.6519 35.8658 70.8138 35.8123 71.97 35.6763L72.3731 35.6289C73.9223 35.4466 75.4847 35.4039 77.0416 35.5012L78.8701 35.6155L82.7994 36.4013L82.9026 35.8853L78.9384 35.0925L77.0744 34.976C75.4861 34.8767 73.8921 34.9203 72.3116 35.1062L71.9085 35.1537C70.7767 35.2868 69.6351 35.3396 68.4901 35.3461C68.2674 35.3473 68.0474 35.3498 67.8477 35.354C67.594 35.3594 67.318 35.2697 67.0346 35.1111C66.7529 34.9534 66.4808 34.7371 66.2403 34.5136C66.0008 34.2909 65.7984 34.0664 65.6557 33.8972C65.5845 33.8128 65.5286 33.7427 65.4908 33.694C65.4719 33.6697 65.4575 33.6508 65.4481 33.6382L65.4377 33.6242L65.4353 33.621L65.4348 33.6204C65.4348 33.6204 65.4348 33.6204 65.2221 33.7753C65.0094 33.9301 65.0094 33.9302 65.0095 33.9302L65.0099 33.9308L65.0109 33.9322L65.0145 33.937L65.0273 33.9542C65.0384 33.969 65.0545 33.9902 65.0753 34.017C65.1169 34.0704 65.1772 34.1461 65.2534 34.2365C65.4055 34.4168 65.6227 34.6579 65.882 34.899C66.1406 35.1394 66.4468 35.3852 66.7776 35.5703Z" fill="#596068"/>
<ellipse cx="68.9893" cy="24.8315" rx="7.99679" ry="7.99679" fill="#9BA1A6"/>
<circle cx="68.9894" cy="24.8315" r="6.664" fill="#F9FCFE"/>
<ellipse cx="68.9892" cy="24.8314" rx="5.3312" ry="5.33119" fill="#F0DF42"/>
<ellipse cx="68.9896" cy="24.8316" rx="3.9984" ry="3.9984" fill="#222529"/>
<circle cx="71.2112" cy="21.7218" r="0.888533" fill="white"/>
<ellipse cx="80.2088" cy="32.9553" rx="0.263118" ry="0.526236" transform="rotate(-23.9283 80.2088 32.9553)" fill="black"/>
<path d="M28.9042 43.3494L19.4636 48.0697C19.2561 48.1734 19.0912 48.346 18.997 48.558L18.3816 49.9426C18.2947 50.1382 18.2728 50.3566 18.3193 50.5656L18.5691 51.6897C18.6471 52.0407 18.9075 52.3228 19.2512 52.4286L21.1367 53.0087C21.4315 53.0994 21.7516 53.049 22.0043 52.8722L23.8413 51.5863L27.0914 48.9862C27.1618 48.9299 27.2394 48.8834 27.3222 48.8479L28.5706 48.3129C28.6872 48.2629 28.8224 48.289 28.9121 48.3786C28.9609 48.4274 28.992 48.4911 29.0005 48.5595L29.1986 50.1437C29.2069 50.2103 29.2085 50.2775 29.2033 50.3444L28.9873 53.1525L28.782 55.8216C28.7699 55.979 28.7953 56.1371 28.856 56.2829L29.8823 58.746L31.2248 61.2072L32.1197 62.7734L32.4275 63.2349C32.4939 63.3347 32.6411 63.3337 32.7076 63.234C32.7992 63.0966 33.0147 63.1593 33.0147 63.3243C33.0147 63.3961 33.0606 63.4599 33.1288 63.4826L33.5246 63.6145C33.6172 63.6454 33.7183 63.6035 33.762 63.5162L33.8096 63.421C33.8903 63.2596 34.1334 63.317 34.1334 63.4974C34.1334 63.5918 34.2099 63.6683 34.3043 63.6683H34.5809C34.828 63.6683 35.0284 63.468 35.0284 63.2208V62.7734V61.1648C35.0284 61.0448 35.0068 60.9259 34.9647 60.8136L33.7496 57.5733C33.7075 57.4611 33.6859 57.3421 33.6859 57.2222V55.9275C33.6859 55.8675 33.6805 55.8077 33.6698 55.7487L33.264 53.5168C33.247 53.4235 33.2169 53.3332 33.1745 53.2484L32.6223 52.1439C32.5857 52.0707 32.5582 51.9934 32.5405 51.9136L32.1435 50.1272C32.1277 50.056 32.1197 49.9833 32.1197 49.9103V46.664V44.7035C32.1197 44.5223 32.0705 44.3444 31.9772 44.189L31.5983 43.5575C31.5005 43.3945 31.3581 43.2627 31.188 43.1776L30.9015 43.0343C30.6777 42.9224 30.4201 42.8985 30.1795 42.9672L29.0767 43.2823C29.0173 43.2993 28.9595 43.3217 28.9042 43.3494Z" fill="#9BA1A6"/>
<defs>
<linearGradient id="paint0_linear_702_802" x1="42.1855" y1="22.4666" x2="47.2811" y2="62.4091" gradientUnits="userSpaceOnUse">
<stop stop-color="#DFE2E5"/>
<stop offset="0.375" stop-color="#AEB5BC"/>
<stop offset="0.526042" stop-color="#AEB5BC"/>
<stop offset="1" stop-color="#596068"/>
</linearGradient>
<linearGradient id="paint1_linear_702_802" x1="74.0655" y1="32.7861" x2="-16.5466" y2="88.7919" gradientUnits="userSpaceOnUse">
<stop stop-color="#AEB5BC"/>
<stop offset="1" stop-color="#596068"/>
</linearGradient>
</defs>
</svg>
