<svg width="160" height="180" viewBox="0 0 160 180" fill="none" xmlns="http://www.w3.org/2000/svg">
<path d="M104.205 19.0274L96.5641 19.882L99.1673 24.8355L104.205 19.0274Z" fill="#222529"/>
<path d="M105.103 14.3458L94.6229 18.7157L97.9828 23.1906L105.103 14.3458Z" fill="#222529"/>
<path d="M52.0537 18.9171L59.6943 19.7716L57.0911 24.7251L52.0537 18.9171Z" fill="#222529"/>
<path d="M51.1562 14.2354L61.636 18.6054L58.2761 23.0802L51.1562 14.2354Z" fill="#222529"/>
<path d="M54.0586 34.6656C54.0586 21.4825 64.7456 10.7955 77.9287 10.7955V10.7955C91.1118 10.7955 101.799 21.4825 101.799 34.6656V50.579C101.799 63.7621 91.1118 74.4491 77.9287 74.4491V74.4491C64.7456 74.4491 54.0586 63.7621 54.0586 50.579V34.6656Z" fill="#596068"/>
<path fill-rule="evenodd" clip-rule="evenodd" d="M101.798 34.6676C101.798 21.4845 91.1108 10.7975 77.9277 10.7975C64.7446 10.7975 54.0576 21.4845 54.0576 34.6676V50.581C54.0576 53.2271 54.4882 55.7727 55.2831 58.1514L63.6497 49.7848V69.7118C67.6316 72.6885 72.5738 74.4511 77.9277 74.4511C83.3013 74.4511 88.2602 72.6754 92.2497 69.6789V49.7858L100.583 58.1192C101.371 55.7497 101.798 53.2152 101.798 50.581V34.6676Z" fill="#AEB5BC"/>
<path fill-rule="evenodd" clip-rule="evenodd" d="M95.2403 18.2317C99.3046 22.5117 101.798 28.2975 101.798 34.6656V50.579C101.798 53.4216 101.301 56.1481 100.39 58.6764C100.444 58.5266 100.496 58.3762 100.547 58.225L77.9275 35.6051L55.3086 58.224C54.4977 55.8239 54.0581 53.2528 54.0581 50.579V34.6656C54.0581 28.2973 56.552 22.5115 60.6163 18.2314L77.9285 35.5436L95.2403 18.2317ZM80.6691 10.9512C79.7697 10.8484 78.8551 10.7955 77.9282 10.7955C77.9282 10.7955 77.9282 10.7955 77.9282 10.7955C78.8551 10.7955 79.7697 10.8484 80.6691 10.9512Z" fill="#DFE2E5"/>
<path d="M101.798 35.5188C101.798 41.0118 97.3456 45.4647 91.8526 45.4647C86.3597 45.4647 81.9067 41.0118 81.9067 35.5188C81.9067 30.0259 86.3597 25.5729 91.8526 25.5729C97.3456 25.5729 101.798 30.0259 101.798 35.5188Z" fill="#52BAE6"/>
<path fill-rule="evenodd" clip-rule="evenodd" d="M91.8526 42.8004C95.8741 42.8004 99.1342 39.5403 99.1342 35.5188C99.1342 31.4973 95.8741 28.2373 91.8526 28.2373C87.8311 28.2373 84.5711 31.4973 84.5711 35.5188C84.5711 39.5403 87.8311 42.8004 91.8526 42.8004ZM91.8526 45.4647C97.3456 45.4647 101.798 41.0118 101.798 35.5188C101.798 30.0259 97.3456 25.5729 91.8526 25.5729C86.3597 25.5729 81.9067 30.0259 81.9067 35.5188C81.9067 41.0118 86.3597 45.4647 91.8526 45.4647Z" fill="#E8EDF2"/>
<path fill-rule="evenodd" clip-rule="evenodd" d="M91.8526 43.8733C96.4667 43.8733 100.207 40.1329 100.207 35.5188C100.207 30.9047 96.4667 27.1643 91.8526 27.1643C87.2385 27.1643 83.4981 30.9047 83.4981 35.5188C83.4981 40.1329 87.2385 43.8733 91.8526 43.8733ZM91.8526 45.4647C97.3456 45.4647 101.798 41.0118 101.798 35.5188C101.798 30.0259 97.3456 25.5729 91.8526 25.5729C86.3597 25.5729 81.9067 30.0259 81.9067 35.5188C81.9067 41.0118 86.3597 45.4647 91.8526 45.4647Z" fill="#596068"/>
<circle cx="91.8534" cy="35.5176" r="5.75814" fill="#222529"/>
<circle cx="89.7579" cy="33.4265" r="1.5704" fill="white"/>
<path d="M54.0584 35.5188C54.0584 41.0118 58.5114 45.4647 64.0043 45.4647C69.4973 45.4647 73.9502 41.0118 73.9502 35.5188C73.9502 30.0259 69.4973 25.5729 64.0043 25.5729C58.5114 25.5729 54.0584 30.0259 54.0584 35.5188Z" fill="#52BAE6"/>
<path fill-rule="evenodd" clip-rule="evenodd" d="M64.0043 42.8004C59.9828 42.8004 56.7228 39.5403 56.7228 35.5188C56.7228 31.4973 59.9828 28.2373 64.0043 28.2373C68.0258 28.2373 71.2859 31.4973 71.2859 35.5188C71.2859 39.5403 68.0258 42.8004 64.0043 42.8004ZM64.0043 45.4647C58.5114 45.4647 54.0584 41.0118 54.0584 35.5188C54.0584 30.0259 58.5114 25.5729 64.0043 25.5729C69.4973 25.5729 73.9502 30.0259 73.9502 35.5188C73.9502 41.0118 69.4973 45.4647 64.0043 45.4647Z" fill="#E8EDF2"/>
<path fill-rule="evenodd" clip-rule="evenodd" d="M64.0043 43.8733C59.3902 43.8733 55.6498 40.1329 55.6498 35.5188C55.6498 30.9047 59.3902 27.1643 64.0043 27.1643C68.6184 27.1643 72.3589 30.9047 72.3589 35.5188C72.3589 40.1329 68.6184 43.8733 64.0043 43.8733ZM64.0043 45.4647C58.5114 45.4647 54.0584 41.0118 54.0584 35.5188C54.0584 30.0259 58.5114 25.5729 64.0043 25.5729C69.4973 25.5729 73.9502 30.0259 73.9502 35.5188C73.9502 41.0118 69.4973 45.4647 64.0043 45.4647Z" fill="#596068"/>
<circle cx="5.75814" cy="5.75814" r="5.75814" transform="matrix(-1 0 0 1 69.7622 29.7595)" fill="#222529"/>
<circle cx="1.5704" cy="1.5704" r="1.5704" transform="matrix(-1 0 0 1 67.6694 31.8561)" fill="white"/>
<path d="M77.9284 45.4636L74.483 40.0928L81.3737 40.0928L77.9284 45.4636Z" fill="#222529"/>
<rect x="73.9502" y="77.2927" width="1.1935" height="7.16103" rx="0.596752" transform="rotate(-180 73.9502 77.2927)" fill="#222529"/>
<rect x="71.9609" y="77.2927" width="1.1935" height="7.16103" rx="0.596752" transform="rotate(-180 71.9609 77.2927)" fill="#222529"/>
<rect x="69.9731" y="77.2927" width="1.1935" height="7.16103" rx="0.596752" transform="rotate(-180 69.9731 77.2927)" fill="#222529"/>
<rect x="67.9824" y="77.2927" width="1.1935" height="7.16103" rx="0.596752" transform="rotate(-180 67.9824 77.2927)" fill="#222529"/>
<rect x="88.2725" y="77.2927" width="1.1935" height="7.16103" rx="0.596752" transform="rotate(-180 88.2725 77.2927)" fill="#222529"/>
<rect x="86.2832" y="77.2927" width="1.1935" height="7.16103" rx="0.596752" transform="rotate(-180 86.2832 77.2927)" fill="#222529"/>
<rect x="84.2939" y="77.2927" width="1.1935" height="7.16103" rx="0.596752" transform="rotate(-180 84.2939 77.2927)" fill="#222529"/>
<rect x="82.3047" y="77.2927" width="1.1935" height="7.16103" rx="0.596752" transform="rotate(-180 82.3047 77.2927)" fill="#222529"/>
<g clip-path="url(#clip0_409_3673)">
<path d="M77.8733 48.0822C77.567 48.1042 77.335 48.3723 77.3509 48.6852V48.8385C77.3653 49.0121 77.3908 49.184 77.4243 49.3543C77.4732 49.6805 77.4908 50.0108 77.4769 50.3405C77.4466 50.4489 77.386 50.5467 77.3031 50.6217L77.2911 50.8515C76.9681 50.8792 76.6475 50.9297 76.3317 51.0031C75.0031 51.3095 73.7933 52.0136 72.8594 53.0283L72.6681 52.8898C72.5628 52.9224 72.4495 52.9101 72.353 52.8572C72.0942 52.6614 71.8546 52.4403 71.6377 52.197C71.5287 52.064 71.4124 51.9374 71.2892 51.8181L71.1712 51.7219C71.0659 51.6355 70.9367 51.5858 70.8019 51.5793C70.7215 51.5749 70.6412 51.5901 70.5676 51.6235C70.494 51.6569 70.4292 51.7077 70.3785 51.7716C70.1982 52.0299 70.2572 52.3877 70.5092 52.5727L70.6193 52.6624C70.761 52.7587 70.9079 52.8466 71.0595 52.9256C71.3418 53.0862 71.6082 53.2744 71.8554 53.4961C71.9186 53.5883 71.9554 53.6967 71.9615 53.8091L72.1353 53.9721C71.1967 55.4113 70.8115 57.1546 71.0523 58.8669L70.829 58.9321C70.7708 59.0266 70.6935 59.1073 70.601 59.1668C70.2894 59.2518 69.9705 59.3056 69.6488 59.3273C69.478 59.3309 69.3076 59.3445 69.1384 59.3681L68.9972 59.4007H68.9813C68.8833 59.4146 68.791 59.456 68.7147 59.5203C68.6384 59.5846 68.5811 59.6693 68.5491 59.7649C68.5171 59.8605 68.5117 59.9634 68.5335 60.0619C68.5553 60.1605 68.6035 60.251 68.6726 60.3232C68.7424 60.3951 68.8304 60.4458 68.9267 60.4695C69.023 60.4933 69.1239 60.4892 69.2181 60.4577H69.2285L69.372 60.4414C69.5339 60.3925 69.6934 60.3322 69.8489 60.2638C70.148 60.1415 70.4582 60.0478 70.7756 59.9867C70.8857 59.9932 70.9909 60.0315 71.0802 60.0967L71.3195 60.0559C71.8379 61.6998 72.9272 63.0926 74.3819 63.9703L74.2846 64.1781C74.3292 64.2735 74.346 64.3794 74.3324 64.4846C74.2008 64.7959 74.0397 65.0942 73.8515 65.3745C73.7483 65.5136 73.653 65.6586 73.566 65.8089L73.4982 65.9556C73.4491 66.0428 73.4244 66.1422 73.427 66.2428C73.4296 66.3434 73.4594 66.4413 73.513 66.5257C73.5666 66.6101 73.6421 66.6777 73.7309 66.7211C73.8198 66.7644 73.9187 66.7819 74.0166 66.7714C74.1148 66.7601 74.208 66.7213 74.2858 66.6591C74.3637 66.5969 74.4231 66.514 74.4576 66.4193L74.5238 66.2808C74.5844 66.1178 74.6355 65.9515 74.6769 65.7837C74.8181 65.4275 74.8946 65.0453 75.0876 64.8089C75.1507 64.7483 75.2302 64.7086 75.3157 64.6948L75.4353 64.4723C77.0122 65.0917 78.757 65.0961 80.3367 64.4846L80.4428 64.6924C80.5512 64.7087 80.6485 64.7698 80.7139 64.8595C80.8639 65.1512 80.9851 65.4568 81.0776 65.7722C81.1198 65.9411 81.1714 66.1074 81.2323 66.2702L81.2985 66.4087C81.3333 66.503 81.3929 66.5856 81.4708 66.6473C81.5487 66.7091 81.6418 66.7476 81.7398 66.7587C81.8378 66.7697 81.9368 66.7529 82.026 66.7099C82.1152 66.667 82.191 66.5997 82.2451 66.5155C82.2987 66.4308 82.3282 66.3325 82.3305 66.2317C82.3327 66.1309 82.3076 66.0313 82.2579 65.9442L82.1885 65.7975C82.1016 65.6478 82.0062 65.5033 81.903 65.3647C81.7196 65.0942 81.5617 64.8057 81.4245 64.5033C81.4117 64.448 81.4099 64.3907 81.4192 64.3347C81.4285 64.2787 81.4488 64.2252 81.4787 64.1773C81.4447 64.1062 81.4151 64.033 81.3902 63.9581C82.8416 63.0738 83.9262 61.6761 84.439 60.0298L84.6655 60.0706C84.7468 59.9948 84.8537 59.9549 84.963 59.9581C85.2796 60.0201 85.5898 60.1211 85.8896 60.2352C86.0452 60.3086 86.2046 60.3705 86.3665 60.4227C86.4048 60.4333 86.4606 60.4422 86.5037 60.4528H86.5141C86.6082 60.4839 86.7089 60.4876 86.805 60.4637C86.9011 60.4397 86.9888 60.3889 87.0583 60.317C87.1279 60.2451 87.1765 60.1549 87.1988 60.0564C87.2211 59.958 87.2163 59.8551 87.1848 59.7593C87.1525 59.6635 87.0949 59.5789 87.0183 59.5147C86.9417 59.4505 86.8491 59.4093 86.7509 59.3958L86.5962 59.3583C86.427 59.3347 86.2566 59.3211 86.0858 59.3176C85.7636 59.2964 85.4446 59.2426 85.1336 59.157C85.0379 59.1024 84.9582 59.0209 84.9039 58.9223L84.6886 58.8571C84.9182 57.1456 84.5249 55.4076 83.5833 53.9729L83.7715 53.7952C83.7635 53.6836 83.7994 53.5727 83.8704 53.4871C84.1152 53.272 84.3808 53.0821 84.6599 52.9199C84.8115 52.8409 84.9584 52.753 85.1001 52.6567L85.2166 52.5605C85.3023 52.5061 85.3712 52.4281 85.4153 52.3353C85.4594 52.2426 85.477 52.139 85.4659 52.0365C85.4548 51.934 85.4155 51.8368 85.3526 51.7562C85.2897 51.6756 85.2058 51.6148 85.1105 51.5809C85.0153 51.547 84.9126 51.5414 84.8144 51.5646C84.7162 51.5878 84.6264 51.6389 84.5554 51.7121L84.4374 51.8083C84.3143 51.9277 84.1979 52.0542 84.0889 52.1872C83.8784 52.4334 83.6455 52.6575 83.3927 52.858C83.2907 52.9004 83.1791 52.9128 83.0705 52.8938L82.8687 53.0405C81.7044 51.7936 80.1357 51.0194 78.4546 50.8645C78.4546 50.783 78.4443 50.6608 78.4427 50.6225C78.3526 50.5589 78.2896 50.4619 78.2688 50.3519C78.2578 50.0228 78.2781 49.6933 78.3294 49.3682C78.3637 49.1971 78.3877 49.0259 78.4028 48.8523V48.6893C78.4188 48.3764 78.1875 48.1082 77.8804 48.0862L77.8733 48.0822ZM77.2082 52.2924L77.0487 55.1391H77.0367C77.0287 55.3152 76.9274 55.4651 76.7719 55.5499C76.6164 55.6346 76.4322 55.6094 76.2934 55.5059L74.0086 53.8514C74.7359 53.1215 75.6482 52.6137 76.6427 52.3853C76.8294 52.3445 77.0176 52.3136 77.2066 52.2924H77.2082ZM78.5384 52.2924C79.7386 52.4448 80.8559 52.9957 81.7204 53.8604L79.4571 55.5042C79.3175 55.6183 79.1261 55.6411 78.9642 55.5629C78.8023 55.4847 78.6987 55.3184 78.6963 55.1359L78.5384 52.2924ZM73.1792 54.9223L75.2687 56.8278V56.84C75.3987 56.9557 75.4553 57.1358 75.417 57.3078C75.3787 57.4798 75.2495 57.6159 75.0844 57.6623V57.6705L72.4033 58.4586C72.2706 57.2241 72.5439 55.9796 73.18 54.9215L73.1792 54.9223ZM82.5521 54.9223C83.1869 55.9777 83.4677 57.2157 83.3512 58.4488L80.6661 57.6582V57.6476C80.4986 57.6012 80.371 57.4651 80.3335 57.2931C80.296 57.1212 80.3519 56.9427 80.4819 56.8253L82.5553 54.9289L82.5521 54.9223ZM77.445 56.9761H78.2999L78.8223 57.6542L78.6325 58.5018L77.8645 58.8791L77.0949 58.5018L76.9139 57.6542L77.445 56.9761ZM80.1836 59.289C80.2195 59.285 80.2633 59.285 80.2913 59.289L83.0562 59.7658C82.6574 60.9394 81.8703 61.9418 80.8431 62.6125L79.7745 59.9687C79.7451 59.8978 79.7328 59.8207 79.7387 59.7439C79.7445 59.6671 79.7684 59.5929 79.8082 59.5275C79.8479 59.462 79.9025 59.4074 79.9673 59.368C80.0321 59.3286 80.1052 59.3057 80.1804 59.3013L80.1836 59.289ZM75.5398 59.3013C75.6961 59.3037 75.8405 59.386 75.9258 59.5197C76.0111 59.6533 76.0247 59.8212 75.9633 59.9679V59.9785L74.901 62.6011C73.8842 61.9353 73.1123 60.9451 72.7015 59.7837L75.4425 59.3086C75.4728 59.3053 75.5039 59.3053 75.535 59.3086L75.5398 59.3013ZM77.8557 60.4422C77.9429 60.4394 78.029 60.4614 78.1047 60.5057C78.1803 60.5501 78.2424 60.615 78.284 60.6932H78.2943L79.6453 63.1847L79.1054 63.3477C78.1117 63.5799 77.0742 63.5253 76.1084 63.1896L77.4642 60.6981C77.5463 60.5514 77.6978 60.4618 77.8629 60.4577L77.8557 60.4422Z" fill="white" stroke="white" stroke-width="0.11"/>
</g>
<path d="M26.564 117.128L23.2729 120.642V128.425H14.5559V97.2927H23.2729V110.235L35.3255 97.2927H45.021L32.3013 111.08L45.6881 128.425H35.4589L26.564 117.128Z" fill="#52BAE6"/>
<path d="M61.9296 129.047C57.3043 129.047 53.7018 127.787 51.1223 125.267C48.5724 122.747 47.2975 119.174 47.2975 114.549V97.2927H56.1035V114.282C56.1035 119.263 58.0752 121.754 62.0186 121.754C65.9323 121.754 67.8892 119.263 67.8892 114.282V97.2927H76.5618V114.549C76.5618 119.174 75.272 122.747 72.6925 125.267C70.1426 127.787 66.555 129.047 61.9296 129.047Z" fill="#52BAE6"/>
<path d="M106.455 112.192C108.234 112.814 109.627 113.793 110.635 115.127C111.643 116.432 112.147 118.018 112.147 119.886C112.147 122.614 111.05 124.719 108.856 126.201C106.662 127.684 103.49 128.425 99.3386 128.425H82.5273V97.2927H98.4491C102.422 97.2927 105.446 98.0339 107.522 99.5164C109.597 100.969 110.635 102.941 110.635 105.432C110.635 106.914 110.265 108.248 109.523 109.434C108.812 110.591 107.789 111.51 106.455 112.192ZM91.2443 103.653V109.657H97.2928C100.258 109.657 101.74 108.648 101.74 106.632C101.74 104.646 100.258 103.653 97.2928 103.653H91.2443ZM98.627 122.065C101.711 122.065 103.252 121.012 103.252 118.907C103.252 116.802 101.711 115.75 98.627 115.75H91.2443V122.065H98.627Z" fill="#52BAE6"/>
<path d="M141.703 121.62V128.425H116.708V97.2927H141.125V104.097H125.425V109.345H139.257V115.927H125.425V121.62H141.703Z" fill="#52BAE6"/>
<path d="M26.1443 170.27C23.0903 170.27 20.3329 169.588 17.872 168.224C15.4407 166.86 13.5135 164.978 12.0903 162.576C10.6968 160.174 10 157.476 10 154.482C10 151.487 10.6968 148.789 12.0903 146.387C13.5135 143.986 15.4407 142.103 17.872 140.739C20.3329 139.375 23.0903 138.693 26.1443 138.693C28.3976 138.693 30.4731 139.064 32.3707 139.805C34.2683 140.517 35.8842 141.584 37.2184 143.007L35.7952 144.475C33.3047 142.014 30.1173 140.783 26.2332 140.783C23.624 140.783 21.2521 141.376 19.1173 142.562C16.9825 143.748 15.3073 145.394 14.0917 147.499C12.876 149.574 12.2682 151.902 12.2682 154.482C12.2682 157.061 12.876 159.403 14.0917 161.508C15.3073 163.584 16.9825 165.215 19.1173 166.401C21.2521 167.587 23.624 168.18 26.2332 168.18C30.0877 168.18 33.275 166.934 35.7952 164.444L37.2184 165.911C35.8842 167.335 34.2535 168.417 32.3262 169.158C30.4286 169.899 28.368 170.27 26.1443 170.27Z" fill="white"/>
<path d="M44.104 137.047H46.3277V170.048H44.104V137.047Z" fill="white"/>
<path d="M63.5279 146.654C66.4039 146.654 68.6128 147.395 70.1546 148.878C71.6964 150.331 72.4673 152.48 72.4673 155.327V170.048H70.3325V165.911C69.5913 167.275 68.509 168.343 67.0859 169.114C65.6627 169.855 63.9578 170.225 61.9713 170.225C59.3918 170.225 57.3459 169.618 55.8338 168.402C54.3513 167.186 53.6101 165.585 53.6101 163.599C53.6101 161.672 54.292 160.115 55.6559 158.929C57.0494 157.713 59.2583 157.106 62.2826 157.106H70.2435V155.238C70.2435 153.073 69.6506 151.428 68.4646 150.301C67.3082 149.174 65.6034 148.611 63.35 148.611C61.8082 148.611 60.3257 148.878 58.9025 149.411C57.509 149.945 56.323 150.657 55.3446 151.546L54.2327 149.945C55.389 148.907 56.7826 148.107 58.4133 147.543C60.0441 146.95 61.7489 146.654 63.5279 146.654ZM62.2826 168.402C64.2098 168.402 65.8406 167.957 67.1748 167.068C68.5387 166.178 69.5616 164.889 70.2435 163.199V158.84H62.3271C60.0441 158.84 58.3837 159.255 57.3459 160.085C56.3378 160.915 55.8338 162.057 55.8338 163.51C55.8338 165.022 56.3971 166.223 57.5238 167.112C58.6505 167.972 60.2368 168.402 62.2826 168.402Z" fill="white"/>
<path d="M83.7642 151.902C84.4757 150.212 85.5876 148.922 87.0997 148.033C88.6119 147.114 90.4502 146.654 92.6146 146.654V148.833L92.0809 148.789C89.5014 148.789 87.4852 149.604 86.0324 151.235C84.5795 152.836 83.8531 155.075 83.8531 157.951V170.048H81.6294V146.832H83.7642V151.902Z" fill="white"/>
<path d="M98.7416 146.832H100.965V170.048H98.7416V146.832ZM99.8535 141.184C99.3495 141.184 98.9195 141.021 98.5637 140.694C98.2079 140.339 98.03 139.909 98.03 139.405C98.03 138.901 98.2079 138.471 98.5637 138.115C98.9195 137.759 99.3495 137.581 99.8535 137.581C100.358 137.581 100.787 137.759 101.143 138.115C101.499 138.441 101.677 138.856 101.677 139.36C101.677 139.864 101.499 140.294 101.143 140.65C100.787 141.006 100.358 141.184 99.8535 141.184Z" fill="white"/>
<path d="M121.857 168.58C121.294 169.114 120.582 169.529 119.722 169.825C118.892 170.092 118.017 170.225 117.098 170.225C115.082 170.225 113.525 169.677 112.428 168.58C111.331 167.453 110.783 165.897 110.783 163.91V148.744H106.513V146.832H110.783V141.762H113.007V146.832H120.389V148.744H113.007V163.688C113.007 165.2 113.362 166.356 114.074 167.157C114.815 167.928 115.897 168.313 117.321 168.313C118.773 168.313 119.974 167.883 120.923 167.023L121.857 168.58Z" fill="white"/>
<path d="M146.259 146.832L134.34 173.205C133.45 175.251 132.412 176.704 131.226 177.564C130.07 178.424 128.691 178.854 127.09 178.854C126.023 178.854 125.015 178.676 124.066 178.32C123.147 177.964 122.361 177.445 121.709 176.763L122.821 175.073C124.007 176.289 125.445 176.897 127.135 176.897C128.262 176.897 129.225 176.585 130.026 175.963C130.826 175.34 131.567 174.273 132.249 172.761L133.495 169.959L123.043 146.832H125.4L134.695 167.602L143.991 146.832H146.259Z" fill="white"/>
<defs>
<clipPath id="clip0_409_3673">
<rect width="19.8566" height="19.8566" fill="white" transform="translate(68.0693 47.5075)"/>
</clipPath>
</defs>
</svg>
