<svg width="30" height="36" viewBox="0 0 30 36" fill="none" xmlns="http://www.w3.org/2000/svg">
<path d="M3.37634 0.947029V11.5138H13.9431C13.9431 5.67782 9.21232 0.947029 3.37634 0.947029Z" fill="#52BAE6"/>
<path d="M19.4332 0.947039V11.5138H30C30 5.67782 25.2689 0.947039 19.4332 0.947039Z" fill="#52BAE6"/>
<path d="M19.4329 11.5139L14.2557 16.7447H20.1502C21.6695 16.7447 22.9129 17.9881 22.9129 19.5077C22.9129 21.0272 21.6695 22.2707 20.1502 22.2707H8.78592L0 31.1472L4.8702 35.9743H30V11.5139H19.4332H19.4329Z" fill="#CFEBFB"/>
<path d="M6.59661 20.6929C5.94206 20.6929 5.41176 20.1623 5.41176 19.5078C5.41176 18.8535 5.94206 18.3229 6.59661 18.3229C7.25116 18.3229 7.78146 18.8535 7.78146 19.5078C7.78146 20.1623 7.25116 20.6929 6.59661 20.6929ZM6.13944 16.7448C4.61958 16.7448 3.37646 17.9879 3.37646 19.5078C3.37646 21.0273 4.61958 22.2707 6.13944 22.2707H8.78588L14.2556 16.7448H6.13944Z" fill="#52BAE6"/>
<path d="M17.2588 17.3345V19.5115H15.082C15.082 20.7139 16.0564 21.6883 17.2588 21.6883C18.4612 21.6883 19.4359 20.7139 19.4359 19.5115C19.4359 18.3091 18.4612 17.3345 17.2588 17.3345Z" fill="#52BAE6"/>
</svg>