<svg width="259" height="57" viewBox="0 0 259 57" fill="none" xmlns="http://www.w3.org/2000/svg">
    <path d="M86.8292 38.3419L75.6133 12.084H83.6407L93.0936 34.8159H88.3672L98.0451 12.084H105.397L94.1439 38.3419H86.8292Z" fill="#F0DF42"/>
    <path d="M106.934 38.3419V12.084H113.049L123.927 29.9394H120.701L131.279 12.084H137.394L137.469 38.3419H130.642L130.567 22.4746H131.729L123.815 35.7536H120.514L112.374 22.4746H113.799V38.3419H106.934Z" fill="#F0DF42"/>
    <path d="M157.388 38.021C155.438 38.021 153.624 37.6959 151.949 37.0457C150.298 36.3705 148.861 35.4327 147.635 34.2324C146.41 33.032 145.459 31.6316 144.784 30.0311C144.109 28.4056 143.771 26.6301 143.771 24.7045C143.771 22.7789 144.109 21.0158 144.784 19.4154C145.459 17.7899 146.41 16.3769 147.635 15.1766C148.886 13.9762 150.336 13.0509 151.986 12.4007C153.637 11.7255 155.438 11.3879 157.388 11.3879C159.239 11.3879 160.964 11.688 162.565 12.2882C164.19 12.8884 165.578 13.8012 166.728 15.0265L165.528 16.2644C164.403 15.1641 163.152 14.3763 161.777 13.9012C160.427 13.401 158.989 13.151 157.463 13.151C155.788 13.151 154.225 13.4385 152.774 14.0137C151.349 14.5889 150.098 15.4016 149.023 16.452C147.973 17.5023 147.148 18.7277 146.547 20.1281C145.972 21.5285 145.685 23.054 145.685 24.7045C145.685 26.355 145.972 27.8804 146.547 29.2809C147.148 30.6813 147.973 31.9067 149.023 32.957C150.098 34.0073 151.349 34.82 152.774 35.3952C154.225 35.9704 155.788 36.258 157.463 36.258C158.989 36.258 160.427 36.0204 161.777 35.5453C163.152 35.0451 164.403 34.2324 165.528 33.107L166.728 34.3449C165.578 35.5703 164.19 36.4955 162.565 37.1207C160.964 37.7209 159.239 38.021 157.388 38.021Z" fill="white"/>
    <path d="M172.536 37.8335V10H174.412V37.8335H172.536Z" fill="white"/>
    <path d="M194.658 37.8335V33.3696L194.583 32.6944V25.3422C194.583 23.5166 194.083 22.1287 193.083 21.1784C192.107 20.2281 190.669 19.753 188.769 19.753C187.418 19.753 186.155 19.9905 184.98 20.4657C183.83 20.9158 182.842 21.5035 182.017 22.2287L181.079 20.8783C182.054 20.003 183.23 19.3278 184.605 18.8527C185.98 18.3525 187.418 18.1025 188.919 18.1025C191.345 18.1025 193.208 18.7151 194.508 19.9405C195.808 21.1659 196.459 22.9914 196.459 25.4172V37.8335H194.658ZM187.606 37.9835C186.155 37.9835 184.893 37.7584 183.817 37.3083C182.767 36.8332 181.954 36.1705 181.379 35.3202C180.829 34.4699 180.554 33.4946 180.554 32.3943C180.554 31.394 180.779 30.4937 181.229 29.6935C181.704 28.8682 182.479 28.2055 183.555 27.7054C184.63 27.1802 186.068 26.9176 187.868 26.9176H195.071V28.3806H187.906C185.88 28.3806 184.455 28.7557 183.63 29.5059C182.829 30.2562 182.429 31.1939 182.429 32.3193C182.429 33.5697 182.904 34.57 183.855 35.3202C184.805 36.0704 186.143 36.4455 187.868 36.4455C189.519 36.4455 190.907 36.0704 192.032 35.3202C193.183 34.57 194.033 33.4821 194.583 32.0567L195.108 33.3321C194.583 34.7575 193.683 35.8954 192.407 36.7456C191.157 37.5709 189.556 37.9835 187.606 37.9835Z" fill="white"/>
    <path d="M204.186 37.8335V18.2525H205.987V23.6166L205.799 23.0165C206.349 21.441 207.275 20.2281 208.575 19.3779C209.875 18.5276 211.501 18.1025 213.452 18.1025V19.9405C213.377 19.9405 213.301 19.9405 213.226 19.9405C213.151 19.9155 213.076 19.903 213.001 19.903C210.826 19.903 209.125 20.5907 207.9 21.9661C206.674 23.3165 206.062 25.2046 206.062 27.6304V37.8335H204.186Z" fill="white"/>
    <path d="M218.619 37.8335V18.2525H220.495V37.8335H218.619ZM219.557 13.4886C219.132 13.4886 218.769 13.3385 218.469 13.0384C218.169 12.7383 218.019 12.3882 218.019 11.9881C218.019 11.563 218.169 11.2004 218.469 10.9003C218.769 10.6002 219.132 10.4501 219.557 10.4501C220.007 10.4501 220.37 10.6002 220.645 10.9003C220.945 11.1754 221.095 11.5255 221.095 11.9506C221.095 12.3757 220.945 12.7383 220.645 13.0384C220.37 13.3385 220.007 13.4886 219.557 13.4886Z" fill="white"/>
    <path d="M234.102 37.9835C232.376 37.9835 231.051 37.5084 230.126 36.5581C229.225 35.6078 228.775 34.3074 228.775 32.6569V13.9762H230.651V32.4693C230.651 33.7197 230.963 34.6825 231.589 35.3577C232.214 36.0329 233.114 36.3705 234.289 36.3705C235.515 36.3705 236.528 36.0079 237.328 35.2827L238.116 36.5956C237.615 37.0707 237.003 37.4208 236.278 37.6459C235.577 37.871 234.852 37.9835 234.102 37.9835ZM225.174 19.8655V18.2525H236.878V19.8655H225.174Z" fill="white"/>
    <path d="M242.53 45.2607C241.629 45.2607 240.779 45.1107 239.979 44.8106C239.204 44.5105 238.541 44.0728 237.991 43.4977L238.929 42.0722C239.429 42.5974 239.966 42.985 240.541 43.2351C241.142 43.4852 241.817 43.6102 242.567 43.6102C243.467 43.6102 244.255 43.3601 244.93 42.86C245.631 42.3598 246.281 41.4471 246.881 40.1217L248.231 37.1207L248.494 36.7831L256.784 18.2525H258.697L248.644 40.4968C248.119 41.6971 247.544 42.6349 246.918 43.3101C246.318 44.0103 245.656 44.5105 244.93 44.8106C244.205 45.1107 243.405 45.2607 242.53 45.2607ZM248.194 38.3211L239.116 18.2525H241.104L249.357 36.6706L248.194 38.3211Z" fill="white"/>
    <path d="M30.619 29.098L33.0935 27.1945L29.4769 27.5752L27.7638 28.5269C27.7638 28.5269 27.1427 28.7538 27.0024 29.098C26.825 29.5334 27.3831 30.24 27.3831 30.24L35.9487 35.9505L36.1391 36.3312C36.1391 36.3312 36.0366 36.7041 36.1391 36.9022C36.2375 37.0925 36.4401 36.9573 36.6332 36.751L36.5198 36.9022C36.5198 36.9022 36.5926 37.1654 36.7101 37.2829C37.0818 37.6546 37.6619 36.3312 37.6619 36.3312C37.6619 36.3312 37.1531 37.5546 37.6619 37.6636C37.9869 37.7332 38.4233 37.2829 38.4233 37.2829L39.375 36.3312L38.9943 35.3794L36.7101 33.4759L30.619 29.098Z" fill="#596068"/>
    <path d="M16.3192 34.2053L18.7937 32.3018L15.1771 32.6825L13.464 33.6342C13.464 33.6342 12.8429 33.8611 12.7026 34.2053C12.5252 34.6407 13.0833 35.3474 13.0833 35.3474L21.6489 41.0578L21.8393 41.4385C21.8393 41.4385 21.7368 41.8115 21.8393 42.0095C21.9377 42.1998 22.1403 42.0646 22.3334 41.8583L22.22 42.0095C22.22 42.0095 22.2928 42.2727 22.4103 42.3902C22.782 42.7619 23.3621 41.4385 23.3621 41.4385C23.3621 41.4385 22.8533 42.6619 23.3621 42.7709C23.6871 42.8406 24.1235 42.3902 24.1235 42.3902L25.0752 41.4385L24.6945 40.4868L22.4103 38.5833L16.3192 34.2053Z" fill="#596068"/>
    <path fill-rule="evenodd" clip-rule="evenodd" d="M15.0321 41.6036L15.2277 44.604L16.7279 44.5062L16.6301 43.006C16.7279 44.5062 16.7281 44.5062 16.7284 44.5061L16.7315 44.5059L16.7394 44.5054L16.7679 44.5035C16.7924 44.5018 16.8279 44.4993 16.874 44.4959C16.9661 44.4891 17.1002 44.4789 17.2721 44.4647C17.616 44.4363 18.1116 44.3921 18.7255 44.3284C19.9522 44.2012 21.6562 43.9957 23.5681 43.6818C27.3453 43.0618 32.1088 41.9928 35.5712 40.1783C37.1591 39.3461 38.2748 38.2329 39.1746 37.335C39.3277 37.1823 39.4746 37.0358 39.6164 36.8979C40.6114 35.9312 41.4643 35.256 42.8279 34.9685C44.708 34.5722 46.1623 34.8881 47.6834 35.5693C48.4735 35.9232 49.2681 36.3697 50.1712 36.8862C50.2378 36.9243 50.305 36.9628 50.3727 37.0016C51.2058 37.4786 52.1217 38.0031 53.1261 38.4999L54.4737 39.1665L55.8068 36.4715L54.4593 35.8049C53.5402 35.3502 52.6993 34.8688 51.8549 34.3854C51.7913 34.349 51.7277 34.3126 51.6641 34.2762C50.7718 33.7659 49.8562 33.2479 48.9123 32.8252C46.9654 31.9533 44.8567 31.4679 42.2076 32.0264C40.0059 32.4905 38.6502 33.6443 37.5211 34.7415C37.3403 34.9172 37.1674 35.0885 36.9991 35.2553C36.0985 36.1479 35.3291 36.9105 34.1754 37.5151C31.1655 39.0925 26.8074 40.1031 23.0811 40.7148C21.2412 41.0168 19.598 41.2151 18.4153 41.3377C17.8245 41.399 17.35 41.4412 17.0248 41.4681C16.8623 41.4815 16.7372 41.491 16.6537 41.4972C16.612 41.5002 16.5806 41.5025 16.5602 41.5039L16.5378 41.5054L16.5323 41.5058L15.0321 41.6036Z" fill="#877171"/>
    <path fill-rule="evenodd" clip-rule="evenodd" d="M38.2338 11.2053C38.2338 10.7252 40.2519 11.0524 40.8948 11.1688C42.5104 11.4613 44.1848 12.2296 45.6573 12.9185C46.3501 13.2425 47.4233 13.9855 47.9725 14.378C48.4865 14.7453 49.0849 14.991 49.6742 15.233C49.8595 15.3091 50.0438 15.3848 50.2244 15.4638C50.9672 15.7888 51.5868 16.3424 51.9931 17.0441L53.2973 19.2969C53.6126 19.8415 53.8192 20.4568 54.0226 21.0626C54.1 21.2932 54.177 21.5224 54.2593 21.7458C54.5889 22.6405 54.4033 23.6437 53.7755 24.3613C51.9766 26.4172 48.9102 26.6963 46.2025 26.9428C45.5061 27.0063 44.8334 27.0675 44.2121 27.1562C43.575 27.2473 42.9145 27.2284 42.2618 27.2097C41.9945 27.2021 41.7285 27.1945 41.466 27.1945H35.3257H33.5553C32.6684 27.1945 31.7644 27.3546 30.8727 27.5125C30.4832 27.5815 30.0961 27.65 29.7138 27.7047C29.0353 27.8016 28.3781 28.0774 27.7354 28.3471C27.5144 28.4398 27.2951 28.5318 27.0773 28.6156C25.984 29.0361 24.7794 29.2568 23.5945 29.4739C23.0619 29.5715 22.5333 29.6683 22.0206 29.7823C19.9067 30.252 17.9675 31.398 16.0441 32.5347C14.9875 33.1591 13.9357 33.7807 12.8622 34.2858C12.2573 34.5705 11.817 35.0436 11.3764 35.5172C10.9895 35.9331 10.6022 36.3493 10.1028 36.6384L7.01684 38.425C5.96486 39.0562 5.05626 39.767 4.70044 41.0123C4.49192 41.7422 4.41232 42.4733 4.59922 43.2209L5.11337 45.2775C5.50932 46.2674 5.90069 47.1989 6.81689 47.8332L7.06425 48.0045C7.0735 48.015 7.08407 48.0247 7.09591 48.0332L7.56644 48.373C8.02937 48.7074 8.56414 48.9501 9.14342 49.0232C9.44342 49.061 9.78331 49.0916 10.0674 49.0844C11.2242 49.0547 12.0545 49.0132 13.0315 48.2853C13.2454 48.126 13.4585 47.9009 13.6404 47.6847C14.0757 47.1674 14.2502 46.5026 14.2502 45.851C14.2502 45.3191 14.1264 44.7945 13.8885 44.3187L13.6242 43.7902C13.514 43.5697 13.3771 43.3636 13.2167 43.1765C12.6011 42.4583 11.6841 42.0707 10.74 42.1297L10.4719 42.1465C9.56343 42.2033 8.58253 42.595 8.17627 43.4853C8.14893 43.5452 8.1216 43.6036 8.09476 43.6609C7.87927 44.1213 7.69492 44.5151 7.7803 45.114C7.8247 45.4254 7.90048 45.6931 8.0354 45.9339C8.17086 46.1756 8.35982 46.3795 8.61582 46.5717C8.84974 46.7475 9.06989 46.8546 9.30811 46.9161C9.54304 46.9767 9.78714 46.9906 10.0626 46.9906C10.3364 46.9906 10.6724 46.9807 10.9965 46.9254C11.3173 46.8707 11.6482 46.7681 11.8956 46.5674C12.24 46.288 12.4016 45.9335 12.4214 45.5524C12.4408 45.1786 12.3237 44.7906 12.1349 44.4281C11.9993 44.168 11.8275 43.9624 11.6079 43.816C11.3884 43.6698 11.1325 43.5904 10.8404 43.5651C10.4612 43.5322 10.1506 43.6303 9.9043 43.7874C9.72778 43.8999 9.61322 44.0518 9.56417 44.2262C9.51582 44.3981 9.53556 44.5757 9.59742 44.7366C9.71965 45.0545 10.0156 45.3356 10.3831 45.458L10.5035 45.0969C10.2358 45.0077 10.0312 44.8039 9.95275 44.6C9.91429 44.4999 9.90869 44.4073 9.93064 44.3293C9.95189 44.2537 10.0033 44.1758 10.109 44.1084C10.2897 43.9931 10.5175 43.9192 10.8075 43.9443C11.0495 43.9653 11.2408 44.0289 11.3968 44.1329C11.5529 44.2368 11.6851 44.3888 11.7972 44.604C11.967 44.9299 12.056 45.2491 12.0412 45.5327C12.0269 45.809 11.9141 46.0621 11.6558 46.2717C11.4829 46.4119 11.2279 46.4997 10.9325 46.5501C10.6404 46.5999 10.3299 46.6099 10.0626 46.6099C9.79682 46.6099 9.59106 46.5959 9.40324 46.5475C9.2187 46.4998 9.04323 46.4167 8.84445 46.2674C8.62126 46.0997 8.47182 45.934 8.36752 45.7478C8.2627 45.5607 8.19738 45.3422 8.15719 45.0603C8.08851 44.5785 8.22449 44.2859 8.44052 43.8211C8.46677 43.7646 8.49421 43.7056 8.52261 43.6434C8.84489 42.9371 9.65256 42.5791 10.4956 42.5264L10.7637 42.5097C11.5886 42.4581 12.3898 42.7967 12.9277 43.4243C13.0678 43.5878 13.1874 43.7678 13.2837 43.9604L13.548 44.489C13.7594 44.9119 13.8695 45.3782 13.8695 45.851C13.8695 46.439 13.7119 47.0085 13.3491 47.4396C13.1741 47.6475 12.9832 47.8466 12.8041 47.98C11.9302 48.631 11.2081 48.6743 10.0577 48.7038C9.80252 48.7103 9.48516 48.6826 9.19107 48.6455C8.68719 48.5819 8.21145 48.3693 7.78933 48.0644L7.3188 47.7246C7.3079 47.7167 7.29646 47.7102 7.28465 47.7049C6.83575 47.151 6.49539 46.5353 6.17588 45.7898C5.9772 45.3262 5.87476 44.8271 5.87476 44.3227C5.87476 43.463 6.17219 42.6298 6.71658 41.9644C7.26858 41.2898 7.8298 40.7544 8.58716 40.2999C9.36146 39.8354 10.1904 39.7574 11.0672 39.7574C11.9362 39.7574 12.6644 40.1067 13.4197 40.4844C14.2641 40.9066 14.784 41.627 15.3163 42.3646C15.3631 42.4295 15.41 42.4945 15.4572 42.5594C15.8042 43.0364 15.9989 43.5902 16.193 44.1418C16.23 44.2471 16.267 44.3523 16.305 44.4568C16.5456 45.1184 16.5406 45.8055 16.5356 46.4963C16.5349 46.5949 16.5342 46.6936 16.5342 46.7922C16.5342 47.4222 16.3779 48.0424 16.0792 48.5971C15.6137 49.4615 15.1411 50.2612 14.2554 50.7673C11.5835 52.2941 9.55724 52.7184 6.5946 51.9387C5.67279 51.6962 4.89026 51.0697 4.13776 50.4674C3.93049 50.3015 3.72549 50.1374 3.5205 49.9836C3.06542 49.6423 2.69261 49.2034 2.42949 48.699C2.25 48.355 2.04431 48.0035 1.83456 47.645C1.23771 46.6249 0.607967 45.5487 0.455318 44.4292C0.407513 44.0787 0.342342 43.7179 0.27626 43.3521C0.0981674 42.3662 -0.0865555 41.3435 0.0441322 40.3851C0.0970078 39.9974 0.136135 39.5988 0.175583 39.1969C0.268646 38.2487 0.363487 37.2824 0.644852 36.3982L1.87746 32.5242L3.17577 28.6293C7.72818 14.276 14.0105 10.2652 24.0046 10.6282C26.3274 10.7125 28.3198 11.8849 30.3373 13.0719C31.5218 13.7689 32.715 14.471 33.9888 14.9609C34.4042 15.1207 34.8454 15.2026 35.2904 15.2026H35.4239C36.0162 15.2026 36.5967 15.0362 37.099 14.7222L37.1312 14.7021C37.6033 14.407 37.9848 13.9874 38.2338 13.4895V11.2053Z" fill="url(#paint0_linear_527_3096)"/>
    <path d="M27.1764 25.3371L33.3358 24.5474C33.4277 24.5356 33.5175 24.5111 33.6026 24.4747L34.3232 24.1658C34.6259 24.0361 34.8453 23.7657 34.9099 23.4428L34.9578 23.203C34.9837 23.0735 34.9837 22.9402 34.9578 22.8108L34.9263 22.653C34.8529 22.2859 34.5805 21.9905 34.2204 21.8876L33.6985 21.7385C33.551 21.6964 33.3958 21.6887 33.2449 21.7161L29.3754 22.4197C29.3163 22.4304 29.2565 22.4358 29.1965 22.4358H25.4294C25.3365 22.4358 25.244 22.4488 25.1547 22.4743L24.2532 22.7319C24.0602 22.787 23.8882 22.899 23.7597 23.0532L23.0795 23.8694C23.0301 23.9287 22.9878 23.9934 22.9533 24.0624L22.6302 24.7086C22.5052 24.9585 22.4905 25.2493 22.5896 25.5105L26.5189 35.8696C26.5861 36.0468 26.7023 36.2012 26.8539 36.3149L27.1763 36.5567C27.3065 36.6544 27.3832 36.8077 27.3832 36.9705C27.3832 37.0508 27.4019 37.13 27.4378 37.2018L28.8955 40.1172C29.0232 40.3727 29.0356 40.6706 28.9295 40.9358L28.7296 41.4355C28.7203 41.4588 28.708 41.4807 28.693 41.5008C28.525 41.7247 28.7461 42.0314 29.0116 41.9429L29.2082 41.8774C29.2598 41.8602 29.3067 41.8312 29.3451 41.7928L29.8421 41.2958C29.9766 41.1613 30.07 40.9913 30.1112 40.8056L30.1961 40.4237L30.3441 40.8995L30.0907 42.04C30.0656 42.1528 30.1206 42.2682 30.2239 42.3199C30.34 42.378 30.4813 42.3382 30.5501 42.2281L31.1869 41.2093C31.3119 41.0092 31.3622 40.7714 31.3288 40.5379L31.1901 39.5671L30.4743 36.8827C30.4446 36.7713 30.4482 36.6536 30.4846 36.5442L30.5541 36.3359C30.5929 36.2194 30.7019 36.1408 30.8247 36.1408C31.0103 36.1408 31.1465 35.9664 31.1015 35.7863L31.0439 35.556C31.0155 35.4424 30.9458 35.3435 30.8484 35.2785L30.1064 34.7839C29.9442 34.6758 29.7537 34.6181 29.5587 34.6181C29.2657 34.6181 28.9878 34.4879 28.8003 34.2628L28.2858 33.6454C28.1927 33.5338 28.1252 33.4033 28.0877 33.2629L27.3832 30.6208L26.3356 26.5799C26.1844 25.997 26.579 25.4137 27.1764 25.3371Z" fill="#9BA1A6"/>
    <path fill-rule="evenodd" clip-rule="evenodd" d="M37.0854 5.11619V1.93261C37.0854 1.17518 40.2694 1.69133 41.2836 1.87496C43.8326 2.33646 46.4742 3.54859 48.7975 4.63538C49.8904 5.14667 51.5836 6.31881 52.45 6.93801C53.261 7.51757 54.205 7.90522 55.1348 8.28705C55.4271 8.40705 55.7179 8.52647 56.0028 8.6511C57.1747 9.16383 58.1524 10.0373 58.7933 11.1444L60.851 14.6986C61.3484 15.5578 61.6743 16.5285 61.9952 17.4843C62.1174 17.8481 62.2388 18.2097 62.3686 18.5622C62.8887 19.9737 62.5959 21.5565 61.6053 22.6886C58.7672 25.9322 53.9294 26.3726 49.6575 26.7615C48.9246 26.8282 48.2084 26.8934 47.5218 26.971C46.6954 26.3955 45.7309 25.9958 44.6776 25.8313C42.3851 25.4731 40.4141 23.9811 39.5842 21.8144C39.2146 20.8494 38.8496 19.8256 38.5973 18.9501C37.0945 13.7358 37.0958 5.13592 37.0958 5.13592L37.0854 5.11619Z" fill="url(#paint1_linear_527_3096)"/>
    <path d="M48.0366 26.4923L41.772 24.5781C40.5878 24.2163 39.6379 23.3264 39.1997 22.1683L36.7135 15.5975C36.4556 14.9161 36.0165 14.318 35.4436 13.8678L35.3063 13.7599C33.8214 12.5932 33.3798 10.5334 34.2561 8.86053L34.6253 8.15573C35.1805 7.09574 35.0017 5.80017 34.18 4.93022C32.7856 3.4537 33.3751 1.03048 35.292 0.359562L35.7172 0.210729C36.1145 0.0717035 36.535 0.0147603 36.9538 0.0558182C39.8305 0.337817 51.7144 1.82036 56.4933 7.40563C58.0097 9.17789 59.4756 12.1404 60.1667 13.6345C60.4453 14.2368 60.8505 14.7729 61.3686 15.1875L61.6316 15.3979C62.5805 16.1569 63.1328 17.3062 63.1328 18.5213V19.4919C63.1328 20.4276 62.8047 21.3337 62.2057 22.0526L61.4225 22.9924C60.8747 23.6497 60.1306 24.1141 59.2994 24.3173L50.1553 26.5525C49.4565 26.7233 48.7245 26.7025 48.0366 26.4923Z" fill="#A9B0B7"/>
    <path fill-rule="evenodd" clip-rule="evenodd" d="M48.3032 21.7539C48.5831 21.9106 48.8984 22.0244 49.2231 22.0175C49.3899 22.0139 49.5745 22.0119 49.7626 22.0108C50.7485 22.0053 51.7369 21.9598 52.7206 21.8441L53.0635 21.8037C54.3815 21.6487 55.7107 21.6123 57.0352 21.6951L58.5908 21.7923L61.9337 22.4609L62.0215 22.0219L58.6489 21.3474L57.0631 21.2483C55.7119 21.1638 54.3558 21.2009 53.0112 21.3591L52.6683 21.3995C51.7054 21.5127 50.7342 21.5577 49.7601 21.5631C49.5706 21.5642 49.3834 21.5663 49.2136 21.5699C48.9977 21.5745 48.7629 21.4982 48.5218 21.3632C48.2821 21.2291 48.0506 21.0451 47.8461 20.8549C47.6423 20.6654 47.4701 20.4745 47.3487 20.3305C47.2882 20.2587 47.2406 20.199 47.2084 20.1577C47.1924 20.137 47.1801 20.1209 47.1721 20.1102L47.1632 20.0983L47.1612 20.0955L47.1608 20.095C47.1608 20.095 47.1608 20.095 46.9799 20.2268C46.7989 20.3585 46.7989 20.3586 46.7989 20.3586L46.7993 20.3591L46.8002 20.3603L46.8032 20.3644L46.8141 20.379C46.8236 20.3916 46.8373 20.4097 46.855 20.4324C46.8903 20.4779 46.9416 20.5423 47.0065 20.6192C47.1359 20.7726 47.3206 20.9777 47.5413 21.1828C47.7612 21.3873 48.0218 21.5964 48.3032 21.7539Z" fill="#596068"/>
    <ellipse cx="50.1851" cy="12.6179" rx="6.80324" ry="6.80324" fill="#9BA1A6"/>
    <ellipse cx="50.185" cy="12.6179" rx="5.66937" ry="5.66937" fill="#F9FCFE"/>
    <ellipse cx="50.1849" cy="12.6178" rx="4.53549" ry="4.53549" fill="#F0DF42"/>
    <ellipse cx="50.1848" cy="12.6179" rx="3.40162" ry="3.40162" fill="#222529"/>
    <ellipse cx="52.0753" cy="9.97219" rx="0.755916" ry="0.755916" fill="white"/>
    <ellipse cx="59.7299" cy="19.5292" rx="0.223847" ry="0.447694" transform="rotate(-23.9283 59.7299 19.5292)" fill="black"/>
    <path d="M16.0705 28.3781L8.0992 32.3638C7.89174 32.4675 7.7268 32.6401 7.6326 32.8521L7.15081 33.9361C7.06385 34.1317 7.04199 34.3501 7.08843 34.5591L7.27144 35.3827C7.34944 35.7337 7.60987 36.0158 7.95354 36.1215L9.40499 36.5681C9.69975 36.6588 10.0199 36.6084 10.2725 36.4316L11.7756 35.3794L14.5248 33.1801C14.5952 33.1238 14.6728 33.0773 14.7556 33.0418L15.799 32.5946C15.8982 32.5521 16.0133 32.5742 16.0896 32.6505C16.1311 32.692 16.1575 32.7462 16.1648 32.8044L16.3314 34.1372C16.3397 34.2038 16.3413 34.271 16.3362 34.3379L16.1536 36.7118L15.9817 38.9468C15.9696 39.1043 15.9949 39.2624 16.0556 39.4081L16.915 41.4705L18.0571 43.5644L18.8185 44.8968L19.0802 45.2895C19.1368 45.3743 19.262 45.3735 19.3186 45.2886C19.3965 45.1718 19.5798 45.2251 19.5798 45.3655C19.5798 45.4266 19.6189 45.4809 19.6769 45.5002L20.0136 45.6124C20.0924 45.6387 20.1785 45.603 20.2156 45.5288L20.2561 45.4477C20.3247 45.3105 20.5316 45.3593 20.5316 45.5128C20.5316 45.5931 20.5967 45.6582 20.677 45.6582H20.9123C21.1225 45.6582 21.293 45.4877 21.293 45.2775V44.8968V43.5553C21.293 43.4354 21.2714 43.3165 21.2293 43.2042L20.2146 40.4982C20.1725 40.386 20.1509 40.267 20.1509 40.1471V39.0862C20.1509 39.0262 20.1455 38.9663 20.1348 38.9073L19.7957 37.0427C19.7788 36.9495 19.7487 36.8592 19.7063 36.7744L19.2542 35.8702C19.2176 35.7971 19.1902 35.7198 19.1724 35.6399L18.8423 34.1541C18.8264 34.0829 18.8185 34.0102 18.8185 33.9372V31.1918V29.5653C18.8185 29.384 18.7692 29.2062 18.6759 29.0508L18.3972 28.5863C18.2994 28.4232 18.1571 28.2914 17.987 28.2063L17.8339 28.1298C17.6102 28.0179 17.3526 27.994 17.112 28.0627L16.243 28.311C16.1835 28.328 16.1258 28.3505 16.0705 28.3781Z" fill="#9BA1A6"/>
    <defs>
        <linearGradient id="paint0_linear_527_3096" x1="27.3818" y1="10.606" x2="31.7169" y2="44.5869" gradientUnits="userSpaceOnUse">
            <stop stop-color="#DFE2E5"/>
            <stop offset="0.375" stop-color="#AEB5BC"/>
            <stop offset="0.526042" stop-color="#AEB5BC"/>
            <stop offset="1" stop-color="#596068"/>
        </linearGradient>
        <linearGradient id="paint1_linear_527_3096" x1="54.5033" y1="19.3851" x2="-22.5846" y2="67.0319" gradientUnits="userSpaceOnUse">
            <stop stop-color="#AEB5BC"/>
            <stop offset="1" stop-color="#596068"/>
        </linearGradient>
    </defs>
</svg>