<svg width="40" height="46" viewBox="0 0 40 46" fill="none" xmlns="http://www.w3.org/2000/svg">
    <path d="M37.594 6.0908L32.4386 6.66741L34.1951 10.0098L37.594 6.0908Z" fill="#596068"/>
    <path d="M38.2002 2.93351L31.129 5.88213L33.3961 8.90153L38.2002 2.93351Z" fill="#596068"/>
    <path d="M2.40595 6.01512L7.56143 6.59173L5.80495 9.93408L2.40595 6.01512Z" fill="#596068"/>
    <path d="M1.79976 2.85782L8.87104 5.80645L6.60393 8.82585L1.79976 2.85782Z" fill="#596068"/>
    <path d="M3.758 16.6432C3.758 7.74792 10.9691 0.536865 19.8643 0.536865C28.7596 0.536865 35.9707 7.74792 35.9707 16.6432V27.3808C35.9707 36.2761 28.7596 43.4871 19.8643 43.4871C10.9691 43.4871 3.758 36.2761 3.758 27.3808V16.6432Z" fill="#596068"/>
    <path fill-rule="evenodd" clip-rule="evenodd" d="M35.9706 16.6435C35.9706 7.74817 28.7596 0.537109 19.8643 0.537109C10.969 0.537109 3.75793 7.74817 3.75793 16.6435V27.381C3.75793 29.1664 4.04844 30.884 4.58477 32.489L10.2298 26.844V40.2892C12.9166 42.2979 16.2516 43.4874 19.8643 43.4874C23.4901 43.4874 26.8361 42.2893 29.528 40.2673V26.8441L35.1511 32.4672C35.6828 30.8684 35.9706 29.1583 35.9706 27.381V16.6435Z" fill="#AEB5BC"/>
    <path fill-rule="evenodd" clip-rule="evenodd" d="M13.6154 42.2299C15.5368 43.0395 17.6483 43.487 19.8642 43.487C23.625 43.487 27.0847 42.198 29.8257 40.0378V40.0376C27.0847 42.1979 23.6249 43.4869 19.8641 43.4869C17.6482 43.4869 15.5368 43.0394 13.6154 42.2299ZM35.0203 32.8436C35.0566 32.7428 35.092 32.6415 35.1264 32.5399L19.864 17.2775L4.60186 32.5397C4.05458 30.9201 3.75787 29.185 3.75787 27.3806V16.6431C3.75787 12.3461 5.44055 8.44217 8.18293 5.55422L19.8641 17.2354L31.5454 5.55415C30.9984 4.97807 30.4092 4.44242 29.7827 3.95215C33.5496 6.90025 35.9706 11.4889 35.9706 16.6431V27.3806C35.9706 29.2984 35.6354 31.1379 35.0204 32.8437L35.0203 32.8436Z" fill="#DFE2E5"/>
    <path d="M19.8645 23.9299L17.5397 20.306L22.1892 20.306L19.8645 23.9299Z" fill="#222529"/>
    <rect x="17.1801" y="45.4053" width="0.805317" height="4.8319" rx="0.402659" transform="rotate(-180 17.1801 45.4053)" fill="#596068"/>
    <rect x="15.838" y="45.4053" width="0.805317" height="4.8319" rx="0.402659" transform="rotate(-180 15.838 45.4053)" fill="#596068"/>
    <rect x="14.4958" y="45.4053" width="0.805317" height="4.8319" rx="0.402659" transform="rotate(-180 14.4958 45.4053)" fill="#596068"/>
    <rect x="13.1536" y="45.4053" width="0.805317" height="4.8319" rx="0.402659" transform="rotate(-180 13.1536 45.4053)" fill="#596068"/>
    <rect x="26.8439" y="45.4053" width="0.805317" height="4.8319" rx="0.402659" transform="rotate(-180 26.8439 45.4053)" fill="#596068"/>
    <rect x="25.5018" y="45.4053" width="0.805317" height="4.8319" rx="0.402659" transform="rotate(-180 25.5018 45.4053)" fill="#596068"/>
    <rect x="24.1595" y="45.4053" width="0.805317" height="4.8319" rx="0.402659" transform="rotate(-180 24.1595 45.4053)" fill="#596068"/>
    <rect x="22.8173" y="45.4053" width="0.805317" height="4.8319" rx="0.402659" transform="rotate(-180 22.8173 45.4053)" fill="#596068"/>
    <g clip-path="url(#clip0_4856_167870)">
        <path d="M19.8694 25.5071C19.7496 25.5141 19.6324 25.5452 19.5248 25.5984L14.8585 27.8241C14.6148 27.9401 14.4377 28.1608 14.377 28.4237L13.2348 33.4192C13.1803 33.6536 13.2243 33.8994 13.3604 34.1004C13.3763 34.1247 13.393 34.1481 13.4106 34.1707L16.6346 38.1793C16.805 38.3887 17.0608 38.5088 17.3304 38.5076H22.5013C22.7718 38.508 23.028 38.382 23.198 38.1756L26.4203 34.1661C26.5895 33.9568 26.6527 33.6804 26.5878 33.4183L25.4381 28.4187C25.3773 28.1557 25.1994 27.9351 24.9566 27.8191L20.2977 25.5988C20.1635 25.5326 20.0148 25.501 19.8652 25.5071H19.8694Z" fill="#326CE5"/>
        <path d="M19.9121 27.2095C19.7513 27.2208 19.6295 27.3585 19.6379 27.5193V27.598C19.6454 27.6872 19.6588 27.7755 19.6764 27.8631C19.7021 28.0306 19.7113 28.2003 19.704 28.3697C19.6881 28.4254 19.6563 28.4756 19.6128 28.5141L19.6065 28.6322C19.4369 28.6464 19.2686 28.6724 19.1028 28.7101C18.4052 28.8675 17.7701 29.2293 17.2798 29.7505L17.1793 29.6794C17.124 29.6961 17.0646 29.6898 17.0139 29.6626C16.878 29.562 16.7522 29.4484 16.6383 29.3235C16.5811 29.2551 16.5201 29.1901 16.4554 29.1288L16.3934 29.0794C16.3381 29.035 16.2703 29.0094 16.1996 29.0061C16.1573 29.0039 16.1152 29.0116 16.0765 29.0288C16.0379 29.046 16.0039 29.0721 15.9772 29.1049C15.8826 29.2376 15.9136 29.4214 16.0459 29.5165L16.1037 29.5625C16.178 29.612 16.2552 29.6572 16.3348 29.6978C16.483 29.7803 16.6229 29.877 16.7527 29.9909C16.7859 30.0382 16.8051 30.0939 16.8083 30.1516L16.8996 30.2354C16.4068 30.9748 16.2046 31.8704 16.331 32.7501L16.2138 32.7836C16.1832 32.8321 16.1426 32.8736 16.094 32.9042C15.9305 32.9478 15.763 32.9755 15.5941 32.9866C15.5045 32.9885 15.415 32.9954 15.3262 33.0076L15.252 33.0243H15.2437C15.1922 33.0315 15.1438 33.0527 15.1037 33.0858C15.0637 33.1188 15.0336 33.1623 15.0168 33.2114C15 33.2606 14.9972 33.3134 15.0086 33.364C15.0201 33.4147 15.0453 33.4612 15.0816 33.4983C15.1183 33.5352 15.1645 33.5612 15.215 33.5734C15.2656 33.5856 15.3186 33.5835 15.368 33.5674H15.3735L15.4488 33.559C15.5338 33.5339 15.6176 33.5029 15.6992 33.4677C15.8562 33.4049 16.0191 33.3568 16.1857 33.3254C16.2435 33.3287 16.2988 33.3484 16.3457 33.3819L16.4713 33.3609C16.7434 34.2055 17.3154 34.921 18.0791 35.3719L18.028 35.4787C18.0514 35.5277 18.0602 35.5821 18.0531 35.6361C17.984 35.7961 17.8995 35.9493 17.8006 36.0934C17.7464 36.1648 17.6964 36.2393 17.6508 36.3165L17.6152 36.3919C17.5893 36.4367 17.5764 36.4877 17.5778 36.5394C17.5791 36.5911 17.5948 36.6414 17.6229 36.6848C17.6511 36.7281 17.6907 36.7629 17.7373 36.7851C17.784 36.8074 17.8359 36.8164 17.8873 36.811C17.9389 36.8052 17.9878 36.7852 18.0287 36.7533C18.0695 36.7214 18.1008 36.6787 18.1189 36.6301L18.1536 36.5589C18.1854 36.4752 18.2122 36.3898 18.234 36.3035C18.3081 36.1206 18.3483 35.9242 18.4496 35.8028C18.4827 35.7717 18.5245 35.7512 18.5694 35.7442L18.6322 35.6299C19.46 35.9481 20.3761 35.9503 21.2055 35.6361L21.2612 35.7429C21.3181 35.7513 21.3692 35.7827 21.4035 35.8287C21.4822 35.9786 21.5459 36.1356 21.5944 36.2977C21.6166 36.3844 21.6437 36.4699 21.6757 36.5535L21.7104 36.6247C21.7287 36.6731 21.76 36.7155 21.8009 36.7473C21.8418 36.779 21.8907 36.7988 21.9421 36.8045C21.9936 36.8101 22.0456 36.8015 22.0924 36.7794C22.1392 36.7574 22.179 36.7228 22.2074 36.6795C22.2355 36.636 22.251 36.5855 22.2522 36.5337C22.2534 36.4819 22.2402 36.4308 22.2141 36.386L22.1777 36.3107C22.132 36.2337 22.082 36.1595 22.0278 36.0883C21.9315 35.9493 21.8486 35.8011 21.7766 35.6458C21.7699 35.6174 21.7689 35.5879 21.7738 35.5591C21.7787 35.5304 21.7893 35.5029 21.8051 35.4783C21.7872 35.4418 21.7717 35.4042 21.7586 35.3657C22.5206 34.9114 23.09 34.1933 23.3592 33.3476L23.4782 33.3685C23.5209 33.3295 23.577 33.309 23.6343 33.3107C23.8006 33.3425 23.9634 33.3944 24.1209 33.4531C24.2025 33.4907 24.2862 33.5226 24.3712 33.5494C24.3913 33.5548 24.4206 33.5594 24.4433 33.5649H24.4487C24.4981 33.5808 24.551 33.5827 24.6014 33.5704C24.6519 33.5581 24.6979 33.532 24.7344 33.4951C24.7709 33.4582 24.7965 33.4118 24.8082 33.3612C24.8199 33.3106 24.8174 33.2578 24.8008 33.2085C24.7839 33.1594 24.7536 33.1159 24.7134 33.0829C24.6732 33.0499 24.6246 33.0288 24.573 33.0218L24.4918 33.0025C24.403 32.9904 24.3135 32.9834 24.2239 32.9816C24.0547 32.9707 23.8872 32.9431 23.7239 32.8991C23.6737 32.8711 23.6318 32.8292 23.6033 32.7785L23.4903 32.745C23.6108 31.8658 23.4043 30.9729 22.91 30.2358L23.0088 30.1445C23.0046 30.0872 23.0235 30.0302 23.0607 29.9863C23.1893 29.8757 23.3287 29.7782 23.4752 29.6948C23.5548 29.6542 23.632 29.6091 23.7063 29.5596L23.7675 29.5102C23.8125 29.4823 23.8487 29.4422 23.8718 29.3945C23.895 29.3469 23.9042 29.2937 23.8984 29.241C23.8925 29.1884 23.8719 29.1384 23.8389 29.097C23.8059 29.0556 23.7618 29.0244 23.7118 29.0069C23.6618 28.9895 23.6079 28.9866 23.5564 28.9986C23.5048 29.0105 23.4576 29.0368 23.4204 29.0743L23.3584 29.1237C23.2938 29.1851 23.2327 29.2501 23.1754 29.3184C23.0649 29.4449 22.9426 29.56 22.8099 29.663C22.7564 29.6848 22.6978 29.6912 22.6408 29.6815L22.5348 29.7568C21.9235 29.1162 21.1 28.7185 20.2174 28.6389C20.2174 28.597 20.2119 28.5342 20.2111 28.5145C20.1638 28.4819 20.1307 28.4321 20.1198 28.3755C20.114 28.2065 20.1247 28.0372 20.1516 27.8702C20.1696 27.7822 20.1822 27.6943 20.1901 27.6051V27.5214C20.1985 27.3606 20.0771 27.2229 19.9159 27.2116L19.9121 27.2095ZM19.5629 29.3725L19.4792 30.835H19.4729C19.4687 30.9254 19.4156 31.0024 19.3339 31.046C19.2523 31.0895 19.1555 31.0765 19.0827 31.0234L17.8831 30.1734C18.2649 29.7984 18.7439 29.5375 19.2661 29.4202C19.3641 29.3993 19.4629 29.3833 19.5621 29.3725H19.5629ZM20.2613 29.3725C20.8915 29.4508 21.478 29.7338 21.9319 30.178L20.7437 31.0225C20.6704 31.0812 20.5699 31.0929 20.4849 31.0527C20.3999 31.0125 20.3455 30.9271 20.3442 30.8333L20.2613 29.3725ZM17.4477 30.7236L18.5447 31.7025V31.7088C18.6129 31.7682 18.6426 31.8608 18.6225 31.9491C18.6024 32.0375 18.5346 32.1074 18.4479 32.1312V32.1354L17.0403 32.5403C16.9706 31.9061 17.1141 31.2668 17.4481 30.7232L17.4477 30.7236ZM22.3686 30.7236C22.7019 31.2658 22.8493 31.9018 22.7881 32.5353L21.3784 32.1291V32.1237C21.2905 32.0998 21.2235 32.0299 21.2038 31.9416C21.1841 31.8532 21.2134 31.7615 21.2817 31.7012L22.3703 30.7269L22.3686 30.7236ZM19.6873 31.7787H20.1361L20.4104 32.1271L20.3107 32.5625L19.9075 32.7564L19.5035 32.5625L19.4084 32.1271L19.6873 31.7787ZM21.1251 32.967C21.1439 32.9649 21.167 32.9649 21.1816 32.967L22.6332 33.2119C22.4239 33.8148 22.0106 34.3298 21.4714 34.6744L20.9103 33.3161C20.8949 33.2797 20.8884 33.2401 20.8915 33.2006C20.8946 33.1612 20.9071 33.1231 20.928 33.0895C20.9489 33.0558 20.9775 33.0277 21.0115 33.0075C21.0455 32.9873 21.0839 32.9755 21.1234 32.9732L21.1251 32.967ZM18.687 32.9732C18.7691 32.9745 18.8449 33.0168 18.8897 33.0854C18.9345 33.1541 18.9416 33.2404 18.9094 33.3157V33.3212L18.3516 34.6685C17.8178 34.3265 17.4125 33.8177 17.1969 33.2211L18.6359 32.977C18.6519 32.9753 18.6682 32.9753 18.6845 32.977L18.687 32.9732ZM19.9029 33.5594C19.9487 33.558 19.9939 33.5693 20.0336 33.592C20.0733 33.6148 20.1059 33.6482 20.1278 33.6884H20.1332L20.8425 34.9683L20.559 35.0521C20.0373 35.1714 19.4926 35.1433 18.9856 34.9708L19.6973 33.6909C19.7405 33.6155 19.82 33.5695 19.9067 33.5674L19.9029 33.5594Z" fill="white" stroke="white" stroke-width="0.11"/>
    </g>
    <circle cx="10.4682" cy="17.114" r="6.75732" fill="#596068"/>
    <circle cx="10.4681" cy="17.1133" r="5.6311" fill="#E8EDF2"/>
    <circle cx="10.4682" cy="17.1133" r="4.50488" fill="#52BAE6"/>
    <circle cx="10.4681" cy="17.1135" r="3.37866" fill="#222529"/>
    <circle cx="12.3454" cy="14.4857" r="0.750813" fill="white"/>
    <circle cx="29.1644" cy="17.1133" r="6.75732" fill="#596068"/>
    <circle cx="29.1645" cy="17.1133" r="5.6311" fill="#E8EDF2"/>
    <circle cx="29.1645" cy="17.1133" r="4.50488" fill="#52BAE6"/>
    <circle cx="29.1648" cy="17.1133" r="3.37866" fill="#222529"/>
    <circle cx="31.042" cy="14.4854" r="0.750813" fill="white"/>
    <defs>
        <clipPath id="clip0_4856_167870">
            <rect width="13.3983" height="13.3983" fill="white" transform="translate(13.2122 25.3079)"/>
        </clipPath>
    </defs>
</svg>