<svg width="190" height="181" viewBox="0 0 190 181" fill="none" xmlns="http://www.w3.org/2000/svg">
    <path d="M99.8459 34.4059H57.8106C56.8527 34.407 55.9344 34.7899 55.2571 35.4705C54.5797 36.151 54.1987 37.0737 54.1975 38.0362V131.904L53.7158 132.052L43.4038 135.225C42.9151 135.375 42.3873 135.323 41.9361 135.083C41.485 134.842 41.1474 134.431 40.9976 133.94L10.3243 33.2708C10.175 32.7797 10.2259 32.2492 10.4658 31.7959C10.7056 31.3425 11.1148 31.0034 11.6034 30.853L27.494 25.9641L73.5616 11.7962L89.4521 6.90732C89.6939 6.83254 89.9481 6.80641 90.1999 6.83042C90.4518 6.85444 90.6965 6.92812 90.92 7.04727C91.1436 7.16641 91.3415 7.32867 91.5025 7.52476C91.6636 7.72085 91.7845 7.94692 91.8585 8.19004L99.699 33.9218L99.8459 34.4059Z" fill="#F2F2F2"/>
    <path d="M186.46 136.646C187.559 145.469 169.076 161.859 84.0814 171.602C53.2187 164.363 9.22395 172.308 8.12564 163.485C7.02734 154.662 18.8529 140.137 105.754 136.431C137.04 129.891 185.362 127.823 186.46 136.646Z" fill="#EEF7FC"/>
    <path d="M109.019 33.9232L99.5693 2.91048C99.4121 2.39375 99.1551 1.91321 98.8129 1.49632C98.4708 1.07944 98.0503 0.734369 97.5754 0.480841C97.1005 0.227313 96.5805 0.0702897 96.0452 0.0187514C95.5099 -0.0327869 94.9697 0.0221692 94.4555 0.180474L72.1143 7.05148L26.0492 21.2219L3.70798 28.0953C2.67012 28.4155 1.80111 29.1364 1.29169 30.0997C0.782276 31.063 0.674068 32.19 0.990828 33.2334L33.2875 139.222C33.5448 140.064 34.064 140.802 34.7689 141.326C35.4738 141.85 36.3273 142.133 37.2042 142.134C37.61 142.134 38.0136 142.073 38.4013 141.952L53.7162 137.242L54.1979 137.092V136.587L53.7162 136.734L38.2592 141.49C37.3431 141.77 36.3536 141.675 35.5079 141.223C34.6621 140.772 34.029 140.002 33.7476 139.082L1.45341 33.0906C1.31396 32.6349 1.26536 32.156 1.31039 31.6813C1.35541 31.2067 1.49318 30.7456 1.7158 30.3245C1.93842 29.9035 2.24153 29.5307 2.60776 29.2275C2.97398 28.9243 3.39614 28.6966 3.85005 28.5576L26.1913 21.6841L72.2565 7.51617L94.5977 0.64274C94.942 0.53717 95.2999 0.483342 95.6599 0.483005C96.4324 0.484748 97.1841 0.734988 97.8048 1.19707C98.4255 1.65916 98.8827 2.3088 99.1093 3.05086L108.515 33.9232L108.665 34.4072H109.166L109.019 33.9232Z" fill="#3F3D56"/>
    <path d="M30.3617 30.9324C29.8974 30.932 29.4455 30.7822 29.0722 30.5049C28.6989 30.2276 28.4239 29.8374 28.2874 29.3915L25.1849 19.2092C25.1015 18.9357 25.0726 18.6484 25.0997 18.3636C25.1269 18.0789 25.2096 17.8023 25.3432 17.5497C25.4768 17.297 25.6585 17.0733 25.8782 16.8913C26.0978 16.7093 26.351 16.5725 26.6232 16.4888L69.0027 3.4526C69.5524 3.28404 70.1463 3.34153 70.6539 3.61245C71.1615 3.88337 71.5415 4.34558 71.7103 4.89764L74.8128 15.0801C74.9805 15.6324 74.9232 16.2291 74.6536 16.7391C74.384 17.2491 73.924 17.6309 73.3746 17.8006L30.9951 30.8368C30.7898 30.9001 30.5764 30.9323 30.3617 30.9324Z" fill="#52BAE6"/>
    <rect x="54.5898" y="129" width="102" height="23" rx="3" fill="white"/>
    <path d="M46.6144 10.8769C49.275 10.8769 51.4319 8.70979 51.4319 6.03649C51.4319 3.36318 49.275 1.19604 46.6144 1.19604C43.9537 1.19604 41.7969 3.36318 41.7969 6.03649C41.7969 8.70979 43.9537 10.8769 46.6144 10.8769Z" fill="#52BAE6"/>
    <path d="M46.6151 9.10143C48.2999 9.10143 49.6657 7.72913 49.6657 6.03631C49.6657 4.34349 48.2999 2.97119 46.6151 2.97119C44.9303 2.97119 43.5645 4.34349 43.5645 6.03631C43.5645 7.72913 44.9303 9.10143 46.6151 9.10143Z" fill="white"/>
    <path d="M145.971 140.896H64.5553C64.0124 140.895 63.492 140.678 63.1082 140.293C62.7243 139.907 62.5084 139.384 62.5078 138.839V40.8196C62.5084 40.2742 62.7243 39.7513 63.1082 39.3657C63.492 38.98 64.0124 38.7631 64.5553 38.7625H145.971C146.514 38.7631 147.035 38.98 147.418 39.3657C147.802 39.7513 148.018 40.2742 148.019 40.8196V138.839C148.018 139.384 147.802 139.907 147.418 140.293C147.035 140.678 146.514 140.895 145.971 140.896Z" fill="#E6E6E6"/>
    <path d="M108.514 33.9219H57.8097C56.7242 33.9234 55.6835 34.3574 54.9159 35.1287C54.1483 35.8999 53.7164 36.9455 53.7148 38.0362V136.733L54.1966 136.585V38.0362C54.1978 37.0738 54.5788 36.1511 55.2561 35.4705C55.9335 34.7899 56.8518 34.4071 57.8097 34.4059H108.663L108.514 33.9219ZM152.715 33.9219H57.8097C56.7242 33.9234 55.6835 34.3574 54.9159 35.1287C54.1483 35.8999 53.7164 36.9455 53.7148 38.0362V148.882C53.7164 149.973 54.1483 151.019 54.9159 151.79C55.6835 152.561 56.7242 152.995 57.8097 152.997H152.715C153.8 152.995 154.841 152.561 155.609 151.79C156.376 151.019 156.808 149.973 156.81 148.882V38.0362C156.808 36.9455 156.376 35.8999 155.609 35.1287C154.841 34.3574 153.8 33.9234 152.715 33.9219ZM156.328 148.882C156.327 149.845 155.946 150.768 155.268 151.448C154.591 152.129 153.673 152.512 152.715 152.513H57.8097C56.8518 152.512 55.9335 152.129 55.2561 151.448C54.5788 150.768 54.1978 149.845 54.1966 148.882V38.0362C54.1978 37.0738 54.5788 36.1511 55.2561 35.4705C55.9335 34.7899 56.8518 34.4071 57.8097 34.4059H152.715C153.673 34.4071 154.591 34.7899 155.268 35.4705C155.946 36.1511 156.327 37.0738 156.328 38.0362V148.882Z" fill="#3F3D56"/>
    <path d="M127.423 44.571H83.1015C82.5267 44.5704 81.9757 44.3407 81.5693 43.9323C81.1628 43.524 80.9342 42.9703 80.9336 42.3928V31.7439C80.9342 31.1664 81.1629 30.6127 81.5693 30.2044C81.9757 29.796 82.5267 29.5663 83.1015 29.5657H127.423C127.997 29.5663 128.548 29.796 128.955 30.2044C129.361 30.6127 129.59 31.1664 129.591 31.7439V42.3928C129.59 42.9703 129.361 43.524 128.955 43.9323C128.548 44.3407 127.997 44.5704 127.423 44.571Z" fill="#52BAE6"/>
    <path d="M105.263 30.2917C107.923 30.2917 110.08 28.1246 110.08 25.4513C110.08 22.778 107.923 20.6108 105.263 20.6108C102.602 20.6108 100.445 22.778 100.445 25.4513C100.445 28.1246 102.602 30.2917 105.263 30.2917Z" fill="#52BAE6"/>
    <path d="M105.262 28.3995C106.883 28.3995 108.197 27.0795 108.197 25.4512C108.197 23.8229 106.883 22.5029 105.262 22.5029C103.642 22.5029 102.328 23.8229 102.328 25.4512C102.328 27.0795 103.642 28.3995 105.262 28.3995Z" fill="white"/>
</svg>