<svg width="189" height="181" viewBox="0 0 189 181" fill="none" xmlns="http://www.w3.org/2000/svg">
    <path d="M99.3459 34.4059H57.3106C56.3527 34.407 55.4344 34.7899 54.7571 35.4705C54.0797 36.151 53.6987 37.0737 53.6975 38.0362V131.904L53.2158 132.052L42.9038 135.225C42.4151 135.375 41.8873 135.323 41.4361 135.083C40.985 134.842 40.6474 134.431 40.4976 133.94L9.82432 33.2708C9.67505 32.7797 9.72592 32.2492 9.96577 31.7959C10.2056 31.3425 10.6148 31.0034 11.1034 30.853L26.994 25.9641L73.0616 11.7962L88.9521 6.90732C89.1939 6.83254 89.4481 6.80641 89.6999 6.83042C89.9518 6.85444 90.1965 6.92812 90.42 7.04727C90.6436 7.16641 90.8415 7.32867 91.0025 7.52476C91.1636 7.72085 91.2845 7.94692 91.3585 8.19004L99.199 33.9218L99.3459 34.4059Z" fill="#F2F2F2"/>
    <path d="M185.96 136.646C187.059 145.469 168.576 161.859 83.5814 171.602C52.7187 164.363 8.72395 172.308 7.62564 163.485C6.52734 154.662 18.3529 140.137 105.254 136.431C136.54 129.891 184.862 127.823 185.96 136.646Z" fill="#EEF7FC"/>
    <path d="M108.519 33.9232L99.0693 2.91048C98.9121 2.39375 98.6551 1.91321 98.3129 1.49632C97.9708 1.07944 97.5503 0.734369 97.0754 0.480841C96.6005 0.227313 96.0805 0.0702897 95.5452 0.0187514C95.0099 -0.0327869 94.4697 0.0221692 93.9555 0.180474L71.6143 7.05148L25.5492 21.2219L3.20798 28.0953C2.17012 28.4155 1.30111 29.1364 0.791695 30.0997C0.282276 31.063 0.174068 32.19 0.490828 33.2334L32.7875 139.222C33.0448 140.064 33.564 140.802 34.2689 141.326C34.9738 141.85 35.8273 142.133 36.7042 142.134C37.11 142.134 37.5136 142.073 37.9013 141.952L53.2162 137.242L53.6979 137.092V136.587L53.2162 136.734L37.7592 141.49C36.8431 141.77 35.8536 141.675 35.0079 141.223C34.1621 140.772 33.529 140.002 33.2476 139.082L0.953408 33.0906C0.813963 32.6349 0.765362 32.156 0.810388 31.6813C0.855414 31.2067 0.993178 30.7456 1.2158 30.3245C1.43842 29.9035 1.74153 29.5307 2.10776 29.2275C2.47398 28.9243 2.89614 28.6966 3.35005 28.5576L25.6913 21.6841L71.7565 7.51617L94.0977 0.64274C94.442 0.53717 94.7999 0.483342 95.1599 0.483005C95.9324 0.484748 96.6841 0.734988 97.3048 1.19707C97.9255 1.65916 98.3827 2.3088 98.6093 3.05086L108.015 33.9232L108.165 34.4072H108.666L108.519 33.9232Z" fill="#3F3D56"/>
    <path d="M29.8617 30.9324C29.3974 30.932 28.9455 30.7822 28.5722 30.5049C28.1989 30.2276 27.9239 29.8374 27.7874 29.3915L24.6849 19.2092C24.6015 18.9357 24.5726 18.6484 24.5997 18.3636C24.6269 18.0789 24.7096 17.8023 24.8432 17.5497C24.9768 17.297 25.1585 17.0733 25.3782 16.8913C25.5978 16.7093 25.851 16.5725 26.1232 16.4888L68.5027 3.4526C69.0524 3.28404 69.6463 3.34153 70.1539 3.61245C70.6615 3.88337 71.0415 4.34558 71.2103 4.89764L74.3128 15.0801C74.4805 15.6324 74.4232 16.2291 74.1536 16.7391C73.884 17.2491 73.424 17.6309 72.8746 17.8006L30.4951 30.8368C30.2898 30.9001 30.0764 30.9323 29.8617 30.9324Z" fill="#52BAE6"/>
    <rect x="54.0898" y="129" width="102" height="23" rx="3" fill="white"/>
    <path d="M46.1144 10.8769C48.775 10.8769 50.9319 8.70979 50.9319 6.03649C50.9319 3.36318 48.775 1.19604 46.1144 1.19604C43.4537 1.19604 41.2969 3.36318 41.2969 6.03649C41.2969 8.70979 43.4537 10.8769 46.1144 10.8769Z" fill="#52BAE6"/>
    <path d="M46.1151 9.10143C47.7999 9.10143 49.1657 7.72913 49.1657 6.03631C49.1657 4.34349 47.7999 2.97119 46.1151 2.97119C44.4303 2.97119 43.0645 4.34349 43.0645 6.03631C43.0645 7.72913 44.4303 9.10143 46.1151 9.10143Z" fill="white"/>
    <path d="M145.471 140.896H64.0553C63.5124 140.895 62.992 140.678 62.6082 140.293C62.2243 139.907 62.0084 139.384 62.0078 138.839V40.8196C62.0084 40.2742 62.2243 39.7513 62.6082 39.3657C62.992 38.98 63.5124 38.7631 64.0553 38.7625H145.471C146.014 38.7631 146.535 38.98 146.918 39.3657C147.302 39.7513 147.518 40.2742 147.519 40.8196V138.839C147.518 139.384 147.302 139.907 146.918 140.293C146.535 140.678 146.014 140.895 145.471 140.896Z" fill="#E6E6E6"/>
    <path d="M108.014 33.9219H57.3097C56.2242 33.9234 55.1835 34.3574 54.4159 35.1287C53.6483 35.8999 53.2164 36.9455 53.2148 38.0362V136.733L53.6966 136.585V38.0362C53.6978 37.0738 54.0788 36.1511 54.7561 35.4705C55.4335 34.7899 56.3518 34.4071 57.3097 34.4059H108.163L108.014 33.9219ZM152.215 33.9219H57.3097C56.2242 33.9234 55.1835 34.3574 54.4159 35.1287C53.6483 35.8999 53.2164 36.9455 53.2148 38.0362V148.882C53.2164 149.973 53.6483 151.019 54.4159 151.79C55.1835 152.561 56.2242 152.995 57.3097 152.997H152.215C153.3 152.995 154.341 152.561 155.109 151.79C155.876 151.019 156.308 149.973 156.31 148.882V38.0362C156.308 36.9455 155.876 35.8999 155.109 35.1287C154.341 34.3574 153.3 33.9234 152.215 33.9219ZM155.828 148.882C155.827 149.845 155.446 150.768 154.768 151.448C154.091 152.129 153.173 152.512 152.215 152.513H57.3097C56.3518 152.512 55.4335 152.129 54.7561 151.448C54.0788 150.768 53.6978 149.845 53.6966 148.882V38.0362C53.6978 37.0738 54.0788 36.1511 54.7561 35.4705C55.4335 34.7899 56.3518 34.4071 57.3097 34.4059H152.215C153.173 34.4071 154.091 34.7899 154.768 35.4705C155.446 36.1511 155.827 37.0738 155.828 38.0362V148.882Z" fill="#3F3D56"/>
    <path d="M126.923 44.571H82.6015C82.0267 44.5704 81.4757 44.3407 81.0693 43.9323C80.6628 43.524 80.4342 42.9703 80.4336 42.3928V31.7439C80.4342 31.1664 80.6629 30.6127 81.0693 30.2044C81.4757 29.796 82.0267 29.5663 82.6015 29.5657H126.923C127.497 29.5663 128.048 29.796 128.455 30.2044C128.861 30.6127 129.09 31.1664 129.091 31.7439V42.3928C129.09 42.9703 128.861 43.524 128.455 43.9323C128.048 44.3407 127.497 44.5704 126.923 44.571Z" fill="#52BAE6"/>
    <path d="M104.763 30.2917C107.423 30.2917 109.58 28.1246 109.58 25.4513C109.58 22.778 107.423 20.6108 104.763 20.6108C102.102 20.6108 99.9453 22.778 99.9453 25.4513C99.9453 28.1246 102.102 30.2917 104.763 30.2917Z" fill="#52BAE6"/>
    <path d="M104.762 28.3995C106.383 28.3995 107.697 27.0795 107.697 25.4512C107.697 23.8229 106.383 22.5029 104.762 22.5029C103.142 22.5029 101.828 23.8229 101.828 25.4512C101.828 27.0795 103.142 28.3995 104.762 28.3995Z" fill="white"/>
</svg>