<svg width="153" height="203" viewBox="0 0 153 203" fill="none" xmlns="http://www.w3.org/2000/svg">
<path d="M74.5872 60.6887L78.8979 57.3728L72.5977 58.036L69.6134 59.6939C69.6134 59.6939 68.5314 60.0891 68.2871 60.6887C67.9781 61.4471 68.9503 62.6782 68.9503 62.6782L83.8717 72.6258L84.2032 73.2889C84.2032 73.2889 84.0248 73.9386 84.2032 74.2837C84.3747 74.6152 84.7276 74.3796 85.064 74.0203L84.8664 74.2837C84.8664 74.2837 84.9933 74.7421 85.198 74.9469C85.8455 75.5943 86.8559 73.2889 86.8559 73.2889C86.8559 73.2889 85.9696 75.4201 86.8559 75.61C87.4222 75.7314 88.1823 74.9469 88.1823 74.9469L89.8402 73.2889L89.177 71.631L85.198 68.3151L74.5872 60.6887Z" fill="#596068"/>
<path d="M49.6757 69.5859L53.9863 66.27L47.6861 66.9332L44.7019 68.5911C44.7019 68.5911 43.6198 68.9863 43.3755 69.5859C43.0665 70.3443 44.0387 71.5754 44.0387 71.5754L58.9601 81.523L59.2917 82.1862C59.2917 82.1862 59.1132 82.8359 59.2917 83.1809C59.4631 83.5124 59.816 83.2768 60.1524 82.9175L59.9548 83.1809C59.9548 83.1809 60.0817 83.6393 60.2864 83.8441C60.9339 84.4916 61.9443 82.1862 61.9443 82.1862C61.9443 82.1862 61.058 84.3173 61.9443 84.5073C62.5106 84.6286 63.2707 83.8441 63.2707 83.8441L64.9286 82.1862L64.2654 80.5282L60.2864 77.2124L49.6757 69.5859Z" fill="#596068"/>
<path fill-rule="evenodd" clip-rule="evenodd" d="M47.4343 82.4737L47.775 87.7005L50.3884 87.5301L50.218 84.9167C50.3884 87.5301 50.3888 87.5301 50.3893 87.5301L50.3947 87.5297L50.4085 87.5288L50.4581 87.5254C50.5008 87.5224 50.5627 87.5181 50.6429 87.5122C50.8033 87.5004 51.037 87.4825 51.3365 87.4578C51.9356 87.4084 52.799 87.3314 53.8683 87.2205C56.0052 86.9989 58.9736 86.6408 62.3041 86.0941C68.884 85.0141 77.1821 83.1519 83.2135 79.9909C85.9797 78.5413 87.9233 76.602 89.4908 75.038C89.7575 74.7718 90.0133 74.5166 90.2605 74.2765C91.9936 72.5924 93.4794 71.4162 95.8548 70.9154C99.13 70.225 101.663 70.7754 104.313 71.9621C105.689 72.5785 107.074 73.3563 108.647 74.2561C108.763 74.3225 108.88 74.3895 108.998 74.4571C110.449 75.288 112.045 76.2017 113.794 77.0672L116.142 78.2284L118.464 73.5336L116.117 72.3724C114.516 71.5803 113.051 70.7418 111.58 69.8997C111.469 69.8363 111.358 69.7729 111.247 69.7095C109.693 68.8204 108.098 67.9181 106.454 67.1817C103.062 65.6629 99.389 64.8174 94.7743 65.7903C90.9389 66.5988 88.5773 68.6087 86.6104 70.5199C86.2954 70.826 85.9942 71.1245 85.701 71.4151C84.1322 72.9699 82.7918 74.2984 80.7822 75.3516C75.5389 78.0995 67.947 79.86 61.4557 80.9255C58.2506 81.4516 55.3881 81.797 53.328 82.0106C52.2988 82.1174 51.4721 82.191 50.9057 82.2377C50.6226 82.2611 50.4047 82.2777 50.2592 82.2884C50.1865 82.2938 50.1319 82.2976 50.0964 82.3001L50.0574 82.3027L50.0477 82.3034L47.4343 82.4737Z" fill="#877171"/>
<path fill-rule="evenodd" clip-rule="evenodd" d="M87.8507 29.5197C87.8507 28.6833 91.3663 29.2532 92.4862 29.456C95.3006 29.9656 98.2174 31.3039 100.783 32.5039C101.989 33.0685 103.859 34.3627 104.816 35.0464C105.711 35.6863 106.753 36.1143 107.78 36.5359C108.103 36.6684 108.424 36.8003 108.738 36.9379C110.032 37.504 111.112 38.4685 111.819 39.6909L114.091 43.6152C114.641 44.5639 115.001 45.6357 115.355 46.6911C115.49 47.0927 115.624 47.492 115.767 47.8812C116.341 49.4397 116.018 51.1874 114.924 52.4374C111.791 56.0188 106.449 56.5051 101.732 56.9345C100.519 57.0449 99.3472 57.1516 98.2649 57.3062C97.1552 57.4648 96.0045 57.4319 94.8674 57.3994C94.4018 57.3861 93.9385 57.3729 93.4812 57.3729H82.7848H79.7008C78.1558 57.3729 76.5809 57.6518 75.0275 57.9269C74.3491 58.047 73.6747 58.1664 73.0088 58.2616C71.8269 58.4304 70.682 58.9108 69.5624 59.3807C69.1774 59.5422 68.7955 59.7025 68.416 59.8485C66.5115 60.581 64.413 60.9655 62.349 61.3436C61.4212 61.5136 60.5004 61.6823 59.6072 61.8808C55.9248 62.6991 52.5467 64.6954 49.1961 66.6755C47.3555 67.7632 45.5232 68.846 43.6532 69.726C42.5994 70.2219 41.8325 71.0461 41.065 71.8711C40.3909 72.5955 39.7163 73.3205 38.8464 73.8242L33.4706 76.9365C31.638 78.036 30.0552 79.2742 29.4354 81.4436C29.0721 82.715 28.9335 83.9887 29.2591 85.291L30.1547 88.8736C30.8445 90.598 31.5262 92.2207 33.1223 93.3257L33.5524 93.6234C33.5686 93.642 33.5872 93.659 33.608 93.674L34.4276 94.266C35.2341 94.8484 36.1657 95.2712 37.1748 95.3985C37.6974 95.4645 38.2895 95.5178 38.7844 95.5051C40.7996 95.4536 42.2458 95.3811 43.9478 94.1132C44.3205 93.8356 44.6916 93.4435 45.0085 93.0669C45.7669 92.1658 46.0708 91.0077 46.0708 89.8727C46.0708 88.9461 45.8551 88.0322 45.4407 87.2034L44.9803 86.2826C44.7883 85.8986 44.5499 85.5396 44.2705 85.2136C43.1981 83.9625 41.6006 83.2873 39.956 83.3901L39.489 83.4193C37.9064 83.5182 36.1977 84.2007 35.49 85.7516C35.4423 85.856 35.3948 85.9577 35.348 86.0575C34.9726 86.8595 34.6515 87.5455 34.8002 88.5887C34.8775 89.1311 35.0096 89.5975 35.2446 90.017C35.4806 90.4382 35.8097 90.7932 36.2557 91.1282C36.6632 91.4342 37.0467 91.6209 37.4617 91.728C37.8709 91.8336 38.2961 91.8578 38.7759 91.8578C39.253 91.8578 39.8382 91.8405 40.4028 91.7442C40.9616 91.6489 41.5381 91.4702 41.9691 91.1205C42.5689 90.6339 42.8506 90.0164 42.8851 89.3525C42.9189 88.7013 42.7148 88.0254 42.3859 87.394C42.1498 86.9407 41.8505 86.5826 41.468 86.3277C41.0855 86.0729 40.6397 85.9346 40.1309 85.8905C39.4704 85.8333 38.9292 86.0042 38.5002 86.2778C38.1927 86.4739 37.9932 86.7383 37.9077 87.0422C37.8235 87.3416 37.8579 87.651 37.9656 87.9313C38.1786 88.4851 38.6941 88.9747 39.3342 89.1881L39.5439 88.5589C39.0776 88.4035 38.7212 88.0486 38.5846 87.6933C38.5176 87.519 38.5079 87.3577 38.5461 87.2217C38.5831 87.0901 38.6726 86.9544 38.8568 86.8369C39.1715 86.6362 39.5684 86.5074 40.0737 86.5512C40.4951 86.5877 40.8284 86.6985 41.1002 86.8796C41.3721 87.0607 41.6024 87.3255 41.7977 87.7004C42.0934 88.268 42.2484 88.8241 42.2228 89.3181C42.1978 89.7995 42.0013 90.2404 41.5513 90.6055C41.2502 90.8498 40.8059 91.0027 40.2913 91.0905C39.7824 91.1773 39.2416 91.1946 38.7759 91.1946C38.313 91.1946 37.9546 91.1703 37.6274 91.0859C37.3059 91.0029 37.0002 90.858 36.654 90.5979C36.2652 90.3059 36.0048 90.0171 35.8231 89.6929C35.6405 89.3669 35.5268 88.9863 35.4567 88.4951C35.3371 87.656 35.574 87.1463 35.9503 86.3366C35.996 86.2381 36.0438 86.1353 36.0933 86.0269C36.6547 84.7966 38.0617 84.173 39.5303 84.0812L39.9974 84.052C41.4343 83.9622 42.83 84.5521 43.767 85.6452C44.0111 85.93 44.2194 86.2437 44.3871 86.5792L44.8475 87.5C45.2159 88.2367 45.4076 89.049 45.4076 89.8727C45.4076 90.8969 45.133 91.889 44.5011 92.64C44.1963 93.0022 43.8636 93.349 43.5516 93.5814C42.0294 94.7154 40.7715 94.7909 38.7674 94.8422C38.3229 94.8536 37.7701 94.8052 37.2578 94.7406C36.38 94.6298 35.5513 94.2595 34.8159 93.7284L33.9963 93.1364C33.9774 93.1228 33.9576 93.1115 33.9372 93.1023C33.1552 92.1374 32.5622 91.0648 32.0056 89.766C31.6595 88.9584 31.481 88.089 31.481 87.2104C31.481 85.7128 31.9992 84.2613 32.9475 83.1022C33.9091 81.9269 34.8867 80.9942 36.2061 80.2027C37.5549 79.3934 38.9989 79.2576 40.5263 79.2576C42.0401 79.2576 43.3087 79.866 44.6245 80.5239C46.0954 81.2594 47.001 82.5143 47.9283 83.7994C48.0099 83.9124 48.0915 84.0256 48.1738 84.1387C48.7781 84.9696 49.1174 85.9343 49.4554 86.8952C49.5199 87.0786 49.5844 87.2619 49.6506 87.444C50.0697 88.5965 50.0611 89.7934 50.0524 90.9968C50.0511 91.1685 50.0499 91.3404 50.0499 91.5122C50.0499 92.6097 49.7775 93.69 49.2572 94.6563C48.4464 96.1621 47.623 97.5553 46.0802 98.4369C41.4257 101.097 37.896 101.836 32.735 100.478C31.1292 100.055 29.7661 98.9637 28.4552 97.9144C28.0941 97.6254 27.737 97.3395 27.3799 97.0717C26.5872 96.4771 25.9377 95.7124 25.4794 94.8339C25.1667 94.2346 24.8084 93.6222 24.443 92.9978C23.4033 91.2208 22.3063 89.346 22.0404 87.3959C21.9571 86.7852 21.8436 86.1567 21.7284 85.5195C21.4182 83.802 21.0964 82.0206 21.3241 80.3511C21.4162 79.6756 21.4843 78.9812 21.553 78.2811C21.7152 76.6294 21.8804 74.9461 22.3705 73.4057L24.5177 66.6573L26.7794 59.8724C34.7097 34.8688 45.6535 27.8819 63.0634 28.5142C67.1098 28.6612 70.5805 30.7034 74.0949 32.7713C76.1584 33.9855 78.237 35.2085 80.4559 36.062C81.1795 36.3402 81.9481 36.483 82.7234 36.483H82.9558C83.9877 36.483 84.9988 36.193 85.8739 35.6461L85.93 35.611C86.7524 35.097 87.417 34.3661 87.8507 33.4987V29.5197Z" fill="url(#paint0_linear_702_1295)"/>
<path d="M67.7548 54.2445L79.4225 52.7486C79.5144 52.7368 79.6042 52.7124 79.6893 52.6759L81.3986 51.9433C81.7013 51.8136 81.9207 51.5432 81.9853 51.2203L82.1745 50.2743C82.2004 50.1448 82.2004 50.0115 82.1745 49.8821L82.0017 49.0182C81.9282 48.651 81.6558 48.3556 81.2958 48.2527L79.7852 47.8211C79.6377 47.779 79.4825 47.7714 79.3316 47.7988L72.3548 49.0673C72.2958 49.078 72.2359 49.0834 72.1759 49.0834H65.4428C65.3499 49.0834 65.2575 49.0964 65.1681 49.1219L63.2779 49.662C63.0849 49.7171 62.913 49.8291 62.7844 49.9833L61.3981 51.647C61.3487 51.7062 61.3063 51.7709 61.2718 51.8399L60.525 53.3336C60.4001 53.5835 60.3854 53.8742 60.4844 54.1355L67.521 72.6864C67.5882 72.8636 67.7044 73.018 67.856 73.1317L68.5898 73.6821C68.8167 73.8523 68.9502 74.1193 68.9502 74.4029C68.9502 74.5427 68.9828 74.6807 69.0454 74.8058L71.7337 80.1825C71.8614 80.4379 71.8738 80.7359 71.7677 81.0011L71.2958 82.181C71.2796 82.2215 71.2581 82.2597 71.2319 82.2947C70.9393 82.6847 71.3245 83.2191 71.787 83.0649L72.1295 82.9508C72.2193 82.9208 72.301 82.8704 72.3679 82.8034L73.3865 81.7848C73.521 81.6503 73.6144 81.4803 73.6556 81.2946L73.8503 80.4183L74.1082 81.2473L73.6667 83.234C73.6231 83.4305 73.7188 83.6316 73.8988 83.7216C74.1011 83.8227 74.3472 83.7535 74.467 83.5617L75.7199 81.5571C75.845 81.357 75.8952 81.1192 75.8619 80.8857L75.582 78.9262L74.3328 74.242C74.2825 74.0531 74.2886 73.8535 74.3504 73.6681L74.4739 73.2975C74.5416 73.0945 74.7315 72.9576 74.9454 72.9576C75.2687 72.9576 75.506 72.6538 75.4276 72.3401L75.3273 71.9388C75.2778 71.7409 75.1563 71.5686 74.9866 71.4555L73.5128 70.4729C73.3485 70.3634 73.1555 70.3049 72.9581 70.3049H72.4029C72.1061 70.3049 71.8247 70.1731 71.6347 69.9451L70.4178 68.4849C70.3248 68.3732 70.2572 68.2427 70.2198 68.1023L68.9502 63.3416L66.9139 55.4873C66.7628 54.9044 67.1574 54.3211 67.7548 54.2445Z" fill="#9BA1A6"/>
<path fill-rule="evenodd" clip-rule="evenodd" d="M85.8507 18.9125V13.3667C85.8507 12.0473 91.3972 12.9464 93.164 13.2663C97.6043 14.0702 102.206 16.1818 106.253 18.075C108.157 18.9656 111.107 21.0075 112.616 22.0861C114.029 23.0958 115.673 23.771 117.293 24.4362C117.802 24.6452 118.309 24.8533 118.805 25.0704C120.846 25.9635 122.549 27.4852 123.666 29.4137L127.25 35.6051C128.117 37.1018 128.685 38.7928 129.244 40.4579C129.456 41.0916 129.668 41.7215 129.894 42.3356C130.8 44.7944 130.29 47.5517 128.564 49.5238C123.62 55.1741 115.193 55.9413 107.751 56.6188C106.761 56.709 105.788 56.7975 104.844 56.8958C103.642 56.0681 102.244 55.4932 100.718 55.2549L98.0583 54.8393C94.6994 54.3144 91.8203 52.1259 90.5766 48.9619C89.813 47.0192 89.009 44.8312 88.4845 43.0113C85.8666 33.9279 85.8688 18.9469 85.8688 18.9469L85.8507 18.9125Z" fill="url(#paint1_linear_702_1295)"/>
<path d="M105.708 56.3881L92.6215 52.3896C91.4373 52.0278 90.4875 51.1379 90.0493 49.9798L84.9103 36.3981C84.6524 35.7166 84.2133 35.1185 83.6404 34.6684L80.9036 32.518C79.3878 31.3271 78.9371 29.2244 79.8316 27.5167L81.8575 23.6491C82.6497 22.1366 82.3946 20.2879 81.2222 19.0466L79.8543 17.5982C77.8645 15.4914 78.7057 12.0337 81.4409 11.0763L83.7381 10.2723C84.2514 10.0927 84.7814 10.0181 85.3229 10.0687C89.7454 10.4817 111.157 12.9639 119.659 22.9007C122.558 26.289 125.352 32.1748 126.371 34.4356C126.644 35.0406 127.048 35.5735 127.566 35.988L129.724 37.7143C130.673 38.4734 131.225 39.6226 131.225 40.8378V45.0295C131.225 45.9653 130.897 46.8714 130.298 47.5903L127.62 50.8039C127.072 51.4612 126.328 51.9256 125.497 52.1287L107.826 56.4483C107.127 56.6191 106.396 56.5983 105.708 56.3881Z" fill="#A9B0B7"/>
<path fill-rule="evenodd" clip-rule="evenodd" d="M105.392 47.8954C105.88 48.1684 106.429 48.3667 106.995 48.3546C107.285 48.3484 107.607 48.3448 107.934 48.343C109.652 48.3334 111.374 48.2541 113.087 48.0525L113.685 47.9822C115.981 47.7121 118.296 47.6488 120.603 47.793L123.313 47.9624L129.136 49.127L129.289 48.3623L123.414 47.1873L120.652 47.0146C118.298 46.8675 115.936 46.9321 113.594 47.2077L112.996 47.278C111.319 47.4753 109.627 47.5536 107.93 47.5631C107.6 47.565 107.274 47.5686 106.978 47.5749C106.602 47.5829 106.193 47.45 105.773 47.2149C105.355 46.9812 104.952 46.6606 104.596 46.3294C104.241 45.9993 103.941 45.6667 103.729 45.4159C103.624 45.2908 103.541 45.1869 103.485 45.1148C103.457 45.0788 103.436 45.0507 103.422 45.0321L103.406 45.0113L103.403 45.0066L103.402 45.0056C103.402 45.0057 103.402 45.0057 103.087 45.2352C102.772 45.4647 102.772 45.4647 102.772 45.4648L102.772 45.4657L102.774 45.4678L102.779 45.4749L102.798 45.5004C102.815 45.5223 102.838 45.5538 102.869 45.5934C102.931 45.6726 103.02 45.7847 103.133 45.9187C103.359 46.186 103.68 46.5432 104.065 46.9006C104.448 47.2568 104.902 47.6211 105.392 47.8954Z" fill="#596068"/>
<ellipse cx="108.67" cy="31.9804" rx="11.8513" ry="11.8513" fill="#9BA1A6"/>
<ellipse cx="108.67" cy="31.9806" rx="9.87608" ry="9.87608" fill="#F9FCFE"/>
<circle cx="108.67" cy="31.9802" r="7.90086" fill="#F0DF42"/>
<ellipse cx="108.67" cy="31.9803" rx="5.92565" ry="5.92564" fill="#222529"/>
<ellipse cx="111.963" cy="27.3715" rx="1.31681" ry="1.31681" fill="white"/>
<ellipse cx="125.297" cy="44.02" rx="0.389943" ry="0.779886" transform="rotate(-23.9283 125.297 44.02)" fill="black"/>
<path d="M49.3036 59.404L35.1178 66.4968C34.9103 66.6006 34.7454 66.7732 34.6512 66.9851L33.6044 69.3403C33.5175 69.536 33.4956 69.7544 33.5421 69.9634L34.0075 72.058C34.0855 72.409 34.346 72.6912 34.6896 72.7969L37.9772 73.8085C38.272 73.8991 38.5921 73.8488 38.8447 73.6719L41.7602 71.6311L46.628 67.7368C46.6983 67.6806 46.776 67.6341 46.8588 67.5986L48.769 66.7799C48.9418 66.7058 49.1422 66.7444 49.2752 66.8774C49.3474 66.9496 49.3936 67.0439 49.4062 67.1454L49.7058 69.5414C49.7141 69.608 49.7157 69.6753 49.7105 69.7422L49.3867 73.9522L49.0735 78.0233C49.0614 78.1807 49.0868 78.3388 49.1475 78.4846L50.713 82.2418L52.7025 85.8893L54.0289 88.2104L54.4849 88.8945C54.5835 89.0423 54.8016 89.0408 54.9002 88.893C55.0358 88.6895 55.3552 88.7823 55.3552 89.027C55.3552 89.1334 55.4233 89.2279 55.5243 89.2615L56.1109 89.457C56.2481 89.5028 56.398 89.4407 56.4627 89.3113L56.5333 89.1701C56.6528 88.9311 57.0132 89.0161 57.0132 89.2834C57.0132 89.4233 57.1266 89.5367 57.2665 89.5367H57.6763C58.0426 89.5367 58.3395 89.2398 58.3395 88.8736V88.2104V85.739C58.3395 85.6191 58.3179 85.5002 58.2758 85.3879L56.4137 80.4221C56.3716 80.3098 56.35 80.1909 56.35 80.071V78.0214C56.35 77.9614 56.3446 77.9015 56.3339 77.8425L55.7124 74.4243C55.6954 74.3311 55.6653 74.2408 55.6229 74.156L54.7471 72.4044C54.7105 72.3312 54.6831 72.2539 54.6654 72.1741L54.0527 69.4171C54.0369 69.3459 54.0289 69.2732 54.0289 69.2002V64.3362V61.2973C54.0289 61.1161 53.9796 60.9382 53.8864 60.7828L53.1839 59.6121C53.0861 59.449 52.9438 59.3172 52.7737 59.2322L52.0557 58.8732C51.8319 58.7613 51.5743 58.7373 51.3338 58.8061L49.476 59.3369C49.4166 59.3538 49.3589 59.3763 49.3036 59.404Z" fill="#9BA1A6"/>
<path d="M53.5149 144.562L40.5865 114.294H49.8396L60.7358 140.497H55.2877L66.4433 114.294H74.9181L61.9465 144.562H53.5149Z" fill="#F0DF42"/>
<path d="M76.6899 144.562V114.294H83.7378L96.277 134.876H92.5585L104.752 114.294H111.8L111.886 144.562H104.017L103.93 126.272H105.271L96.1473 141.578H92.3423L82.9595 126.272H84.6026V144.562H76.6899Z" fill="#F0DF42"/>
<path d="M25.6957 183.861C23.4473 183.861 21.3574 183.486 19.4261 182.737C17.5235 181.958 15.8661 180.877 14.4536 179.494C13.0411 178.11 11.9457 176.496 11.1674 174.651C10.3891 172.777 10 170.731 10 168.511C10 166.292 10.3891 164.259 11.1674 162.414C11.9457 160.541 13.0411 158.912 14.4536 157.528C15.8949 156.145 17.5668 155.078 19.4693 154.329C21.3718 153.551 23.4473 153.161 25.6957 153.161C27.8288 153.161 29.8178 153.507 31.6626 154.199C33.5363 154.891 35.1361 155.943 36.4621 157.356L35.0785 158.782C33.7813 157.514 32.34 156.606 30.7546 156.058C29.198 155.482 27.5405 155.194 25.7822 155.194C23.8508 155.194 22.0492 155.525 20.3773 156.188C18.7342 156.851 17.2929 157.788 16.0534 158.999C14.8427 160.209 13.8915 161.622 13.1997 163.236C12.5367 164.85 12.2052 166.609 12.2052 168.511C12.2052 170.414 12.5367 172.172 13.1997 173.786C13.8915 175.4 14.8427 176.813 16.0534 178.024C17.2929 179.234 18.7342 180.171 20.3773 180.834C22.0492 181.497 23.8508 181.829 25.7822 181.829C27.5405 181.829 29.198 181.555 30.7546 181.007C32.34 180.431 33.7813 179.494 35.0785 178.197L36.4621 179.623C35.1361 181.036 33.5363 182.103 31.6626 182.823C29.8178 183.515 27.8288 183.861 25.6957 183.861Z" fill="#222529"/>
<path d="M43.1564 183.645V151.562H45.3183V183.645H43.1564Z" fill="#222529"/>
<path d="M68.6561 183.645V178.499L68.5696 177.721V169.246C68.5696 167.142 67.9931 165.542 66.8401 164.447C65.7159 163.351 64.0584 162.804 61.8676 162.804C60.311 162.804 58.8553 163.077 57.5005 163.625C56.1745 164.144 55.0359 164.821 54.0846 165.657L53.0037 164.101C54.1279 163.092 55.4827 162.314 57.0681 161.766C58.6535 161.189 60.311 160.901 62.0406 160.901C64.8367 160.901 66.9842 161.607 68.4831 163.02C69.9821 164.432 70.7316 166.537 70.7316 169.333V183.645H68.6561ZM60.5272 183.818C58.8553 183.818 57.3996 183.558 56.1601 183.039C54.9494 182.492 54.0126 181.728 53.3496 180.748C52.7154 179.768 52.3983 178.643 52.3983 177.375C52.3983 176.222 52.6578 175.184 53.1766 174.262C53.7243 173.311 54.6179 172.547 55.8574 171.97C57.0969 171.365 58.7544 171.062 60.8299 171.062H69.1317V172.749H60.8731C58.5382 172.749 56.8952 173.181 55.9439 174.046C55.0215 174.91 54.5603 175.991 54.5603 177.289C54.5603 178.73 55.1079 179.883 56.2033 180.748C57.2987 181.612 58.8409 182.045 60.8299 182.045C62.7324 182.045 64.3322 181.612 65.6294 180.748C66.9554 179.883 67.9355 178.629 68.5696 176.986L69.175 178.456C68.5696 180.099 67.5319 181.411 66.0618 182.391C64.6205 183.342 62.7756 183.818 60.5272 183.818Z" fill="#222529"/>
<path d="M79.6391 183.645V161.074H81.7145V167.257L81.4983 166.565C82.1325 164.749 83.1991 163.351 84.698 162.371C86.197 161.391 88.0706 160.901 90.3191 160.901V163.02C90.2326 163.02 90.1461 163.02 90.0596 163.02C89.9731 162.991 89.8867 162.977 89.8002 162.977C87.2923 162.977 85.3322 163.769 83.9197 165.355C82.5073 166.911 81.801 169.088 81.801 171.884V183.645H79.6391Z" fill="#222529"/>
<path d="M96.2759 183.645V161.074H98.4378V183.645H96.2759ZM97.3568 155.583C96.8668 155.583 96.4488 155.41 96.1029 155.064C95.757 154.718 95.584 154.314 95.584 153.853C95.584 153.363 95.757 152.945 96.1029 152.599C96.4488 152.253 96.8668 152.08 97.3568 152.08C97.8757 152.08 98.2937 152.253 98.6108 152.599C98.9567 152.916 99.1296 153.32 99.1296 153.81C99.1296 154.3 98.9567 154.718 98.6108 155.064C98.2937 155.41 97.8757 155.583 97.3568 155.583Z" fill="#222529"/>
<path d="M114.122 183.818C112.133 183.818 110.606 183.27 109.539 182.175C108.501 181.079 107.982 179.58 107.982 177.678V156.145H110.144V177.462C110.144 178.903 110.505 180.013 111.225 180.791C111.946 181.569 112.984 181.958 114.339 181.958C115.751 181.958 116.918 181.54 117.841 180.704L118.749 182.218C118.172 182.766 117.466 183.169 116.63 183.428C115.823 183.688 114.987 183.818 114.122 183.818ZM103.832 162.933V161.074H117.322V162.933H103.832Z" fill="#222529"/>
<path d="M123.837 192.206C122.799 192.206 121.819 192.033 120.897 191.687C120.003 191.341 119.239 190.837 118.605 190.174L119.686 188.531C120.262 189.136 120.882 189.583 121.545 189.871C122.237 190.159 123.015 190.303 123.88 190.303C124.918 190.303 125.826 190.015 126.604 189.439C127.411 188.862 128.161 187.81 128.853 186.282L130.409 182.823L130.712 182.434L140.268 161.074H142.473L130.885 186.715C130.279 188.098 129.616 189.179 128.896 189.958C128.204 190.765 127.44 191.341 126.604 191.687C125.768 192.033 124.846 192.206 123.837 192.206ZM130.366 184.207L119.902 161.074H122.194L131.706 182.304L130.366 184.207Z" fill="#222529"/>
<defs>
<linearGradient id="paint0_linear_702_1295" x1="68.9464" y1="28.4756" x2="76.4982" y2="87.6706" gradientUnits="userSpaceOnUse">
<stop stop-color="#DFE2E5"/>
<stop offset="0.375" stop-color="#AEB5BC"/>
<stop offset="0.526042" stop-color="#AEB5BC"/>
<stop offset="1" stop-color="#596068"/>
</linearGradient>
<linearGradient id="paint1_linear_702_1295" x1="116.193" y1="43.7074" x2="-17.9471" y2="126.782" gradientUnits="userSpaceOnUse">
<stop stop-color="#AEB5BC"/>
<stop offset="1" stop-color="#596068"/>
</linearGradient>
</defs>
</svg>
